%TF.GenerationSoftware,KiCad,Pcbnew,(5.1.6)-1*%
%TF.CreationDate,2020-12-09T17:23:27+01:00*%
%TF.ProjectId,ESP8266 w altanie,45535038-3236-4362-9077-20616c74616e,3*%
%TF.SameCoordinates,Original*%
%TF.FileFunction,Copper,L2,Bot*%
%TF.FilePolarity,Positive*%
%FSLAX46Y46*%
G04 Gerber Fmt 4.6, Leading zero omitted, Abs format (unit mm)*
G04 Created by KiCad (PCBNEW (5.1.6)-1) date 2020-12-09 17:23:27*
%MOMM*%
%LPD*%
G01*
G04 APERTURE LIST*
%TA.AperFunction,ComponentPad*%
%ADD10O,2.500000X1.500000*%
%TD*%
%TA.AperFunction,ComponentPad*%
%ADD11R,2.500000X1.500000*%
%TD*%
%TA.AperFunction,ComponentPad*%
%ADD12R,2.000000X2.000000*%
%TD*%
%TA.AperFunction,ComponentPad*%
%ADD13C,2.000000*%
%TD*%
%TA.AperFunction,Conductor*%
%ADD14C,0.250000*%
%TD*%
%TA.AperFunction,Conductor*%
%ADD15C,0.254000*%
%TD*%
G04 APERTURE END LIST*
D10*
%TO.P,U3,16*%
%TO.N,N/C*%
X36544000Y-45182000D03*
%TO.P,U3,15*%
X36544000Y-47182000D03*
%TO.P,U3,14*%
X36544000Y-49182000D03*
%TO.P,U3,13*%
X36544000Y-51182000D03*
%TO.P,U3,12*%
X36544000Y-53182000D03*
%TO.P,U3,11*%
X36544000Y-55182000D03*
%TO.P,U3,10*%
%TO.N,GND*%
X36544000Y-57182000D03*
%TO.P,U3,9*%
X36544000Y-59182000D03*
%TO.P,U3,8*%
%TO.N,N/C*%
X21144000Y-59182000D03*
%TO.P,U3,7*%
X21144000Y-57182000D03*
%TO.P,U3,6*%
X21144000Y-55182000D03*
%TO.P,U3,5*%
X21144000Y-53182000D03*
%TO.P,U3,4*%
X21144000Y-51182000D03*
%TO.P,U3,3*%
X21144000Y-49182000D03*
%TO.P,U3,2*%
X21144000Y-47182000D03*
D11*
%TO.P,U3,1*%
X21144000Y-45182000D03*
%TD*%
D12*
%TO.P,U2,1*%
%TO.N,GND*%
X24130000Y-64262000D03*
D13*
%TO.P,U2,3*%
%TO.N,N/C*%
X24130000Y-66802000D03*
%TO.P,U2,2*%
X46990000Y-66802000D03*
D12*
%TO.P,U2,1*%
%TO.N,GND*%
X46990000Y-64262000D03*
%TD*%
D13*
%TO.P,REF\u002A\u002A,14*%
%TO.N,N/C*%
X74930000Y-26162000D03*
%TO.P,REF\u002A\u002A,13*%
X74930000Y-28702000D03*
%TO.P,REF\u002A\u002A,12*%
X74930000Y-31242000D03*
%TO.P,REF\u002A\u002A,11*%
X74930000Y-33782000D03*
%TO.P,REF\u002A\u002A,10*%
X74930000Y-36322000D03*
%TO.P,REF\u002A\u002A,9*%
X74930000Y-38862000D03*
%TO.P,REF\u002A\u002A,8*%
X74930000Y-41402000D03*
%TO.P,REF\u002A\u002A,7*%
X74930000Y-43942000D03*
%TO.P,REF\u002A\u002A,6*%
X74930000Y-46482000D03*
%TO.P,REF\u002A\u002A,5*%
X74930000Y-49022000D03*
%TO.P,REF\u002A\u002A,4*%
X74930000Y-51562000D03*
%TO.P,REF\u002A\u002A,3*%
X74930000Y-54102000D03*
%TO.P,REF\u002A\u002A,2*%
%TO.N,GND*%
X74930000Y-56642000D03*
D12*
%TO.P,REF\u002A\u002A,1*%
%TO.N,N/C*%
X74930000Y-59182000D03*
%TD*%
D13*
%TO.P,R1,2*%
%TO.N,N/C*%
X29464000Y-27432000D03*
%TO.P,R1,1*%
X37084000Y-27432000D03*
%TD*%
%TO.P,IC1,1*%
%TO.N,N/C*%
X42005000Y-26162000D03*
%TO.P,IC1,2*%
X42005000Y-28702000D03*
%TO.P,IC1,3*%
X42005000Y-31242000D03*
%TO.P,IC1,4*%
X42005000Y-33782000D03*
%TO.P,IC1,5*%
X42005000Y-36322000D03*
%TO.P,IC1,6*%
X42005000Y-38862000D03*
%TO.P,IC1,7*%
X42005000Y-41402000D03*
%TO.P,IC1,8*%
X42005000Y-43942000D03*
%TO.P,IC1,9*%
X42005000Y-46482000D03*
%TO.P,IC1,10*%
%TO.N,GND*%
X42005000Y-49022000D03*
%TO.P,IC1,11*%
%TO.N,N/C*%
X42005000Y-51562000D03*
%TO.P,IC1,12*%
X42005000Y-54102000D03*
%TO.P,IC1,13*%
X42005000Y-56642000D03*
%TO.P,IC1,14*%
X42005000Y-59182000D03*
%TO.P,IC1,15*%
%TO.N,GND*%
X49943000Y-59182000D03*
%TO.P,IC1,16*%
X49943000Y-56642000D03*
%TO.P,IC1,17*%
X49943000Y-54102000D03*
%TO.P,IC1,18*%
%TO.N,N/C*%
X49943000Y-51562000D03*
%TO.P,IC1,19*%
X49943000Y-49022000D03*
%TO.P,IC1,20*%
X49943000Y-46482000D03*
%TO.P,IC1,21*%
X49943000Y-43942000D03*
%TO.P,IC1,22*%
X49943000Y-41402000D03*
%TO.P,IC1,23*%
X49943000Y-38862000D03*
%TO.P,IC1,24*%
X49943000Y-36322000D03*
%TO.P,IC1,25*%
X49943000Y-33782000D03*
%TO.P,IC1,26*%
X49943000Y-31242000D03*
%TO.P,IC1,27*%
X49943000Y-28702000D03*
%TO.P,IC1,28*%
X49943000Y-26162000D03*
%TD*%
%TO.P,R4,2*%
%TO.N,N/C*%
X29464000Y-35052000D03*
%TO.P,R4,1*%
X37084000Y-35052000D03*
%TD*%
%TO.P,R3,2*%
%TO.N,N/C*%
X29464000Y-32512000D03*
%TO.P,R3,1*%
X37084000Y-32512000D03*
%TD*%
%TO.P,R2,2*%
%TO.N,N/C*%
X29464000Y-29972000D03*
%TO.P,R2,1*%
X37084000Y-29972000D03*
%TD*%
%TO.P,Q1,3*%
%TO.N,N/C*%
X69342000Y-43180000D03*
%TO.P,Q1,2*%
X69342000Y-40640000D03*
D12*
%TO.P,Q1,1*%
%TO.N,GND*%
X69342000Y-38100000D03*
%TD*%
D13*
%TO.P,Q3,3*%
%TO.N,N/C*%
X69342000Y-28702000D03*
%TO.P,Q3,2*%
X69342000Y-31242000D03*
D12*
%TO.P,Q3,1*%
%TO.N,GND*%
X69342000Y-33782000D03*
%TD*%
D13*
%TO.P,Q4,3*%
%TO.N,N/C*%
X65278000Y-28702000D03*
%TO.P,Q4,2*%
X65278000Y-31242000D03*
D12*
%TO.P,Q4,1*%
%TO.N,GND*%
X65278000Y-33782000D03*
%TD*%
D13*
%TO.P,Q2,3*%
%TO.N,N/C*%
X65278000Y-43180000D03*
%TO.P,Q2,2*%
X65278000Y-40640000D03*
D12*
%TO.P,Q2,1*%
%TO.N,GND*%
X65278000Y-38100000D03*
%TD*%
D13*
%TO.P,Q5,3*%
%TO.N,N/C*%
X59690000Y-58990000D03*
%TO.P,Q5,2*%
X57150000Y-58990000D03*
D12*
%TO.P,Q5,1*%
%TO.N,GND*%
X54610000Y-58990000D03*
%TD*%
D13*
%TO.P,Q6,3*%
%TO.N,N/C*%
X59690000Y-54990000D03*
%TO.P,Q6,2*%
X57150000Y-54990000D03*
D12*
%TO.P,Q6,1*%
%TO.N,GND*%
X54610000Y-54990000D03*
%TD*%
D13*
%TO.P,Q7,3*%
%TO.N,N/C*%
X59690000Y-50990000D03*
%TO.P,Q7,2*%
X57150000Y-50990000D03*
D12*
%TO.P,Q7,1*%
%TO.N,GND*%
X54610000Y-50990000D03*
%TD*%
D13*
%TO.P,R12,2*%
%TO.N,N/C*%
X60706000Y-43942000D03*
%TO.P,R12,1*%
X53086000Y-43942000D03*
%TD*%
%TO.P,R11,2*%
%TO.N,N/C*%
X60706000Y-41402000D03*
%TO.P,R11,1*%
X53086000Y-41402000D03*
%TD*%
%TO.P,R10,2*%
%TO.N,N/C*%
X60706000Y-38862000D03*
%TO.P,R10,1*%
X53086000Y-38862000D03*
%TD*%
%TO.P,R9,2*%
%TO.N,N/C*%
X60706000Y-36322000D03*
%TO.P,R9,1*%
X53086000Y-36322000D03*
%TD*%
%TO.P,R8,2*%
%TO.N,N/C*%
X60706000Y-33782000D03*
%TO.P,R8,1*%
X53086000Y-33782000D03*
%TD*%
%TO.P,R7,2*%
%TO.N,N/C*%
X60706000Y-31242000D03*
%TO.P,R7,1*%
X53086000Y-31242000D03*
%TD*%
%TO.P,R6,2*%
%TO.N,N/C*%
X60706000Y-28702000D03*
%TO.P,R6,1*%
X53086000Y-28702000D03*
%TD*%
%TO.P,Q8,3*%
%TO.N,N/C*%
X59690000Y-46990000D03*
%TO.P,Q8,2*%
X57150000Y-46990000D03*
D12*
%TO.P,Q8,1*%
%TO.N,GND*%
X54610000Y-46990000D03*
%TD*%
D13*
%TO.P,R5,2*%
%TO.N,N/C*%
X60706000Y-26162000D03*
%TO.P,R5,1*%
X53086000Y-26162000D03*
%TD*%
D14*
%TO.N,*%
X57150000Y-54990000D02*
X57150000Y-53594000D01*
X57150000Y-53594000D02*
X57912000Y-52832000D01*
X57912000Y-52832000D02*
X61468000Y-52832000D01*
X61468000Y-52832000D02*
X62484000Y-51816000D01*
X62484000Y-51816000D02*
X62484000Y-43180000D01*
X60198000Y-43942000D02*
X60706000Y-43942000D01*
X57150000Y-46990000D02*
X60198000Y-43942000D01*
X71628000Y-26670000D02*
X71628000Y-28956000D01*
X71628000Y-28956000D02*
X69342000Y-31242000D01*
X61976000Y-26162000D02*
X71120000Y-26162000D01*
X71120000Y-26162000D02*
X71628000Y-26670000D01*
X40735000Y-35052000D02*
X42005000Y-33782000D01*
X37084000Y-35052000D02*
X40735000Y-35052000D01*
X40735000Y-32512000D02*
X42005000Y-31242000D01*
X37084000Y-32512000D02*
X40735000Y-32512000D01*
X40735000Y-29972000D02*
X42005000Y-28702000D01*
X37084000Y-29972000D02*
X40735000Y-29972000D01*
X40735000Y-27432000D02*
X42005000Y-26162000D01*
X37084000Y-27432000D02*
X40735000Y-27432000D01*
X71628000Y-38354000D02*
X69342000Y-40640000D01*
X71628000Y-36576000D02*
X71628000Y-38354000D01*
X70866000Y-35814000D02*
X71628000Y-36576000D01*
X60706000Y-31242000D02*
X62230000Y-32766000D01*
X63754000Y-35814000D02*
X70866000Y-35814000D01*
X57150000Y-49784000D02*
X57912000Y-49022000D01*
X61468000Y-49022000D02*
X61976000Y-48514000D01*
X57150000Y-50990000D02*
X57150000Y-49784000D01*
X61976000Y-48514000D02*
X61976000Y-45212000D01*
X57912000Y-49022000D02*
X61468000Y-49022000D01*
X61976000Y-42672000D02*
X60706000Y-41402000D01*
X61976000Y-45212000D02*
X61976000Y-42672000D01*
X62484000Y-40640000D02*
X60706000Y-38862000D01*
X62484000Y-43180000D02*
X62484000Y-40640000D01*
X63754000Y-35814000D02*
X62230000Y-34290000D01*
X62230000Y-32766000D02*
X62230000Y-34290000D01*
X62992000Y-38608000D02*
X60706000Y-36322000D01*
X57150000Y-57912000D02*
X58166000Y-56896000D01*
X57150000Y-58990000D02*
X57150000Y-57912000D01*
X58166000Y-56896000D02*
X61468000Y-56896000D01*
X61468000Y-56896000D02*
X62992000Y-55372000D01*
X62992000Y-55372000D02*
X62992000Y-38608000D01*
X61976000Y-26162000D02*
X60706000Y-26162000D01*
%TO.N,GND*%
X67310000Y-40132000D02*
X69342000Y-38100000D01*
X65278000Y-38100000D02*
X67310000Y-40132000D01*
X46990000Y-64262000D02*
X48514000Y-64262000D01*
X73660000Y-56642000D02*
X74930000Y-56642000D01*
X68834000Y-58674000D02*
X71628000Y-58674000D01*
X71628000Y-58674000D02*
X73660000Y-56642000D01*
X67310000Y-40132000D02*
X67310000Y-57150000D01*
X67310000Y-57150000D02*
X68834000Y-58674000D01*
X68834000Y-58674000D02*
X68834000Y-65278000D01*
X68834000Y-65278000D02*
X66802000Y-67310000D01*
X66802000Y-67310000D02*
X52832000Y-67310000D01*
X49784000Y-64262000D02*
X46990000Y-64262000D01*
X52832000Y-67310000D02*
X49784000Y-64262000D01*
%TD*%
D15*
%TO.N,GND*%
G36*
X71755000Y-62230000D02*
G01*
X71757440Y-62254776D01*
X71764667Y-62278601D01*
X71776403Y-62300557D01*
X71792197Y-62319803D01*
X71811443Y-62335597D01*
X71833399Y-62347333D01*
X71857224Y-62354560D01*
X71882000Y-62357000D01*
X72517000Y-62357000D01*
X72517000Y-65733394D01*
X68044394Y-70206000D01*
X51435000Y-70206000D01*
X51435000Y-62611000D01*
X66294000Y-62611000D01*
X66318776Y-62608560D01*
X66342601Y-62601333D01*
X66364557Y-62589597D01*
X66383803Y-62573803D01*
X66399597Y-62554557D01*
X66411333Y-62532601D01*
X66418560Y-62508776D01*
X66421000Y-62484000D01*
X66421000Y-46609000D01*
X71755000Y-46609000D01*
X71755000Y-62230000D01*
G37*
X71755000Y-62230000D02*
X71757440Y-62254776D01*
X71764667Y-62278601D01*
X71776403Y-62300557D01*
X71792197Y-62319803D01*
X71811443Y-62335597D01*
X71833399Y-62347333D01*
X71857224Y-62354560D01*
X71882000Y-62357000D01*
X72517000Y-62357000D01*
X72517000Y-65733394D01*
X68044394Y-70206000D01*
X51435000Y-70206000D01*
X51435000Y-62611000D01*
X66294000Y-62611000D01*
X66318776Y-62608560D01*
X66342601Y-62601333D01*
X66364557Y-62589597D01*
X66383803Y-62573803D01*
X66399597Y-62554557D01*
X66411333Y-62532601D01*
X66418560Y-62508776D01*
X66421000Y-62484000D01*
X66421000Y-46609000D01*
X71755000Y-46609000D01*
X71755000Y-62230000D01*
%TD*%
M02*
