M48
; DRILL file {KiCad (5.1.6)-1} date 12/09/20 17:23:48
; FORMAT={-:-/ absolute / inch / decimal}
; #@! TF.CreationDate,2020-12-09T17:23:48+01:00
; #@! TF.GenerationSoftware,Kicad,Pcbnew,(5.1.6)-1
; #@! TF.FileFunction,Plated,1,2,PTH
FMAT,2
INCH
T1C0.0394
%
G90
G05
T1
X2.09Y-1.73
X2.39Y-1.73
X2.09Y-1.43
X2.39Y-1.43
X2.57Y-1.13
X2.57Y-1.23
X2.57Y-1.33
X1.16Y-1.08
X1.46Y-1.08
X2.09Y-1.33
X2.39Y-1.33
X2.73Y-1.5
X2.73Y-1.6
X2.73Y-1.7
X2.09Y-1.63
X2.39Y-1.63
X0.95Y-2.53
X0.95Y-2.63
X1.85Y-2.53
X1.85Y-2.63
X1.6537Y-1.03
X1.6537Y-1.13
X1.6537Y-1.23
X1.6537Y-1.33
X1.6537Y-1.43
X1.6537Y-1.53
X1.6537Y-1.63
X1.6537Y-1.73
X1.6537Y-1.83
X1.6537Y-1.93
X1.6537Y-2.03
X1.6537Y-2.13
X1.6537Y-2.23
X1.6537Y-2.33
X1.9663Y-1.03
X1.9663Y-1.13
X1.9663Y-1.23
X1.9663Y-1.33
X1.9663Y-1.43
X1.9663Y-1.53
X1.9663Y-1.63
X1.9663Y-1.73
X1.9663Y-1.83
X1.9663Y-1.93
X1.9663Y-2.03
X1.9663Y-2.13
X1.9663Y-2.23
X1.9663Y-2.33
X2.09Y-1.53
X2.39Y-1.53
X2.09Y-1.03
X2.39Y-1.03
X2.73Y-1.13
X2.73Y-1.23
X2.73Y-1.33
X2.15Y-1.85
X2.25Y-1.85
X2.35Y-1.85
X2.15Y-2.165
X2.25Y-2.165
X2.35Y-2.165
X0.86Y-1.7788
X0.86Y-1.8576
X0.86Y-1.9363
X0.86Y-2.015
X0.86Y-2.0938
X0.86Y-2.1725
X0.86Y-2.2513
X0.86Y-2.33
X1.4112Y-1.7788
X1.4112Y-1.8576
X1.4112Y-1.9363
X1.4112Y-2.015
X1.4112Y-2.0938
X1.4112Y-2.1725
X1.4112Y-2.2513
X1.4112Y-2.33
X1.16Y-1.38
X1.46Y-1.38
X2.09Y-1.13
X2.39Y-1.13
X2.15Y-2.0075
X2.25Y-2.0075
X2.35Y-2.0075
X1.16Y-1.18
X1.46Y-1.18
X2.15Y-2.3224
X2.25Y-2.3224
X2.35Y-2.3224
X2.95Y-1.03
X2.95Y-1.13
X2.95Y-1.23
X2.95Y-1.33
X2.95Y-1.43
X2.95Y-1.53
X2.95Y-1.63
X2.95Y-1.73
X2.95Y-1.83
X2.95Y-1.93
X2.95Y-2.03
X2.95Y-2.13
X2.95Y-2.23
X2.95Y-2.33
X2.09Y-1.23
X2.39Y-1.23
X2.57Y-1.5
X2.57Y-1.6
X2.57Y-1.7
X1.16Y-1.28
X1.46Y-1.28
T0
M30
