%TF.GenerationSoftware,KiCad,Pcbnew,(5.1.6)-1*%
%TF.CreationDate,2020-12-09T17:23:27+01:00*%
%TF.ProjectId,ESP8266 w altanie,45535038-3236-4362-9077-20616c74616e,3*%
%TF.SameCoordinates,Original*%
%TF.FileFunction,Soldermask,Top*%
%TF.FilePolarity,Negative*%
%FSLAX46Y46*%
G04 Gerber Fmt 4.6, Leading zero omitted, Abs format (unit mm)*
G04 Created by KiCad (PCBNEW (5.1.6)-1) date 2020-12-09 17:23:27*
%MOMM*%
%LPD*%
G01*
G04 APERTURE LIST*
%ADD10O,2.600000X1.600000*%
%ADD11R,2.600000X1.600000*%
%ADD12R,2.100000X2.100000*%
%ADD13C,2.100000*%
G04 APERTURE END LIST*
D10*
%TO.C,U3*%
X36544000Y-45182000D03*
X36544000Y-47182000D03*
X36544000Y-49182000D03*
X36544000Y-51182000D03*
X36544000Y-53182000D03*
X36544000Y-55182000D03*
X36544000Y-57182000D03*
X36544000Y-59182000D03*
X21144000Y-59182000D03*
X21144000Y-57182000D03*
X21144000Y-55182000D03*
X21144000Y-53182000D03*
X21144000Y-51182000D03*
X21144000Y-49182000D03*
X21144000Y-47182000D03*
D11*
X21144000Y-45182000D03*
%TD*%
D12*
%TO.C,U2*%
X24130000Y-64262000D03*
D13*
X24130000Y-66802000D03*
X46990000Y-66802000D03*
D12*
X46990000Y-64262000D03*
%TD*%
D13*
%TO.C,REF\u002A\u002A*%
X74930000Y-26162000D03*
X74930000Y-28702000D03*
X74930000Y-31242000D03*
X74930000Y-33782000D03*
X74930000Y-36322000D03*
X74930000Y-38862000D03*
X74930000Y-41402000D03*
X74930000Y-43942000D03*
X74930000Y-46482000D03*
X74930000Y-49022000D03*
X74930000Y-51562000D03*
X74930000Y-54102000D03*
X74930000Y-56642000D03*
D12*
X74930000Y-59182000D03*
%TD*%
D13*
%TO.C,R1*%
X29464000Y-27432000D03*
X37084000Y-27432000D03*
%TD*%
%TO.C,IC1*%
X42005000Y-26162000D03*
X42005000Y-28702000D03*
X42005000Y-31242000D03*
X42005000Y-33782000D03*
X42005000Y-36322000D03*
X42005000Y-38862000D03*
X42005000Y-41402000D03*
X42005000Y-43942000D03*
X42005000Y-46482000D03*
X42005000Y-49022000D03*
X42005000Y-51562000D03*
X42005000Y-54102000D03*
X42005000Y-56642000D03*
X42005000Y-59182000D03*
X49943000Y-59182000D03*
X49943000Y-56642000D03*
X49943000Y-54102000D03*
X49943000Y-51562000D03*
X49943000Y-49022000D03*
X49943000Y-46482000D03*
X49943000Y-43942000D03*
X49943000Y-41402000D03*
X49943000Y-38862000D03*
X49943000Y-36322000D03*
X49943000Y-33782000D03*
X49943000Y-31242000D03*
X49943000Y-28702000D03*
X49943000Y-26162000D03*
%TD*%
%TO.C,R4*%
X29464000Y-35052000D03*
X37084000Y-35052000D03*
%TD*%
%TO.C,R3*%
X29464000Y-32512000D03*
X37084000Y-32512000D03*
%TD*%
%TO.C,R2*%
X29464000Y-29972000D03*
X37084000Y-29972000D03*
%TD*%
%TO.C,Q1*%
X69342000Y-43180000D03*
X69342000Y-40640000D03*
D12*
X69342000Y-38100000D03*
%TD*%
D13*
%TO.C,Q3*%
X69342000Y-28702000D03*
X69342000Y-31242000D03*
D12*
X69342000Y-33782000D03*
%TD*%
D13*
%TO.C,Q4*%
X65278000Y-28702000D03*
X65278000Y-31242000D03*
D12*
X65278000Y-33782000D03*
%TD*%
D13*
%TO.C,Q2*%
X65278000Y-43180000D03*
X65278000Y-40640000D03*
D12*
X65278000Y-38100000D03*
%TD*%
D13*
%TO.C,Q5*%
X59690000Y-58990000D03*
X57150000Y-58990000D03*
D12*
X54610000Y-58990000D03*
%TD*%
D13*
%TO.C,Q6*%
X59690000Y-54990000D03*
X57150000Y-54990000D03*
D12*
X54610000Y-54990000D03*
%TD*%
D13*
%TO.C,Q7*%
X59690000Y-50990000D03*
X57150000Y-50990000D03*
D12*
X54610000Y-50990000D03*
%TD*%
D13*
%TO.C,R12*%
X60706000Y-43942000D03*
X53086000Y-43942000D03*
%TD*%
%TO.C,R11*%
X60706000Y-41402000D03*
X53086000Y-41402000D03*
%TD*%
%TO.C,R10*%
X60706000Y-38862000D03*
X53086000Y-38862000D03*
%TD*%
%TO.C,R9*%
X60706000Y-36322000D03*
X53086000Y-36322000D03*
%TD*%
%TO.C,R8*%
X60706000Y-33782000D03*
X53086000Y-33782000D03*
%TD*%
%TO.C,R7*%
X60706000Y-31242000D03*
X53086000Y-31242000D03*
%TD*%
%TO.C,R6*%
X60706000Y-28702000D03*
X53086000Y-28702000D03*
%TD*%
%TO.C,Q8*%
X59690000Y-46990000D03*
X57150000Y-46990000D03*
D12*
X54610000Y-46990000D03*
%TD*%
D13*
%TO.C,R5*%
X60706000Y-26162000D03*
X53086000Y-26162000D03*
%TD*%
M02*
