%TF.GenerationSoftware,KiCad,Pcbnew,(5.1.6)-1*%
%TF.CreationDate,2020-12-09T17:23:27+01:00*%
%TF.ProjectId,ESP8266 w altanie,45535038-3236-4362-9077-20616c74616e,3*%
%TF.SameCoordinates,Original*%
%TF.FileFunction,Legend,Top*%
%TF.FilePolarity,Positive*%
%FSLAX46Y46*%
G04 Gerber Fmt 4.6, Leading zero omitted, Abs format (unit mm)*
G04 Created by KiCad (PCBNEW (5.1.6)-1) date 2020-12-09 17:23:27*
%MOMM*%
%LPD*%
G01*
G04 APERTURE LIST*
%ADD10C,0.152400*%
%ADD11C,0.120000*%
%ADD12C,0.200000*%
%ADD13C,0.150000*%
%ADD14C,0.254000*%
G04 APERTURE END LIST*
D10*
%TO.C,U3*%
X20836000Y-42582000D02*
X36836000Y-42582000D01*
X20844000Y-38782000D02*
X36844000Y-42582000D01*
X36844000Y-38782000D02*
X20844000Y-42582000D01*
X36844000Y-60782000D02*
X36844000Y-59982000D01*
X20844000Y-60782000D02*
X36844000Y-60782000D01*
X20844000Y-59982000D02*
X20844000Y-60782000D01*
X20844000Y-38782000D02*
X20844000Y-44182000D01*
X36844000Y-38782000D02*
X36844000Y-44182000D01*
X20844000Y-38782000D02*
X36844000Y-38782000D01*
D11*
%TO.C,U2*%
X48320000Y-62932000D02*
X48320000Y-64262000D01*
X45720000Y-65532000D02*
X48320000Y-65532000D01*
X46990000Y-62932000D02*
X48320000Y-62932000D01*
X48320000Y-65532000D02*
X48320000Y-68132000D01*
X45720000Y-62932000D02*
X22800000Y-62932000D01*
X45720000Y-62932000D02*
X45720000Y-65532000D01*
X48320000Y-68132000D02*
X22800000Y-68132000D01*
X22800000Y-62932000D02*
X22800000Y-68132000D01*
%TO.C,REF\u002A\u002A*%
X74930000Y-60512000D02*
X73600000Y-60512000D01*
X73600000Y-60512000D02*
X73600000Y-59182000D01*
X73600000Y-57912000D02*
X73600000Y-24832000D01*
X76260000Y-24832000D02*
X73600000Y-24832000D01*
X76260000Y-57912000D02*
X76260000Y-24832000D01*
X76260000Y-57912000D02*
X73600000Y-57912000D01*
%TO.C,R1*%
X30404000Y-27432000D02*
X31354000Y-27432000D01*
X36144000Y-27432000D02*
X35194000Y-27432000D01*
X31354000Y-28352000D02*
X35194000Y-28352000D01*
X31354000Y-26512000D02*
X31354000Y-28352000D01*
X35194000Y-26512000D02*
X31354000Y-26512000D01*
X35194000Y-28352000D02*
X35194000Y-26512000D01*
D12*
%TO.C,IC1*%
X41426000Y-24892000D02*
X49720000Y-24892000D01*
X42228000Y-60452000D02*
X49720000Y-60452000D01*
D11*
%TO.C,R4*%
X30404000Y-35052000D02*
X31354000Y-35052000D01*
X36144000Y-35052000D02*
X35194000Y-35052000D01*
X31354000Y-35972000D02*
X35194000Y-35972000D01*
X31354000Y-34132000D02*
X31354000Y-35972000D01*
X35194000Y-34132000D02*
X31354000Y-34132000D01*
X35194000Y-35972000D02*
X35194000Y-34132000D01*
%TO.C,R3*%
X30404000Y-32512000D02*
X31354000Y-32512000D01*
X36144000Y-32512000D02*
X35194000Y-32512000D01*
X31354000Y-33432000D02*
X35194000Y-33432000D01*
X31354000Y-31592000D02*
X31354000Y-33432000D01*
X35194000Y-31592000D02*
X31354000Y-31592000D01*
X35194000Y-33432000D02*
X35194000Y-31592000D01*
%TO.C,R2*%
X30404000Y-29972000D02*
X31354000Y-29972000D01*
X36144000Y-29972000D02*
X35194000Y-29972000D01*
X31354000Y-30892000D02*
X35194000Y-30892000D01*
X31354000Y-29052000D02*
X31354000Y-30892000D01*
X35194000Y-29052000D02*
X31354000Y-29052000D01*
X35194000Y-30892000D02*
X35194000Y-29052000D01*
%TO.C,Q1*%
X69342000Y-36770000D02*
X70672000Y-36770000D01*
X70672000Y-36770000D02*
X70672000Y-38100000D01*
X70672000Y-39370000D02*
X70672000Y-44510000D01*
X68012000Y-44510000D02*
X70672000Y-44510000D01*
X68012000Y-39370000D02*
X68012000Y-44510000D01*
X68012000Y-39370000D02*
X70672000Y-39370000D01*
%TO.C,Q3*%
X69342000Y-35112000D02*
X68012000Y-35112000D01*
X68012000Y-35112000D02*
X68012000Y-33782000D01*
X68012000Y-32512000D02*
X68012000Y-27372000D01*
X70672000Y-27372000D02*
X68012000Y-27372000D01*
X70672000Y-32512000D02*
X70672000Y-27372000D01*
X70672000Y-32512000D02*
X68012000Y-32512000D01*
%TO.C,Q4*%
X65278000Y-35112000D02*
X63948000Y-35112000D01*
X63948000Y-35112000D02*
X63948000Y-33782000D01*
X63948000Y-32512000D02*
X63948000Y-27372000D01*
X66608000Y-27372000D02*
X63948000Y-27372000D01*
X66608000Y-32512000D02*
X66608000Y-27372000D01*
X66608000Y-32512000D02*
X63948000Y-32512000D01*
%TO.C,Q2*%
X65278000Y-36770000D02*
X66608000Y-36770000D01*
X66608000Y-36770000D02*
X66608000Y-38100000D01*
X66608000Y-39370000D02*
X66608000Y-44510000D01*
X63948000Y-44510000D02*
X66608000Y-44510000D01*
X63948000Y-39370000D02*
X63948000Y-44510000D01*
X63948000Y-39370000D02*
X66608000Y-39370000D01*
%TO.C,Q5*%
X53280000Y-58990000D02*
X53280000Y-57660000D01*
X53280000Y-57660000D02*
X54610000Y-57660000D01*
X55880000Y-57660000D02*
X61020000Y-57660000D01*
X61020000Y-60320000D02*
X61020000Y-57660000D01*
X55880000Y-60320000D02*
X61020000Y-60320000D01*
X55880000Y-60320000D02*
X55880000Y-57660000D01*
%TO.C,Q6*%
X53280000Y-54990000D02*
X53280000Y-53660000D01*
X53280000Y-53660000D02*
X54610000Y-53660000D01*
X55880000Y-53660000D02*
X61020000Y-53660000D01*
X61020000Y-56320000D02*
X61020000Y-53660000D01*
X55880000Y-56320000D02*
X61020000Y-56320000D01*
X55880000Y-56320000D02*
X55880000Y-53660000D01*
%TO.C,Q7*%
X53280000Y-50990000D02*
X53280000Y-49660000D01*
X53280000Y-49660000D02*
X54610000Y-49660000D01*
X55880000Y-49660000D02*
X61020000Y-49660000D01*
X61020000Y-52320000D02*
X61020000Y-49660000D01*
X55880000Y-52320000D02*
X61020000Y-52320000D01*
X55880000Y-52320000D02*
X55880000Y-49660000D01*
%TO.C,R12*%
X59766000Y-43942000D02*
X58816000Y-43942000D01*
X54026000Y-43942000D02*
X54976000Y-43942000D01*
X58816000Y-43022000D02*
X54976000Y-43022000D01*
X58816000Y-44862000D02*
X58816000Y-43022000D01*
X54976000Y-44862000D02*
X58816000Y-44862000D01*
X54976000Y-43022000D02*
X54976000Y-44862000D01*
%TO.C,R11*%
X59766000Y-41402000D02*
X58816000Y-41402000D01*
X54026000Y-41402000D02*
X54976000Y-41402000D01*
X58816000Y-40482000D02*
X54976000Y-40482000D01*
X58816000Y-42322000D02*
X58816000Y-40482000D01*
X54976000Y-42322000D02*
X58816000Y-42322000D01*
X54976000Y-40482000D02*
X54976000Y-42322000D01*
%TO.C,R10*%
X59766000Y-38862000D02*
X58816000Y-38862000D01*
X54026000Y-38862000D02*
X54976000Y-38862000D01*
X58816000Y-37942000D02*
X54976000Y-37942000D01*
X58816000Y-39782000D02*
X58816000Y-37942000D01*
X54976000Y-39782000D02*
X58816000Y-39782000D01*
X54976000Y-37942000D02*
X54976000Y-39782000D01*
%TO.C,R9*%
X59766000Y-36322000D02*
X58816000Y-36322000D01*
X54026000Y-36322000D02*
X54976000Y-36322000D01*
X58816000Y-35402000D02*
X54976000Y-35402000D01*
X58816000Y-37242000D02*
X58816000Y-35402000D01*
X54976000Y-37242000D02*
X58816000Y-37242000D01*
X54976000Y-35402000D02*
X54976000Y-37242000D01*
%TO.C,R8*%
X59766000Y-33782000D02*
X58816000Y-33782000D01*
X54026000Y-33782000D02*
X54976000Y-33782000D01*
X58816000Y-32862000D02*
X54976000Y-32862000D01*
X58816000Y-34702000D02*
X58816000Y-32862000D01*
X54976000Y-34702000D02*
X58816000Y-34702000D01*
X54976000Y-32862000D02*
X54976000Y-34702000D01*
%TO.C,R7*%
X59766000Y-31242000D02*
X58816000Y-31242000D01*
X54026000Y-31242000D02*
X54976000Y-31242000D01*
X58816000Y-30322000D02*
X54976000Y-30322000D01*
X58816000Y-32162000D02*
X58816000Y-30322000D01*
X54976000Y-32162000D02*
X58816000Y-32162000D01*
X54976000Y-30322000D02*
X54976000Y-32162000D01*
%TO.C,R6*%
X59766000Y-28702000D02*
X58816000Y-28702000D01*
X54026000Y-28702000D02*
X54976000Y-28702000D01*
X58816000Y-27782000D02*
X54976000Y-27782000D01*
X58816000Y-29622000D02*
X58816000Y-27782000D01*
X54976000Y-29622000D02*
X58816000Y-29622000D01*
X54976000Y-27782000D02*
X54976000Y-29622000D01*
%TO.C,Q8*%
X53280000Y-46990000D02*
X53280000Y-45660000D01*
X53280000Y-45660000D02*
X54610000Y-45660000D01*
X55880000Y-45660000D02*
X61020000Y-45660000D01*
X61020000Y-48320000D02*
X61020000Y-45660000D01*
X55880000Y-48320000D02*
X61020000Y-48320000D01*
X55880000Y-48320000D02*
X55880000Y-45660000D01*
%TO.C,R5*%
X59766000Y-26162000D02*
X58816000Y-26162000D01*
X54026000Y-26162000D02*
X54976000Y-26162000D01*
X58816000Y-25242000D02*
X54976000Y-25242000D01*
X58816000Y-27082000D02*
X58816000Y-25242000D01*
X54976000Y-27082000D02*
X58816000Y-27082000D01*
X54976000Y-25242000D02*
X54976000Y-27082000D01*
%TO.C,U3*%
D13*
X28956095Y-51268380D02*
X28956095Y-52077904D01*
X29003714Y-52173142D01*
X29051333Y-52220761D01*
X29146571Y-52268380D01*
X29337047Y-52268380D01*
X29432285Y-52220761D01*
X29479904Y-52173142D01*
X29527523Y-52077904D01*
X29527523Y-51268380D01*
X29908476Y-51268380D02*
X30527523Y-51268380D01*
X30194190Y-51649333D01*
X30337047Y-51649333D01*
X30432285Y-51696952D01*
X30479904Y-51744571D01*
X30527523Y-51839809D01*
X30527523Y-52077904D01*
X30479904Y-52173142D01*
X30432285Y-52220761D01*
X30337047Y-52268380D01*
X30051333Y-52268380D01*
X29956095Y-52220761D01*
X29908476Y-52173142D01*
X25021714Y-40234380D02*
X25021714Y-39234380D01*
X25593142Y-40234380D01*
X25593142Y-39234380D01*
X26212190Y-40234380D02*
X26116952Y-40186761D01*
X26069333Y-40139142D01*
X26021714Y-40043904D01*
X26021714Y-39758190D01*
X26069333Y-39662952D01*
X26116952Y-39615333D01*
X26212190Y-39567714D01*
X26355047Y-39567714D01*
X26450285Y-39615333D01*
X26497904Y-39662952D01*
X26545523Y-39758190D01*
X26545523Y-40043904D01*
X26497904Y-40139142D01*
X26450285Y-40186761D01*
X26355047Y-40234380D01*
X26212190Y-40234380D01*
X28307428Y-40139142D02*
X28259809Y-40186761D01*
X28116952Y-40234380D01*
X28021714Y-40234380D01*
X27878857Y-40186761D01*
X27783619Y-40091523D01*
X27736000Y-39996285D01*
X27688380Y-39805809D01*
X27688380Y-39662952D01*
X27736000Y-39472476D01*
X27783619Y-39377238D01*
X27878857Y-39282000D01*
X28021714Y-39234380D01*
X28116952Y-39234380D01*
X28259809Y-39282000D01*
X28307428Y-39329619D01*
X28878857Y-40234380D02*
X28783619Y-40186761D01*
X28736000Y-40139142D01*
X28688380Y-40043904D01*
X28688380Y-39758190D01*
X28736000Y-39662952D01*
X28783619Y-39615333D01*
X28878857Y-39567714D01*
X29021714Y-39567714D01*
X29116952Y-39615333D01*
X29164571Y-39662952D01*
X29212190Y-39758190D01*
X29212190Y-40043904D01*
X29164571Y-40139142D01*
X29116952Y-40186761D01*
X29021714Y-40234380D01*
X28878857Y-40234380D01*
X29640761Y-39567714D02*
X29640761Y-40567714D01*
X29640761Y-39615333D02*
X29736000Y-39567714D01*
X29926476Y-39567714D01*
X30021714Y-39615333D01*
X30069333Y-39662952D01*
X30116952Y-39758190D01*
X30116952Y-40043904D01*
X30069333Y-40139142D01*
X30021714Y-40186761D01*
X29926476Y-40234380D01*
X29736000Y-40234380D01*
X29640761Y-40186761D01*
X30545523Y-39567714D02*
X30545523Y-40567714D01*
X30545523Y-39615333D02*
X30640761Y-39567714D01*
X30831238Y-39567714D01*
X30926476Y-39615333D01*
X30974095Y-39662952D01*
X31021714Y-39758190D01*
X31021714Y-40043904D01*
X30974095Y-40139142D01*
X30926476Y-40186761D01*
X30831238Y-40234380D01*
X30640761Y-40234380D01*
X30545523Y-40186761D01*
X31831238Y-40186761D02*
X31736000Y-40234380D01*
X31545523Y-40234380D01*
X31450285Y-40186761D01*
X31402666Y-40091523D01*
X31402666Y-39710571D01*
X31450285Y-39615333D01*
X31545523Y-39567714D01*
X31736000Y-39567714D01*
X31831238Y-39615333D01*
X31878857Y-39710571D01*
X31878857Y-39805809D01*
X31402666Y-39901047D01*
X32307428Y-40234380D02*
X32307428Y-39567714D01*
X32307428Y-39758190D02*
X32355047Y-39662952D01*
X32402666Y-39615333D01*
X32497904Y-39567714D01*
X32593142Y-39567714D01*
%TO.C,U2*%
X35266380Y-66293904D02*
X36075904Y-66293904D01*
X36171142Y-66246285D01*
X36218761Y-66198666D01*
X36266380Y-66103428D01*
X36266380Y-65912952D01*
X36218761Y-65817714D01*
X36171142Y-65770095D01*
X36075904Y-65722476D01*
X35266380Y-65722476D01*
X35361619Y-65293904D02*
X35314000Y-65246285D01*
X35266380Y-65151047D01*
X35266380Y-64912952D01*
X35314000Y-64817714D01*
X35361619Y-64770095D01*
X35456857Y-64722476D01*
X35552095Y-64722476D01*
X35694952Y-64770095D01*
X36266380Y-65341523D01*
X36266380Y-64722476D01*
%TO.C,REF\u002A\u002A*%
X73596666Y-62404380D02*
X73263333Y-61928190D01*
X73025238Y-62404380D02*
X73025238Y-61404380D01*
X73406190Y-61404380D01*
X73501428Y-61452000D01*
X73549047Y-61499619D01*
X73596666Y-61594857D01*
X73596666Y-61737714D01*
X73549047Y-61832952D01*
X73501428Y-61880571D01*
X73406190Y-61928190D01*
X73025238Y-61928190D01*
X74025238Y-61880571D02*
X74358571Y-61880571D01*
X74501428Y-62404380D02*
X74025238Y-62404380D01*
X74025238Y-61404380D01*
X74501428Y-61404380D01*
X75263333Y-61880571D02*
X74930000Y-61880571D01*
X74930000Y-62404380D02*
X74930000Y-61404380D01*
X75406190Y-61404380D01*
X75930000Y-61404380D02*
X75930000Y-61642476D01*
X75691904Y-61547238D02*
X75930000Y-61642476D01*
X76168095Y-61547238D01*
X75787142Y-61832952D02*
X75930000Y-61642476D01*
X76072857Y-61832952D01*
X76691904Y-61404380D02*
X76691904Y-61642476D01*
X76453809Y-61547238D02*
X76691904Y-61642476D01*
X76930000Y-61547238D01*
X76549047Y-61832952D02*
X76691904Y-61642476D01*
X76834761Y-61832952D01*
%TO.C,R1*%
X33107333Y-27884380D02*
X32774000Y-27408190D01*
X32535904Y-27884380D02*
X32535904Y-26884380D01*
X32916857Y-26884380D01*
X33012095Y-26932000D01*
X33059714Y-26979619D01*
X33107333Y-27074857D01*
X33107333Y-27217714D01*
X33059714Y-27312952D01*
X33012095Y-27360571D01*
X32916857Y-27408190D01*
X32535904Y-27408190D01*
X34059714Y-27884380D02*
X33488285Y-27884380D01*
X33774000Y-27884380D02*
X33774000Y-26884380D01*
X33678761Y-27027238D01*
X33583523Y-27122476D01*
X33488285Y-27170095D01*
%TO.C,IC1*%
D14*
X44734238Y-43246523D02*
X44734238Y-41976523D01*
X46064714Y-43125571D02*
X46004238Y-43186047D01*
X45822809Y-43246523D01*
X45701857Y-43246523D01*
X45520428Y-43186047D01*
X45399476Y-43065095D01*
X45339000Y-42944142D01*
X45278523Y-42702238D01*
X45278523Y-42520809D01*
X45339000Y-42278904D01*
X45399476Y-42157952D01*
X45520428Y-42037000D01*
X45701857Y-41976523D01*
X45822809Y-41976523D01*
X46004238Y-42037000D01*
X46064714Y-42097476D01*
X47274238Y-43246523D02*
X46548523Y-43246523D01*
X46911380Y-43246523D02*
X46911380Y-41976523D01*
X46790428Y-42157952D01*
X46669476Y-42278904D01*
X46548523Y-42339380D01*
%TO.C,R4*%
D13*
X33107333Y-35504380D02*
X32774000Y-35028190D01*
X32535904Y-35504380D02*
X32535904Y-34504380D01*
X32916857Y-34504380D01*
X33012095Y-34552000D01*
X33059714Y-34599619D01*
X33107333Y-34694857D01*
X33107333Y-34837714D01*
X33059714Y-34932952D01*
X33012095Y-34980571D01*
X32916857Y-35028190D01*
X32535904Y-35028190D01*
X33964476Y-34837714D02*
X33964476Y-35504380D01*
X33726380Y-34456761D02*
X33488285Y-35171047D01*
X34107333Y-35171047D01*
%TO.C,R3*%
X33107333Y-32964380D02*
X32774000Y-32488190D01*
X32535904Y-32964380D02*
X32535904Y-31964380D01*
X32916857Y-31964380D01*
X33012095Y-32012000D01*
X33059714Y-32059619D01*
X33107333Y-32154857D01*
X33107333Y-32297714D01*
X33059714Y-32392952D01*
X33012095Y-32440571D01*
X32916857Y-32488190D01*
X32535904Y-32488190D01*
X33440666Y-31964380D02*
X34059714Y-31964380D01*
X33726380Y-32345333D01*
X33869238Y-32345333D01*
X33964476Y-32392952D01*
X34012095Y-32440571D01*
X34059714Y-32535809D01*
X34059714Y-32773904D01*
X34012095Y-32869142D01*
X33964476Y-32916761D01*
X33869238Y-32964380D01*
X33583523Y-32964380D01*
X33488285Y-32916761D01*
X33440666Y-32869142D01*
%TO.C,R2*%
X33107333Y-30424380D02*
X32774000Y-29948190D01*
X32535904Y-30424380D02*
X32535904Y-29424380D01*
X32916857Y-29424380D01*
X33012095Y-29472000D01*
X33059714Y-29519619D01*
X33107333Y-29614857D01*
X33107333Y-29757714D01*
X33059714Y-29852952D01*
X33012095Y-29900571D01*
X32916857Y-29948190D01*
X32535904Y-29948190D01*
X33488285Y-29519619D02*
X33535904Y-29472000D01*
X33631142Y-29424380D01*
X33869238Y-29424380D01*
X33964476Y-29472000D01*
X34012095Y-29519619D01*
X34059714Y-29614857D01*
X34059714Y-29710095D01*
X34012095Y-29852952D01*
X33440666Y-30424380D01*
X34059714Y-30424380D01*
%TO.C,Q1*%
X69246761Y-27217619D02*
X69151523Y-27170000D01*
X69056285Y-27074761D01*
X68913428Y-26931904D01*
X68818190Y-26884285D01*
X68722952Y-26884285D01*
X68770571Y-27122380D02*
X68675333Y-27074761D01*
X68580095Y-26979523D01*
X68532476Y-26789047D01*
X68532476Y-26455714D01*
X68580095Y-26265238D01*
X68675333Y-26170000D01*
X68770571Y-26122380D01*
X68961047Y-26122380D01*
X69056285Y-26170000D01*
X69151523Y-26265238D01*
X69199142Y-26455714D01*
X69199142Y-26789047D01*
X69151523Y-26979523D01*
X69056285Y-27074761D01*
X68961047Y-27122380D01*
X68770571Y-27122380D01*
X70151523Y-27122380D02*
X69580095Y-27122380D01*
X69865809Y-27122380D02*
X69865809Y-26122380D01*
X69770571Y-26265238D01*
X69675333Y-26360476D01*
X69580095Y-26408095D01*
%TO.C,Q3*%
X69246761Y-36742619D02*
X69151523Y-36695000D01*
X69056285Y-36599761D01*
X68913428Y-36456904D01*
X68818190Y-36409285D01*
X68722952Y-36409285D01*
X68770571Y-36647380D02*
X68675333Y-36599761D01*
X68580095Y-36504523D01*
X68532476Y-36314047D01*
X68532476Y-35980714D01*
X68580095Y-35790238D01*
X68675333Y-35695000D01*
X68770571Y-35647380D01*
X68961047Y-35647380D01*
X69056285Y-35695000D01*
X69151523Y-35790238D01*
X69199142Y-35980714D01*
X69199142Y-36314047D01*
X69151523Y-36504523D01*
X69056285Y-36599761D01*
X68961047Y-36647380D01*
X68770571Y-36647380D01*
X69532476Y-35647380D02*
X70151523Y-35647380D01*
X69818190Y-36028333D01*
X69961047Y-36028333D01*
X70056285Y-36075952D01*
X70103904Y-36123571D01*
X70151523Y-36218809D01*
X70151523Y-36456904D01*
X70103904Y-36552142D01*
X70056285Y-36599761D01*
X69961047Y-36647380D01*
X69675333Y-36647380D01*
X69580095Y-36599761D01*
X69532476Y-36552142D01*
%TO.C,Q4*%
X65182761Y-36742619D02*
X65087523Y-36695000D01*
X64992285Y-36599761D01*
X64849428Y-36456904D01*
X64754190Y-36409285D01*
X64658952Y-36409285D01*
X64706571Y-36647380D02*
X64611333Y-36599761D01*
X64516095Y-36504523D01*
X64468476Y-36314047D01*
X64468476Y-35980714D01*
X64516095Y-35790238D01*
X64611333Y-35695000D01*
X64706571Y-35647380D01*
X64897047Y-35647380D01*
X64992285Y-35695000D01*
X65087523Y-35790238D01*
X65135142Y-35980714D01*
X65135142Y-36314047D01*
X65087523Y-36504523D01*
X64992285Y-36599761D01*
X64897047Y-36647380D01*
X64706571Y-36647380D01*
X65992285Y-35980714D02*
X65992285Y-36647380D01*
X65754190Y-35599761D02*
X65516095Y-36314047D01*
X66135142Y-36314047D01*
%TO.C,Q2*%
X65182761Y-27217619D02*
X65087523Y-27170000D01*
X64992285Y-27074761D01*
X64849428Y-26931904D01*
X64754190Y-26884285D01*
X64658952Y-26884285D01*
X64706571Y-27122380D02*
X64611333Y-27074761D01*
X64516095Y-26979523D01*
X64468476Y-26789047D01*
X64468476Y-26455714D01*
X64516095Y-26265238D01*
X64611333Y-26170000D01*
X64706571Y-26122380D01*
X64897047Y-26122380D01*
X64992285Y-26170000D01*
X65087523Y-26265238D01*
X65135142Y-26455714D01*
X65135142Y-26789047D01*
X65087523Y-26979523D01*
X64992285Y-27074761D01*
X64897047Y-27122380D01*
X64706571Y-27122380D01*
X65516095Y-26217619D02*
X65563714Y-26170000D01*
X65658952Y-26122380D01*
X65897047Y-26122380D01*
X65992285Y-26170000D01*
X66039904Y-26217619D01*
X66087523Y-26312857D01*
X66087523Y-26408095D01*
X66039904Y-26550952D01*
X65468476Y-27122380D01*
X66087523Y-27122380D01*
%TO.C,Q5*%
X52387619Y-59085238D02*
X52340000Y-59180476D01*
X52244761Y-59275714D01*
X52101904Y-59418571D01*
X52054285Y-59513809D01*
X52054285Y-59609047D01*
X52292380Y-59561428D02*
X52244761Y-59656666D01*
X52149523Y-59751904D01*
X51959047Y-59799523D01*
X51625714Y-59799523D01*
X51435238Y-59751904D01*
X51340000Y-59656666D01*
X51292380Y-59561428D01*
X51292380Y-59370952D01*
X51340000Y-59275714D01*
X51435238Y-59180476D01*
X51625714Y-59132857D01*
X51959047Y-59132857D01*
X52149523Y-59180476D01*
X52244761Y-59275714D01*
X52292380Y-59370952D01*
X52292380Y-59561428D01*
X51292380Y-58228095D02*
X51292380Y-58704285D01*
X51768571Y-58751904D01*
X51720952Y-58704285D01*
X51673333Y-58609047D01*
X51673333Y-58370952D01*
X51720952Y-58275714D01*
X51768571Y-58228095D01*
X51863809Y-58180476D01*
X52101904Y-58180476D01*
X52197142Y-58228095D01*
X52244761Y-58275714D01*
X52292380Y-58370952D01*
X52292380Y-58609047D01*
X52244761Y-58704285D01*
X52197142Y-58751904D01*
%TO.C,Q6*%
X52387619Y-55085238D02*
X52340000Y-55180476D01*
X52244761Y-55275714D01*
X52101904Y-55418571D01*
X52054285Y-55513809D01*
X52054285Y-55609047D01*
X52292380Y-55561428D02*
X52244761Y-55656666D01*
X52149523Y-55751904D01*
X51959047Y-55799523D01*
X51625714Y-55799523D01*
X51435238Y-55751904D01*
X51340000Y-55656666D01*
X51292380Y-55561428D01*
X51292380Y-55370952D01*
X51340000Y-55275714D01*
X51435238Y-55180476D01*
X51625714Y-55132857D01*
X51959047Y-55132857D01*
X52149523Y-55180476D01*
X52244761Y-55275714D01*
X52292380Y-55370952D01*
X52292380Y-55561428D01*
X51292380Y-54275714D02*
X51292380Y-54466190D01*
X51340000Y-54561428D01*
X51387619Y-54609047D01*
X51530476Y-54704285D01*
X51720952Y-54751904D01*
X52101904Y-54751904D01*
X52197142Y-54704285D01*
X52244761Y-54656666D01*
X52292380Y-54561428D01*
X52292380Y-54370952D01*
X52244761Y-54275714D01*
X52197142Y-54228095D01*
X52101904Y-54180476D01*
X51863809Y-54180476D01*
X51768571Y-54228095D01*
X51720952Y-54275714D01*
X51673333Y-54370952D01*
X51673333Y-54561428D01*
X51720952Y-54656666D01*
X51768571Y-54704285D01*
X51863809Y-54751904D01*
%TO.C,Q7*%
X52387619Y-51085238D02*
X52340000Y-51180476D01*
X52244761Y-51275714D01*
X52101904Y-51418571D01*
X52054285Y-51513809D01*
X52054285Y-51609047D01*
X52292380Y-51561428D02*
X52244761Y-51656666D01*
X52149523Y-51751904D01*
X51959047Y-51799523D01*
X51625714Y-51799523D01*
X51435238Y-51751904D01*
X51340000Y-51656666D01*
X51292380Y-51561428D01*
X51292380Y-51370952D01*
X51340000Y-51275714D01*
X51435238Y-51180476D01*
X51625714Y-51132857D01*
X51959047Y-51132857D01*
X52149523Y-51180476D01*
X52244761Y-51275714D01*
X52292380Y-51370952D01*
X52292380Y-51561428D01*
X51292380Y-50799523D02*
X51292380Y-50132857D01*
X52292380Y-50561428D01*
%TO.C,R12*%
X56253142Y-44394380D02*
X55919809Y-43918190D01*
X55681714Y-44394380D02*
X55681714Y-43394380D01*
X56062666Y-43394380D01*
X56157904Y-43442000D01*
X56205523Y-43489619D01*
X56253142Y-43584857D01*
X56253142Y-43727714D01*
X56205523Y-43822952D01*
X56157904Y-43870571D01*
X56062666Y-43918190D01*
X55681714Y-43918190D01*
X57205523Y-44394380D02*
X56634095Y-44394380D01*
X56919809Y-44394380D02*
X56919809Y-43394380D01*
X56824571Y-43537238D01*
X56729333Y-43632476D01*
X56634095Y-43680095D01*
X57586476Y-43489619D02*
X57634095Y-43442000D01*
X57729333Y-43394380D01*
X57967428Y-43394380D01*
X58062666Y-43442000D01*
X58110285Y-43489619D01*
X58157904Y-43584857D01*
X58157904Y-43680095D01*
X58110285Y-43822952D01*
X57538857Y-44394380D01*
X58157904Y-44394380D01*
%TO.C,R11*%
X56253142Y-41854380D02*
X55919809Y-41378190D01*
X55681714Y-41854380D02*
X55681714Y-40854380D01*
X56062666Y-40854380D01*
X56157904Y-40902000D01*
X56205523Y-40949619D01*
X56253142Y-41044857D01*
X56253142Y-41187714D01*
X56205523Y-41282952D01*
X56157904Y-41330571D01*
X56062666Y-41378190D01*
X55681714Y-41378190D01*
X57205523Y-41854380D02*
X56634095Y-41854380D01*
X56919809Y-41854380D02*
X56919809Y-40854380D01*
X56824571Y-40997238D01*
X56729333Y-41092476D01*
X56634095Y-41140095D01*
X58157904Y-41854380D02*
X57586476Y-41854380D01*
X57872190Y-41854380D02*
X57872190Y-40854380D01*
X57776952Y-40997238D01*
X57681714Y-41092476D01*
X57586476Y-41140095D01*
%TO.C,R10*%
X56253142Y-39314380D02*
X55919809Y-38838190D01*
X55681714Y-39314380D02*
X55681714Y-38314380D01*
X56062666Y-38314380D01*
X56157904Y-38362000D01*
X56205523Y-38409619D01*
X56253142Y-38504857D01*
X56253142Y-38647714D01*
X56205523Y-38742952D01*
X56157904Y-38790571D01*
X56062666Y-38838190D01*
X55681714Y-38838190D01*
X57205523Y-39314380D02*
X56634095Y-39314380D01*
X56919809Y-39314380D02*
X56919809Y-38314380D01*
X56824571Y-38457238D01*
X56729333Y-38552476D01*
X56634095Y-38600095D01*
X57824571Y-38314380D02*
X57919809Y-38314380D01*
X58015047Y-38362000D01*
X58062666Y-38409619D01*
X58110285Y-38504857D01*
X58157904Y-38695333D01*
X58157904Y-38933428D01*
X58110285Y-39123904D01*
X58062666Y-39219142D01*
X58015047Y-39266761D01*
X57919809Y-39314380D01*
X57824571Y-39314380D01*
X57729333Y-39266761D01*
X57681714Y-39219142D01*
X57634095Y-39123904D01*
X57586476Y-38933428D01*
X57586476Y-38695333D01*
X57634095Y-38504857D01*
X57681714Y-38409619D01*
X57729333Y-38362000D01*
X57824571Y-38314380D01*
%TO.C,R9*%
X56729333Y-36774380D02*
X56396000Y-36298190D01*
X56157904Y-36774380D02*
X56157904Y-35774380D01*
X56538857Y-35774380D01*
X56634095Y-35822000D01*
X56681714Y-35869619D01*
X56729333Y-35964857D01*
X56729333Y-36107714D01*
X56681714Y-36202952D01*
X56634095Y-36250571D01*
X56538857Y-36298190D01*
X56157904Y-36298190D01*
X57205523Y-36774380D02*
X57396000Y-36774380D01*
X57491238Y-36726761D01*
X57538857Y-36679142D01*
X57634095Y-36536285D01*
X57681714Y-36345809D01*
X57681714Y-35964857D01*
X57634095Y-35869619D01*
X57586476Y-35822000D01*
X57491238Y-35774380D01*
X57300761Y-35774380D01*
X57205523Y-35822000D01*
X57157904Y-35869619D01*
X57110285Y-35964857D01*
X57110285Y-36202952D01*
X57157904Y-36298190D01*
X57205523Y-36345809D01*
X57300761Y-36393428D01*
X57491238Y-36393428D01*
X57586476Y-36345809D01*
X57634095Y-36298190D01*
X57681714Y-36202952D01*
%TO.C,R8*%
X56729333Y-34234380D02*
X56396000Y-33758190D01*
X56157904Y-34234380D02*
X56157904Y-33234380D01*
X56538857Y-33234380D01*
X56634095Y-33282000D01*
X56681714Y-33329619D01*
X56729333Y-33424857D01*
X56729333Y-33567714D01*
X56681714Y-33662952D01*
X56634095Y-33710571D01*
X56538857Y-33758190D01*
X56157904Y-33758190D01*
X57300761Y-33662952D02*
X57205523Y-33615333D01*
X57157904Y-33567714D01*
X57110285Y-33472476D01*
X57110285Y-33424857D01*
X57157904Y-33329619D01*
X57205523Y-33282000D01*
X57300761Y-33234380D01*
X57491238Y-33234380D01*
X57586476Y-33282000D01*
X57634095Y-33329619D01*
X57681714Y-33424857D01*
X57681714Y-33472476D01*
X57634095Y-33567714D01*
X57586476Y-33615333D01*
X57491238Y-33662952D01*
X57300761Y-33662952D01*
X57205523Y-33710571D01*
X57157904Y-33758190D01*
X57110285Y-33853428D01*
X57110285Y-34043904D01*
X57157904Y-34139142D01*
X57205523Y-34186761D01*
X57300761Y-34234380D01*
X57491238Y-34234380D01*
X57586476Y-34186761D01*
X57634095Y-34139142D01*
X57681714Y-34043904D01*
X57681714Y-33853428D01*
X57634095Y-33758190D01*
X57586476Y-33710571D01*
X57491238Y-33662952D01*
%TO.C,R7*%
X56729333Y-31694380D02*
X56396000Y-31218190D01*
X56157904Y-31694380D02*
X56157904Y-30694380D01*
X56538857Y-30694380D01*
X56634095Y-30742000D01*
X56681714Y-30789619D01*
X56729333Y-30884857D01*
X56729333Y-31027714D01*
X56681714Y-31122952D01*
X56634095Y-31170571D01*
X56538857Y-31218190D01*
X56157904Y-31218190D01*
X57062666Y-30694380D02*
X57729333Y-30694380D01*
X57300761Y-31694380D01*
%TO.C,R6*%
X56729333Y-29154380D02*
X56396000Y-28678190D01*
X56157904Y-29154380D02*
X56157904Y-28154380D01*
X56538857Y-28154380D01*
X56634095Y-28202000D01*
X56681714Y-28249619D01*
X56729333Y-28344857D01*
X56729333Y-28487714D01*
X56681714Y-28582952D01*
X56634095Y-28630571D01*
X56538857Y-28678190D01*
X56157904Y-28678190D01*
X57586476Y-28154380D02*
X57396000Y-28154380D01*
X57300761Y-28202000D01*
X57253142Y-28249619D01*
X57157904Y-28392476D01*
X57110285Y-28582952D01*
X57110285Y-28963904D01*
X57157904Y-29059142D01*
X57205523Y-29106761D01*
X57300761Y-29154380D01*
X57491238Y-29154380D01*
X57586476Y-29106761D01*
X57634095Y-29059142D01*
X57681714Y-28963904D01*
X57681714Y-28725809D01*
X57634095Y-28630571D01*
X57586476Y-28582952D01*
X57491238Y-28535333D01*
X57300761Y-28535333D01*
X57205523Y-28582952D01*
X57157904Y-28630571D01*
X57110285Y-28725809D01*
%TO.C,Q8*%
X52387619Y-47085238D02*
X52340000Y-47180476D01*
X52244761Y-47275714D01*
X52101904Y-47418571D01*
X52054285Y-47513809D01*
X52054285Y-47609047D01*
X52292380Y-47561428D02*
X52244761Y-47656666D01*
X52149523Y-47751904D01*
X51959047Y-47799523D01*
X51625714Y-47799523D01*
X51435238Y-47751904D01*
X51340000Y-47656666D01*
X51292380Y-47561428D01*
X51292380Y-47370952D01*
X51340000Y-47275714D01*
X51435238Y-47180476D01*
X51625714Y-47132857D01*
X51959047Y-47132857D01*
X52149523Y-47180476D01*
X52244761Y-47275714D01*
X52292380Y-47370952D01*
X52292380Y-47561428D01*
X51720952Y-46561428D02*
X51673333Y-46656666D01*
X51625714Y-46704285D01*
X51530476Y-46751904D01*
X51482857Y-46751904D01*
X51387619Y-46704285D01*
X51340000Y-46656666D01*
X51292380Y-46561428D01*
X51292380Y-46370952D01*
X51340000Y-46275714D01*
X51387619Y-46228095D01*
X51482857Y-46180476D01*
X51530476Y-46180476D01*
X51625714Y-46228095D01*
X51673333Y-46275714D01*
X51720952Y-46370952D01*
X51720952Y-46561428D01*
X51768571Y-46656666D01*
X51816190Y-46704285D01*
X51911428Y-46751904D01*
X52101904Y-46751904D01*
X52197142Y-46704285D01*
X52244761Y-46656666D01*
X52292380Y-46561428D01*
X52292380Y-46370952D01*
X52244761Y-46275714D01*
X52197142Y-46228095D01*
X52101904Y-46180476D01*
X51911428Y-46180476D01*
X51816190Y-46228095D01*
X51768571Y-46275714D01*
X51720952Y-46370952D01*
%TO.C,R5*%
X56602333Y-26614380D02*
X56269000Y-26138190D01*
X56030904Y-26614380D02*
X56030904Y-25614380D01*
X56411857Y-25614380D01*
X56507095Y-25662000D01*
X56554714Y-25709619D01*
X56602333Y-25804857D01*
X56602333Y-25947714D01*
X56554714Y-26042952D01*
X56507095Y-26090571D01*
X56411857Y-26138190D01*
X56030904Y-26138190D01*
X57507095Y-25614380D02*
X57030904Y-25614380D01*
X56983285Y-26090571D01*
X57030904Y-26042952D01*
X57126142Y-25995333D01*
X57364238Y-25995333D01*
X57459476Y-26042952D01*
X57507095Y-26090571D01*
X57554714Y-26185809D01*
X57554714Y-26423904D01*
X57507095Y-26519142D01*
X57459476Y-26566761D01*
X57364238Y-26614380D01*
X57126142Y-26614380D01*
X57030904Y-26566761D01*
X56983285Y-26519142D01*
%TD*%
M02*
