G04 #@! TF.GenerationSoftware,KiCad,Pcbnew,(5.1.6)-1*
G04 #@! TF.CreationDate,2020-12-09T17:58:41+01:00*
G04 #@! TF.ProjectId,Rolety jadalnia x3,526f6c65-7479-4206-9a61-64616c6e6961,rev?*
G04 #@! TF.SameCoordinates,Original*
G04 #@! TF.FileFunction,Legend,Top*
G04 #@! TF.FilePolarity,Positive*
%FSLAX46Y46*%
G04 Gerber Fmt 4.6, Leading zero omitted, Abs format (unit mm)*
G04 Created by KiCad (PCBNEW (5.1.6)-1) date 2020-12-09 17:58:41*
%MOMM*%
%LPD*%
G01*
G04 APERTURE LIST*
%ADD10C,0.120000*%
%ADD11C,0.152400*%
%ADD12C,0.100000*%
%ADD13C,0.150000*%
G04 APERTURE END LIST*
D10*
X37846000Y-52010000D02*
X37846000Y-54670000D01*
X37846000Y-52010000D02*
X35246000Y-52010000D01*
X35246000Y-52010000D02*
X35246000Y-54670000D01*
X37846000Y-54670000D02*
X35246000Y-54670000D01*
X40446000Y-54670000D02*
X39116000Y-54670000D01*
X40446000Y-53340000D02*
X40446000Y-54670000D01*
X40493001Y-24752001D02*
X35293001Y-24752001D01*
X35293001Y-50272001D02*
X35293001Y-24752001D01*
X40493001Y-47672001D02*
X37893001Y-47672001D01*
X40493001Y-47672001D02*
X40493001Y-24752001D01*
X37893001Y-50272001D02*
X35293001Y-50272001D01*
X40493001Y-48942001D02*
X40493001Y-50272001D01*
X37893001Y-47672001D02*
X37893001Y-50272001D01*
X40493001Y-50272001D02*
X39163001Y-50272001D01*
X97730000Y-22546000D02*
X100330000Y-22546000D01*
X97730000Y-22546000D02*
X97730000Y-42986000D01*
X97730000Y-42986000D02*
X102930000Y-42986000D01*
X102930000Y-25146000D02*
X102930000Y-42986000D01*
X100330000Y-25146000D02*
X102930000Y-25146000D01*
X100330000Y-22546000D02*
X100330000Y-25146000D01*
X102930000Y-22546000D02*
X102930000Y-23876000D01*
X101600000Y-22546000D02*
X102930000Y-22546000D01*
X71441000Y-22292000D02*
X74041000Y-22292000D01*
X71441000Y-22292000D02*
X71441000Y-42732000D01*
X71441000Y-42732000D02*
X76641000Y-42732000D01*
X76641000Y-24892000D02*
X76641000Y-42732000D01*
X74041000Y-24892000D02*
X76641000Y-24892000D01*
X74041000Y-22292000D02*
X74041000Y-24892000D01*
X76641000Y-22292000D02*
X76641000Y-23622000D01*
X75311000Y-22292000D02*
X76641000Y-22292000D01*
X97730000Y-51749000D02*
X100390000Y-51749000D01*
X97730000Y-46609000D02*
X97730000Y-51749000D01*
X100390000Y-46609000D02*
X100390000Y-51749000D01*
X97730000Y-46609000D02*
X100390000Y-46609000D01*
X97730000Y-45339000D02*
X97730000Y-44009000D01*
X97730000Y-44009000D02*
X99060000Y-44009000D01*
X89094000Y-51876000D02*
X91754000Y-51876000D01*
X89094000Y-46736000D02*
X89094000Y-51876000D01*
X91754000Y-46736000D02*
X91754000Y-51876000D01*
X89094000Y-46736000D02*
X91754000Y-46736000D01*
X89094000Y-45466000D02*
X89094000Y-44136000D01*
X89094000Y-44136000D02*
X90424000Y-44136000D01*
X74616000Y-51749000D02*
X77276000Y-51749000D01*
X74616000Y-46609000D02*
X74616000Y-51749000D01*
X77276000Y-46609000D02*
X77276000Y-51749000D01*
X74616000Y-46609000D02*
X77276000Y-46609000D01*
X74616000Y-45339000D02*
X74616000Y-44009000D01*
X74616000Y-44009000D02*
X75946000Y-44009000D01*
X83252000Y-51876000D02*
X85912000Y-51876000D01*
X83252000Y-46736000D02*
X83252000Y-51876000D01*
X85912000Y-46736000D02*
X85912000Y-51876000D01*
X83252000Y-46736000D02*
X85912000Y-46736000D01*
X83252000Y-45466000D02*
X83252000Y-44136000D01*
X83252000Y-44136000D02*
X84582000Y-44136000D01*
X70933000Y-51749000D02*
X73593000Y-51749000D01*
X70933000Y-46609000D02*
X70933000Y-51749000D01*
X73593000Y-46609000D02*
X73593000Y-51749000D01*
X70933000Y-46609000D02*
X73593000Y-46609000D01*
X70933000Y-45339000D02*
X70933000Y-44009000D01*
X70933000Y-44009000D02*
X72263000Y-44009000D01*
X62551000Y-51749000D02*
X65211000Y-51749000D01*
X62551000Y-46609000D02*
X62551000Y-51749000D01*
X65211000Y-46609000D02*
X65211000Y-51749000D01*
X62551000Y-46609000D02*
X65211000Y-46609000D01*
X62551000Y-45339000D02*
X62551000Y-44009000D01*
X62551000Y-44009000D02*
X63881000Y-44009000D01*
D11*
X43257001Y-47891001D02*
X43257001Y-48653001D01*
X43257001Y-48653001D02*
X59259001Y-48653001D01*
X59259001Y-48653001D02*
X59259001Y-47891001D01*
D10*
X96805000Y-42149000D02*
X94965000Y-42149000D01*
X94965000Y-42149000D02*
X94965000Y-45989000D01*
X94965000Y-45989000D02*
X96805000Y-45989000D01*
X96805000Y-45989000D02*
X96805000Y-42149000D01*
X95885000Y-41199000D02*
X95885000Y-42149000D01*
X95885000Y-46939000D02*
X95885000Y-45989000D01*
X93345000Y-46939000D02*
X93345000Y-45989000D01*
X93345000Y-41199000D02*
X93345000Y-42149000D01*
X94265000Y-45989000D02*
X94265000Y-42149000D01*
X92425000Y-45989000D02*
X94265000Y-45989000D01*
X92425000Y-42149000D02*
X92425000Y-45989000D01*
X94265000Y-42149000D02*
X92425000Y-42149000D01*
X79914000Y-42149000D02*
X78074000Y-42149000D01*
X78074000Y-42149000D02*
X78074000Y-45989000D01*
X78074000Y-45989000D02*
X79914000Y-45989000D01*
X79914000Y-45989000D02*
X79914000Y-42149000D01*
X78994000Y-41199000D02*
X78994000Y-42149000D01*
X78994000Y-46939000D02*
X78994000Y-45989000D01*
X81661000Y-47066000D02*
X81661000Y-46116000D01*
X81661000Y-41326000D02*
X81661000Y-42276000D01*
X82581000Y-46116000D02*
X82581000Y-42276000D01*
X80741000Y-46116000D02*
X82581000Y-46116000D01*
X80741000Y-42276000D02*
X80741000Y-46116000D01*
X82581000Y-42276000D02*
X80741000Y-42276000D01*
X70262000Y-42149000D02*
X68422000Y-42149000D01*
X68422000Y-42149000D02*
X68422000Y-45989000D01*
X68422000Y-45989000D02*
X70262000Y-45989000D01*
X70262000Y-45989000D02*
X70262000Y-42149000D01*
X69342000Y-41199000D02*
X69342000Y-42149000D01*
X69342000Y-46939000D02*
X69342000Y-45989000D01*
X66802000Y-46939000D02*
X66802000Y-45989000D01*
X66802000Y-41199000D02*
X66802000Y-42149000D01*
X67722000Y-45989000D02*
X67722000Y-42149000D01*
X65882000Y-45989000D02*
X67722000Y-45989000D01*
X65882000Y-42149000D02*
X65882000Y-45989000D01*
X67722000Y-42149000D02*
X65882000Y-42149000D01*
X63866000Y-25242000D02*
X63866000Y-27082000D01*
X63866000Y-27082000D02*
X67706000Y-27082000D01*
X67706000Y-27082000D02*
X67706000Y-25242000D01*
X67706000Y-25242000D02*
X63866000Y-25242000D01*
X62916000Y-26162000D02*
X63866000Y-26162000D01*
X68656000Y-26162000D02*
X67706000Y-26162000D01*
X85039000Y-28702000D02*
X84089000Y-28702000D01*
X79299000Y-28702000D02*
X80249000Y-28702000D01*
X84089000Y-27782000D02*
X80249000Y-27782000D01*
X84089000Y-29622000D02*
X84089000Y-27782000D01*
X80249000Y-29622000D02*
X84089000Y-29622000D01*
X80249000Y-27782000D02*
X80249000Y-29622000D01*
X80249000Y-30322000D02*
X80249000Y-32162000D01*
X80249000Y-32162000D02*
X84089000Y-32162000D01*
X84089000Y-32162000D02*
X84089000Y-30322000D01*
X84089000Y-30322000D02*
X80249000Y-30322000D01*
X79299000Y-31242000D02*
X80249000Y-31242000D01*
X85039000Y-31242000D02*
X84089000Y-31242000D01*
X62916000Y-28829000D02*
X63866000Y-28829000D01*
X68656000Y-28829000D02*
X67706000Y-28829000D01*
X63866000Y-29749000D02*
X67706000Y-29749000D01*
X63866000Y-27909000D02*
X63866000Y-29749000D01*
X67706000Y-27909000D02*
X63866000Y-27909000D01*
X67706000Y-29749000D02*
X67706000Y-27909000D01*
X94249000Y-29876000D02*
X94249000Y-28036000D01*
X94249000Y-28036000D02*
X90409000Y-28036000D01*
X90409000Y-28036000D02*
X90409000Y-29876000D01*
X90409000Y-29876000D02*
X94249000Y-29876000D01*
X95199000Y-28956000D02*
X94249000Y-28956000D01*
X89459000Y-28956000D02*
X90409000Y-28956000D01*
X89459000Y-26416000D02*
X90409000Y-26416000D01*
X95199000Y-26416000D02*
X94249000Y-26416000D01*
X90409000Y-27336000D02*
X94249000Y-27336000D01*
X90409000Y-25496000D02*
X90409000Y-27336000D01*
X94249000Y-25496000D02*
X90409000Y-25496000D01*
X94249000Y-27336000D02*
X94249000Y-25496000D01*
D12*
X56763001Y-49432001D02*
X56763001Y-48032001D01*
X55763001Y-49432001D02*
X55763001Y-48032001D01*
X56763001Y-48032001D02*
G75*
G03*
X55763001Y-48032001I-500000J0D01*
G01*
X55763001Y-49432001D02*
G75*
G03*
X56763001Y-49432001I500000J0D01*
G01*
X54763001Y-49432001D02*
X54763001Y-48032001D01*
X53763001Y-49432001D02*
X53763001Y-48032001D01*
X54763001Y-48032001D02*
G75*
G03*
X53763001Y-48032001I-500000J0D01*
G01*
X53763001Y-49432001D02*
G75*
G03*
X54763001Y-49432001I500000J0D01*
G01*
X52763001Y-49432001D02*
X52763001Y-48032001D01*
X51763001Y-49432001D02*
X51763001Y-48032001D01*
X52763001Y-48032001D02*
G75*
G03*
X51763001Y-48032001I-500000J0D01*
G01*
X51763001Y-49432001D02*
G75*
G03*
X52763001Y-49432001I500000J0D01*
G01*
X50763001Y-49432001D02*
X50763001Y-48032001D01*
X49763001Y-49432001D02*
X49763001Y-48032001D01*
X50763001Y-48032001D02*
G75*
G03*
X49763001Y-48032001I-500000J0D01*
G01*
X49763001Y-49432001D02*
G75*
G03*
X50763001Y-49432001I500000J0D01*
G01*
X48763001Y-49432001D02*
X48763001Y-48032001D01*
X47763001Y-49432001D02*
X47763001Y-48032001D01*
X48763001Y-48032001D02*
G75*
G03*
X47763001Y-48032001I-500000J0D01*
G01*
X47763001Y-49432001D02*
G75*
G03*
X48763001Y-49432001I500000J0D01*
G01*
X46763001Y-49432001D02*
X46763001Y-48032001D01*
X45763001Y-49432001D02*
X45763001Y-48032001D01*
X46763001Y-48032001D02*
G75*
G03*
X45763001Y-48032001I-500000J0D01*
G01*
X45763001Y-49432001D02*
G75*
G03*
X46763001Y-49432001I500000J0D01*
G01*
X58273001Y-33532001D02*
X59673001Y-33532001D01*
X58273001Y-32532001D02*
X59673001Y-32532001D01*
X59673001Y-33532001D02*
G75*
G03*
X59673001Y-32532001I0J500000D01*
G01*
X58273001Y-32532001D02*
G75*
G03*
X58273001Y-33532001I0J-500000D01*
G01*
X58273001Y-35532001D02*
X59673001Y-35532001D01*
X58273001Y-34532001D02*
X59673001Y-34532001D01*
X59673001Y-35532001D02*
G75*
G03*
X59673001Y-34532001I0J500000D01*
G01*
X58273001Y-34532001D02*
G75*
G03*
X58273001Y-35532001I0J-500000D01*
G01*
X58273001Y-37532001D02*
X59673001Y-37532001D01*
X58273001Y-36532001D02*
X59673001Y-36532001D01*
X59673001Y-37532001D02*
G75*
G03*
X59673001Y-36532001I0J500000D01*
G01*
X58273001Y-36532001D02*
G75*
G03*
X58273001Y-37532001I0J-500000D01*
G01*
X58273001Y-39532001D02*
X59673001Y-39532001D01*
X58273001Y-38532001D02*
X59673001Y-38532001D01*
X59673001Y-39532001D02*
G75*
G03*
X59673001Y-38532001I0J500000D01*
G01*
X58273001Y-38532001D02*
G75*
G03*
X58273001Y-39532001I0J-500000D01*
G01*
X58273001Y-41532001D02*
X59673001Y-41532001D01*
X58273001Y-40532001D02*
X59673001Y-40532001D01*
X59673001Y-41532001D02*
G75*
G03*
X59673001Y-40532001I0J500000D01*
G01*
X58273001Y-40532001D02*
G75*
G03*
X58273001Y-41532001I0J-500000D01*
G01*
X58273001Y-43532001D02*
X59673001Y-43532001D01*
X58273001Y-42532001D02*
X59673001Y-42532001D01*
X59673001Y-43532001D02*
G75*
G03*
X59673001Y-42532001I0J500000D01*
G01*
X58273001Y-42532001D02*
G75*
G03*
X58273001Y-43532001I0J-500000D01*
G01*
X58173001Y-45532001D02*
X59573001Y-45532001D01*
X58173001Y-44532001D02*
X59573001Y-44532001D01*
X59573001Y-45532001D02*
G75*
G03*
X59573001Y-44532001I0J500000D01*
G01*
X58173001Y-44532001D02*
G75*
G03*
X58173001Y-45532001I0J-500000D01*
G01*
X58273001Y-47532001D02*
X59673001Y-47532001D01*
X58273001Y-46532001D02*
X59673001Y-46532001D01*
X59673001Y-47532001D02*
G75*
G03*
X59673001Y-46532001I0J500000D01*
G01*
X58273001Y-46532001D02*
G75*
G03*
X58273001Y-47532001I0J-500000D01*
G01*
X42873001Y-47532001D02*
X44273001Y-47532001D01*
X42873001Y-46532001D02*
X44273001Y-46532001D01*
X44273001Y-47532001D02*
G75*
G03*
X44273001Y-46532001I0J500000D01*
G01*
X42873001Y-46532001D02*
G75*
G03*
X42873001Y-47532001I0J-500000D01*
G01*
X42873001Y-45532001D02*
X44273001Y-45532001D01*
X42873001Y-44532001D02*
X44273001Y-44532001D01*
X44273001Y-45532001D02*
G75*
G03*
X44273001Y-44532001I0J500000D01*
G01*
X42873001Y-44532001D02*
G75*
G03*
X42873001Y-45532001I0J-500000D01*
G01*
X42873001Y-43532001D02*
X44273001Y-43532001D01*
X42873001Y-42532001D02*
X44273001Y-42532001D01*
X44273001Y-43532001D02*
G75*
G03*
X44273001Y-42532001I0J500000D01*
G01*
X42873001Y-42532001D02*
G75*
G03*
X42873001Y-43532001I0J-500000D01*
G01*
X42873001Y-41532001D02*
X44273001Y-41532001D01*
X42873001Y-40532001D02*
X44273001Y-40532001D01*
X44273001Y-41532001D02*
G75*
G03*
X44273001Y-40532001I0J500000D01*
G01*
X42873001Y-40532001D02*
G75*
G03*
X42873001Y-41532001I0J-500000D01*
G01*
X42873001Y-39532001D02*
X44273001Y-39532001D01*
X42873001Y-38532001D02*
X44273001Y-38532001D01*
X44273001Y-39532001D02*
G75*
G03*
X44273001Y-38532001I0J500000D01*
G01*
X42873001Y-38532001D02*
G75*
G03*
X42873001Y-39532001I0J-500000D01*
G01*
X42873001Y-37532001D02*
X44273001Y-37532001D01*
X42873001Y-36532001D02*
X44273001Y-36532001D01*
X44273001Y-37532001D02*
G75*
G03*
X44273001Y-36532001I0J500000D01*
G01*
X42873001Y-36532001D02*
G75*
G03*
X42873001Y-37532001I0J-500000D01*
G01*
X42873001Y-35532001D02*
X44273001Y-35532001D01*
X42873001Y-34532001D02*
X44273001Y-34532001D01*
X44273001Y-35532001D02*
G75*
G03*
X44273001Y-34532001I0J500000D01*
G01*
X42873001Y-34532001D02*
G75*
G03*
X42873001Y-35532001I0J-500000D01*
G01*
X42373001Y-32532001D02*
X42373001Y-33532001D01*
X44773001Y-33532001D01*
X44773001Y-32532001D01*
X42373001Y-32532001D01*
D13*
X42338380Y-54673333D02*
X41862190Y-55006666D01*
X42338380Y-55244761D02*
X41338380Y-55244761D01*
X41338380Y-54863809D01*
X41386000Y-54768571D01*
X41433619Y-54720952D01*
X41528857Y-54673333D01*
X41671714Y-54673333D01*
X41766952Y-54720952D01*
X41814571Y-54768571D01*
X41862190Y-54863809D01*
X41862190Y-55244761D01*
X41814571Y-54244761D02*
X41814571Y-53911428D01*
X42338380Y-53768571D02*
X42338380Y-54244761D01*
X41338380Y-54244761D01*
X41338380Y-53768571D01*
X41814571Y-53006666D02*
X41814571Y-53340000D01*
X42338380Y-53340000D02*
X41338380Y-53340000D01*
X41338380Y-52863809D01*
X41338380Y-52340000D02*
X41576476Y-52340000D01*
X41481238Y-52578095D02*
X41576476Y-52340000D01*
X41481238Y-52101904D01*
X41766952Y-52482857D02*
X41576476Y-52340000D01*
X41766952Y-52197142D01*
X41338380Y-51578095D02*
X41576476Y-51578095D01*
X41481238Y-51816190D02*
X41576476Y-51578095D01*
X41481238Y-51340000D01*
X41766952Y-51720952D02*
X41576476Y-51578095D01*
X41766952Y-51435238D01*
X37131096Y-50934381D02*
X37131096Y-51743905D01*
X37178715Y-51839143D01*
X37226334Y-51886762D01*
X37321572Y-51934381D01*
X37512048Y-51934381D01*
X37607286Y-51886762D01*
X37654905Y-51839143D01*
X37702524Y-51743905D01*
X37702524Y-50934381D01*
X38131096Y-51029620D02*
X38178715Y-50982001D01*
X38273953Y-50934381D01*
X38512048Y-50934381D01*
X38607286Y-50982001D01*
X38654905Y-51029620D01*
X38702524Y-51124858D01*
X38702524Y-51220096D01*
X38654905Y-51362953D01*
X38083477Y-51934381D01*
X38702524Y-51934381D01*
X99353809Y-21558380D02*
X99353809Y-20558380D01*
X100401428Y-21463142D02*
X100353809Y-21510761D01*
X100210952Y-21558380D01*
X100115714Y-21558380D01*
X99972857Y-21510761D01*
X99877619Y-21415523D01*
X99830000Y-21320285D01*
X99782380Y-21129809D01*
X99782380Y-20986952D01*
X99830000Y-20796476D01*
X99877619Y-20701238D01*
X99972857Y-20606000D01*
X100115714Y-20558380D01*
X100210952Y-20558380D01*
X100353809Y-20606000D01*
X100401428Y-20653619D01*
X101353809Y-21558380D02*
X100782380Y-21558380D01*
X101068095Y-21558380D02*
X101068095Y-20558380D01*
X100972857Y-20701238D01*
X100877619Y-20796476D01*
X100782380Y-20844095D01*
X73064809Y-21304380D02*
X73064809Y-20304380D01*
X74112428Y-21209142D02*
X74064809Y-21256761D01*
X73921952Y-21304380D01*
X73826714Y-21304380D01*
X73683857Y-21256761D01*
X73588619Y-21161523D01*
X73541000Y-21066285D01*
X73493380Y-20875809D01*
X73493380Y-20732952D01*
X73541000Y-20542476D01*
X73588619Y-20447238D01*
X73683857Y-20352000D01*
X73826714Y-20304380D01*
X73921952Y-20304380D01*
X74064809Y-20352000D01*
X74112428Y-20399619D01*
X74493380Y-20399619D02*
X74541000Y-20352000D01*
X74636238Y-20304380D01*
X74874333Y-20304380D01*
X74969571Y-20352000D01*
X75017190Y-20399619D01*
X75064809Y-20494857D01*
X75064809Y-20590095D01*
X75017190Y-20732952D01*
X74445761Y-21304380D01*
X75064809Y-21304380D01*
X98964761Y-43556619D02*
X98869523Y-43509000D01*
X98774285Y-43413761D01*
X98631428Y-43270904D01*
X98536190Y-43223285D01*
X98440952Y-43223285D01*
X98488571Y-43461380D02*
X98393333Y-43413761D01*
X98298095Y-43318523D01*
X98250476Y-43128047D01*
X98250476Y-42794714D01*
X98298095Y-42604238D01*
X98393333Y-42509000D01*
X98488571Y-42461380D01*
X98679047Y-42461380D01*
X98774285Y-42509000D01*
X98869523Y-42604238D01*
X98917142Y-42794714D01*
X98917142Y-43128047D01*
X98869523Y-43318523D01*
X98774285Y-43413761D01*
X98679047Y-43461380D01*
X98488571Y-43461380D01*
X99869523Y-43461380D02*
X99298095Y-43461380D01*
X99583809Y-43461380D02*
X99583809Y-42461380D01*
X99488571Y-42604238D01*
X99393333Y-42699476D01*
X99298095Y-42747095D01*
X90328761Y-43683619D02*
X90233523Y-43636000D01*
X90138285Y-43540761D01*
X89995428Y-43397904D01*
X89900190Y-43350285D01*
X89804952Y-43350285D01*
X89852571Y-43588380D02*
X89757333Y-43540761D01*
X89662095Y-43445523D01*
X89614476Y-43255047D01*
X89614476Y-42921714D01*
X89662095Y-42731238D01*
X89757333Y-42636000D01*
X89852571Y-42588380D01*
X90043047Y-42588380D01*
X90138285Y-42636000D01*
X90233523Y-42731238D01*
X90281142Y-42921714D01*
X90281142Y-43255047D01*
X90233523Y-43445523D01*
X90138285Y-43540761D01*
X90043047Y-43588380D01*
X89852571Y-43588380D01*
X90662095Y-42683619D02*
X90709714Y-42636000D01*
X90804952Y-42588380D01*
X91043047Y-42588380D01*
X91138285Y-42636000D01*
X91185904Y-42683619D01*
X91233523Y-42778857D01*
X91233523Y-42874095D01*
X91185904Y-43016952D01*
X90614476Y-43588380D01*
X91233523Y-43588380D01*
X75850761Y-43556619D02*
X75755523Y-43509000D01*
X75660285Y-43413761D01*
X75517428Y-43270904D01*
X75422190Y-43223285D01*
X75326952Y-43223285D01*
X75374571Y-43461380D02*
X75279333Y-43413761D01*
X75184095Y-43318523D01*
X75136476Y-43128047D01*
X75136476Y-42794714D01*
X75184095Y-42604238D01*
X75279333Y-42509000D01*
X75374571Y-42461380D01*
X75565047Y-42461380D01*
X75660285Y-42509000D01*
X75755523Y-42604238D01*
X75803142Y-42794714D01*
X75803142Y-43128047D01*
X75755523Y-43318523D01*
X75660285Y-43413761D01*
X75565047Y-43461380D01*
X75374571Y-43461380D01*
X76136476Y-42461380D02*
X76755523Y-42461380D01*
X76422190Y-42842333D01*
X76565047Y-42842333D01*
X76660285Y-42889952D01*
X76707904Y-42937571D01*
X76755523Y-43032809D01*
X76755523Y-43270904D01*
X76707904Y-43366142D01*
X76660285Y-43413761D01*
X76565047Y-43461380D01*
X76279333Y-43461380D01*
X76184095Y-43413761D01*
X76136476Y-43366142D01*
X84486761Y-43683619D02*
X84391523Y-43636000D01*
X84296285Y-43540761D01*
X84153428Y-43397904D01*
X84058190Y-43350285D01*
X83962952Y-43350285D01*
X84010571Y-43588380D02*
X83915333Y-43540761D01*
X83820095Y-43445523D01*
X83772476Y-43255047D01*
X83772476Y-42921714D01*
X83820095Y-42731238D01*
X83915333Y-42636000D01*
X84010571Y-42588380D01*
X84201047Y-42588380D01*
X84296285Y-42636000D01*
X84391523Y-42731238D01*
X84439142Y-42921714D01*
X84439142Y-43255047D01*
X84391523Y-43445523D01*
X84296285Y-43540761D01*
X84201047Y-43588380D01*
X84010571Y-43588380D01*
X85296285Y-42921714D02*
X85296285Y-43588380D01*
X85058190Y-42540761D02*
X84820095Y-43255047D01*
X85439142Y-43255047D01*
X72167761Y-43556619D02*
X72072523Y-43509000D01*
X71977285Y-43413761D01*
X71834428Y-43270904D01*
X71739190Y-43223285D01*
X71643952Y-43223285D01*
X71691571Y-43461380D02*
X71596333Y-43413761D01*
X71501095Y-43318523D01*
X71453476Y-43128047D01*
X71453476Y-42794714D01*
X71501095Y-42604238D01*
X71596333Y-42509000D01*
X71691571Y-42461380D01*
X71882047Y-42461380D01*
X71977285Y-42509000D01*
X72072523Y-42604238D01*
X72120142Y-42794714D01*
X72120142Y-43128047D01*
X72072523Y-43318523D01*
X71977285Y-43413761D01*
X71882047Y-43461380D01*
X71691571Y-43461380D01*
X73024904Y-42461380D02*
X72548714Y-42461380D01*
X72501095Y-42937571D01*
X72548714Y-42889952D01*
X72643952Y-42842333D01*
X72882047Y-42842333D01*
X72977285Y-42889952D01*
X73024904Y-42937571D01*
X73072523Y-43032809D01*
X73072523Y-43270904D01*
X73024904Y-43366142D01*
X72977285Y-43413761D01*
X72882047Y-43461380D01*
X72643952Y-43461380D01*
X72548714Y-43413761D01*
X72501095Y-43366142D01*
X63785761Y-43556619D02*
X63690523Y-43509000D01*
X63595285Y-43413761D01*
X63452428Y-43270904D01*
X63357190Y-43223285D01*
X63261952Y-43223285D01*
X63309571Y-43461380D02*
X63214333Y-43413761D01*
X63119095Y-43318523D01*
X63071476Y-43128047D01*
X63071476Y-42794714D01*
X63119095Y-42604238D01*
X63214333Y-42509000D01*
X63309571Y-42461380D01*
X63500047Y-42461380D01*
X63595285Y-42509000D01*
X63690523Y-42604238D01*
X63738142Y-42794714D01*
X63738142Y-43128047D01*
X63690523Y-43318523D01*
X63595285Y-43413761D01*
X63500047Y-43461380D01*
X63309571Y-43461380D01*
X64595285Y-42461380D02*
X64404809Y-42461380D01*
X64309571Y-42509000D01*
X64261952Y-42556619D01*
X64166714Y-42699476D01*
X64119095Y-42889952D01*
X64119095Y-43270904D01*
X64166714Y-43366142D01*
X64214333Y-43413761D01*
X64309571Y-43461380D01*
X64500047Y-43461380D01*
X64595285Y-43413761D01*
X64642904Y-43366142D01*
X64690523Y-43270904D01*
X64690523Y-43032809D01*
X64642904Y-42937571D01*
X64595285Y-42889952D01*
X64500047Y-42842333D01*
X64309571Y-42842333D01*
X64214333Y-42889952D01*
X64166714Y-42937571D01*
X64119095Y-43032809D01*
X49861096Y-35024381D02*
X49861096Y-35833905D01*
X49908715Y-35929143D01*
X49956334Y-35976762D01*
X50051572Y-36024381D01*
X50242048Y-36024381D01*
X50337286Y-35976762D01*
X50384905Y-35929143D01*
X50432524Y-35833905D01*
X50432524Y-35024381D01*
X50813477Y-35024381D02*
X51432524Y-35024381D01*
X51099191Y-35405334D01*
X51242048Y-35405334D01*
X51337286Y-35452953D01*
X51384905Y-35500572D01*
X51432524Y-35595810D01*
X51432524Y-35833905D01*
X51384905Y-35929143D01*
X51337286Y-35976762D01*
X51242048Y-36024381D01*
X50956334Y-36024381D01*
X50861096Y-35976762D01*
X50813477Y-35929143D01*
X98257380Y-44235666D02*
X97781190Y-44569000D01*
X98257380Y-44807095D02*
X97257380Y-44807095D01*
X97257380Y-44426142D01*
X97305000Y-44330904D01*
X97352619Y-44283285D01*
X97447857Y-44235666D01*
X97590714Y-44235666D01*
X97685952Y-44283285D01*
X97733571Y-44330904D01*
X97781190Y-44426142D01*
X97781190Y-44807095D01*
X98257380Y-43283285D02*
X98257380Y-43854714D01*
X98257380Y-43569000D02*
X97257380Y-43569000D01*
X97400238Y-43664238D01*
X97495476Y-43759476D01*
X97543095Y-43854714D01*
X95717380Y-44235666D02*
X95241190Y-44569000D01*
X95717380Y-44807095D02*
X94717380Y-44807095D01*
X94717380Y-44426142D01*
X94765000Y-44330904D01*
X94812619Y-44283285D01*
X94907857Y-44235666D01*
X95050714Y-44235666D01*
X95145952Y-44283285D01*
X95193571Y-44330904D01*
X95241190Y-44426142D01*
X95241190Y-44807095D01*
X94812619Y-43854714D02*
X94765000Y-43807095D01*
X94717380Y-43711857D01*
X94717380Y-43473761D01*
X94765000Y-43378523D01*
X94812619Y-43330904D01*
X94907857Y-43283285D01*
X95003095Y-43283285D01*
X95145952Y-43330904D01*
X95717380Y-43902333D01*
X95717380Y-43283285D01*
X81366380Y-44235666D02*
X80890190Y-44569000D01*
X81366380Y-44807095D02*
X80366380Y-44807095D01*
X80366380Y-44426142D01*
X80414000Y-44330904D01*
X80461619Y-44283285D01*
X80556857Y-44235666D01*
X80699714Y-44235666D01*
X80794952Y-44283285D01*
X80842571Y-44330904D01*
X80890190Y-44426142D01*
X80890190Y-44807095D01*
X80366380Y-43902333D02*
X80366380Y-43283285D01*
X80747333Y-43616619D01*
X80747333Y-43473761D01*
X80794952Y-43378523D01*
X80842571Y-43330904D01*
X80937809Y-43283285D01*
X81175904Y-43283285D01*
X81271142Y-43330904D01*
X81318761Y-43378523D01*
X81366380Y-43473761D01*
X81366380Y-43759476D01*
X81318761Y-43854714D01*
X81271142Y-43902333D01*
X84033380Y-44362666D02*
X83557190Y-44696000D01*
X84033380Y-44934095D02*
X83033380Y-44934095D01*
X83033380Y-44553142D01*
X83081000Y-44457904D01*
X83128619Y-44410285D01*
X83223857Y-44362666D01*
X83366714Y-44362666D01*
X83461952Y-44410285D01*
X83509571Y-44457904D01*
X83557190Y-44553142D01*
X83557190Y-44934095D01*
X83366714Y-43505523D02*
X84033380Y-43505523D01*
X82985761Y-43743619D02*
X83700047Y-43981714D01*
X83700047Y-43362666D01*
X71714380Y-44235666D02*
X71238190Y-44569000D01*
X71714380Y-44807095D02*
X70714380Y-44807095D01*
X70714380Y-44426142D01*
X70762000Y-44330904D01*
X70809619Y-44283285D01*
X70904857Y-44235666D01*
X71047714Y-44235666D01*
X71142952Y-44283285D01*
X71190571Y-44330904D01*
X71238190Y-44426142D01*
X71238190Y-44807095D01*
X70714380Y-43330904D02*
X70714380Y-43807095D01*
X71190571Y-43854714D01*
X71142952Y-43807095D01*
X71095333Y-43711857D01*
X71095333Y-43473761D01*
X71142952Y-43378523D01*
X71190571Y-43330904D01*
X71285809Y-43283285D01*
X71523904Y-43283285D01*
X71619142Y-43330904D01*
X71666761Y-43378523D01*
X71714380Y-43473761D01*
X71714380Y-43711857D01*
X71666761Y-43807095D01*
X71619142Y-43854714D01*
X69174380Y-44235666D02*
X68698190Y-44569000D01*
X69174380Y-44807095D02*
X68174380Y-44807095D01*
X68174380Y-44426142D01*
X68222000Y-44330904D01*
X68269619Y-44283285D01*
X68364857Y-44235666D01*
X68507714Y-44235666D01*
X68602952Y-44283285D01*
X68650571Y-44330904D01*
X68698190Y-44426142D01*
X68698190Y-44807095D01*
X68174380Y-43378523D02*
X68174380Y-43569000D01*
X68222000Y-43664238D01*
X68269619Y-43711857D01*
X68412476Y-43807095D01*
X68602952Y-43854714D01*
X68983904Y-43854714D01*
X69079142Y-43807095D01*
X69126761Y-43759476D01*
X69174380Y-43664238D01*
X69174380Y-43473761D01*
X69126761Y-43378523D01*
X69079142Y-43330904D01*
X68983904Y-43283285D01*
X68745809Y-43283285D01*
X68650571Y-43330904D01*
X68602952Y-43378523D01*
X68555333Y-43473761D01*
X68555333Y-43664238D01*
X68602952Y-43759476D01*
X68650571Y-43807095D01*
X68745809Y-43854714D01*
X65619333Y-24694380D02*
X65286000Y-24218190D01*
X65047904Y-24694380D02*
X65047904Y-23694380D01*
X65428857Y-23694380D01*
X65524095Y-23742000D01*
X65571714Y-23789619D01*
X65619333Y-23884857D01*
X65619333Y-24027714D01*
X65571714Y-24122952D01*
X65524095Y-24170571D01*
X65428857Y-24218190D01*
X65047904Y-24218190D01*
X65952666Y-23694380D02*
X66619333Y-23694380D01*
X66190761Y-24694380D01*
X82002333Y-27234380D02*
X81669000Y-26758190D01*
X81430904Y-27234380D02*
X81430904Y-26234380D01*
X81811857Y-26234380D01*
X81907095Y-26282000D01*
X81954714Y-26329619D01*
X82002333Y-26424857D01*
X82002333Y-26567714D01*
X81954714Y-26662952D01*
X81907095Y-26710571D01*
X81811857Y-26758190D01*
X81430904Y-26758190D01*
X82573761Y-26662952D02*
X82478523Y-26615333D01*
X82430904Y-26567714D01*
X82383285Y-26472476D01*
X82383285Y-26424857D01*
X82430904Y-26329619D01*
X82478523Y-26282000D01*
X82573761Y-26234380D01*
X82764238Y-26234380D01*
X82859476Y-26282000D01*
X82907095Y-26329619D01*
X82954714Y-26424857D01*
X82954714Y-26472476D01*
X82907095Y-26567714D01*
X82859476Y-26615333D01*
X82764238Y-26662952D01*
X82573761Y-26662952D01*
X82478523Y-26710571D01*
X82430904Y-26758190D01*
X82383285Y-26853428D01*
X82383285Y-27043904D01*
X82430904Y-27139142D01*
X82478523Y-27186761D01*
X82573761Y-27234380D01*
X82764238Y-27234380D01*
X82859476Y-27186761D01*
X82907095Y-27139142D01*
X82954714Y-27043904D01*
X82954714Y-26853428D01*
X82907095Y-26758190D01*
X82859476Y-26710571D01*
X82764238Y-26662952D01*
X82002333Y-29774380D02*
X81669000Y-29298190D01*
X81430904Y-29774380D02*
X81430904Y-28774380D01*
X81811857Y-28774380D01*
X81907095Y-28822000D01*
X81954714Y-28869619D01*
X82002333Y-28964857D01*
X82002333Y-29107714D01*
X81954714Y-29202952D01*
X81907095Y-29250571D01*
X81811857Y-29298190D01*
X81430904Y-29298190D01*
X82478523Y-29774380D02*
X82669000Y-29774380D01*
X82764238Y-29726761D01*
X82811857Y-29679142D01*
X82907095Y-29536285D01*
X82954714Y-29345809D01*
X82954714Y-28964857D01*
X82907095Y-28869619D01*
X82859476Y-28822000D01*
X82764238Y-28774380D01*
X82573761Y-28774380D01*
X82478523Y-28822000D01*
X82430904Y-28869619D01*
X82383285Y-28964857D01*
X82383285Y-29202952D01*
X82430904Y-29298190D01*
X82478523Y-29345809D01*
X82573761Y-29393428D01*
X82764238Y-29393428D01*
X82859476Y-29345809D01*
X82907095Y-29298190D01*
X82954714Y-29202952D01*
X65143142Y-31201380D02*
X64809809Y-30725190D01*
X64571714Y-31201380D02*
X64571714Y-30201380D01*
X64952666Y-30201380D01*
X65047904Y-30249000D01*
X65095523Y-30296619D01*
X65143142Y-30391857D01*
X65143142Y-30534714D01*
X65095523Y-30629952D01*
X65047904Y-30677571D01*
X64952666Y-30725190D01*
X64571714Y-30725190D01*
X66095523Y-31201380D02*
X65524095Y-31201380D01*
X65809809Y-31201380D02*
X65809809Y-30201380D01*
X65714571Y-30344238D01*
X65619333Y-30439476D01*
X65524095Y-30487095D01*
X66714571Y-30201380D02*
X66809809Y-30201380D01*
X66905047Y-30249000D01*
X66952666Y-30296619D01*
X67000285Y-30391857D01*
X67047904Y-30582333D01*
X67047904Y-30820428D01*
X67000285Y-31010904D01*
X66952666Y-31106142D01*
X66905047Y-31153761D01*
X66809809Y-31201380D01*
X66714571Y-31201380D01*
X66619333Y-31153761D01*
X66571714Y-31106142D01*
X66524095Y-31010904D01*
X66476476Y-30820428D01*
X66476476Y-30582333D01*
X66524095Y-30391857D01*
X66571714Y-30296619D01*
X66619333Y-30249000D01*
X66714571Y-30201380D01*
X91686142Y-31328380D02*
X91352809Y-30852190D01*
X91114714Y-31328380D02*
X91114714Y-30328380D01*
X91495666Y-30328380D01*
X91590904Y-30376000D01*
X91638523Y-30423619D01*
X91686142Y-30518857D01*
X91686142Y-30661714D01*
X91638523Y-30756952D01*
X91590904Y-30804571D01*
X91495666Y-30852190D01*
X91114714Y-30852190D01*
X92638523Y-31328380D02*
X92067095Y-31328380D01*
X92352809Y-31328380D02*
X92352809Y-30328380D01*
X92257571Y-30471238D01*
X92162333Y-30566476D01*
X92067095Y-30614095D01*
X93590904Y-31328380D02*
X93019476Y-31328380D01*
X93305190Y-31328380D02*
X93305190Y-30328380D01*
X93209952Y-30471238D01*
X93114714Y-30566476D01*
X93019476Y-30614095D01*
X91686142Y-28788380D02*
X91352809Y-28312190D01*
X91114714Y-28788380D02*
X91114714Y-27788380D01*
X91495666Y-27788380D01*
X91590904Y-27836000D01*
X91638523Y-27883619D01*
X91686142Y-27978857D01*
X91686142Y-28121714D01*
X91638523Y-28216952D01*
X91590904Y-28264571D01*
X91495666Y-28312190D01*
X91114714Y-28312190D01*
X92638523Y-28788380D02*
X92067095Y-28788380D01*
X92352809Y-28788380D02*
X92352809Y-27788380D01*
X92257571Y-27931238D01*
X92162333Y-28026476D01*
X92067095Y-28074095D01*
X93019476Y-27883619D02*
X93067095Y-27836000D01*
X93162333Y-27788380D01*
X93400428Y-27788380D01*
X93495666Y-27836000D01*
X93543285Y-27883619D01*
X93590904Y-27978857D01*
X93590904Y-28074095D01*
X93543285Y-28216952D01*
X92971857Y-28788380D01*
X93590904Y-28788380D01*
M02*
