M48
; DRILL file {KiCad (5.1.6)-1} date 12/09/20 17:58:47
; FORMAT={-:-/ absolute / inch / decimal}
; #@! TF.CreationDate,2020-12-09T17:58:47+01:00
; #@! TF.GenerationSoftware,Kicad,Pcbnew,(5.1.6)-1
; #@! TF.FileFunction,Plated,1,2,PTH
FMAT,2
INCH
T1C0.0256
T2C0.0394
%
G90
G05
T1
X1.743Y-1.3005
X1.743Y-1.3792
X1.743Y-1.458
X1.743Y-1.5367
X1.743Y-1.6154
X1.743Y-1.6942
X1.743Y-1.7729
X1.743Y-1.8517
X1.8214Y-1.891
X1.9001Y-1.891
X1.9789Y-1.891
X2.0576Y-1.891
X2.1363Y-1.891
X2.2151Y-1.891
X2.2942Y-1.3005
X2.2942Y-1.3792
X2.2942Y-1.458
X2.2942Y-1.5367
X2.2942Y-1.6154
X2.2942Y-1.6942
X2.2942Y-1.7729
X2.2942Y-1.8517
T2
X2.44Y-1.135
X2.74Y-1.135
X3.9Y-1.785
X3.9Y-1.885
X3.9Y-1.985
X3.9Y-0.94
X3.9Y-1.04
X3.9Y-1.14
X3.9Y-1.24
X3.9Y-1.34
X3.9Y-1.44
X3.9Y-1.54
X3.9Y-1.64
X4.0Y-0.94
X4.0Y-1.04
X4.0Y-1.14
X4.0Y-1.24
X4.0Y-1.34
X4.0Y-1.44
X4.0Y-1.54
X4.0Y-1.64
X2.845Y-1.785
X2.845Y-1.885
X2.845Y-1.985
X3.085Y-1.23
X3.385Y-1.23
X2.865Y-0.93
X2.865Y-1.03
X2.865Y-1.13
X2.865Y-1.23
X2.865Y-1.33
X2.865Y-1.43
X2.865Y-1.53
X2.865Y-1.63
X2.965Y-0.93
X2.965Y-1.03
X2.965Y-1.13
X2.965Y-1.23
X2.965Y-1.33
X2.965Y-1.43
X2.965Y-1.53
X2.965Y-1.63
X3.56Y-1.79
X3.56Y-1.89
X3.56Y-1.99
X3.775Y-1.585
X3.775Y-1.885
X3.11Y-1.585
X3.11Y-1.885
X1.4419Y-1.0269
X1.4419Y-1.9269
X1.5419Y-1.0269
X1.5419Y-1.9269
X2.515Y-1.785
X2.515Y-1.885
X2.515Y-1.985
X2.63Y-1.585
X2.63Y-1.885
X2.44Y-1.03
X2.74Y-1.03
X1.44Y-2.1
X1.54Y-2.1
X3.085Y-1.13
X3.385Y-1.13
X3.675Y-1.585
X3.675Y-1.885
X3.215Y-1.59
X3.215Y-1.89
X3.485Y-1.14
X3.785Y-1.14
X3.33Y-1.79
X3.33Y-1.89
X3.33Y-1.99
X2.99Y-1.785
X2.99Y-1.885
X2.99Y-1.985
X2.73Y-1.585
X2.73Y-1.885
X3.485Y-1.04
X3.785Y-1.04
T0
M30
