G04 #@! TF.GenerationSoftware,KiCad,Pcbnew,(5.1.6)-1*
G04 #@! TF.CreationDate,2020-12-09T17:58:41+01:00*
G04 #@! TF.ProjectId,Rolety jadalnia x3,526f6c65-7479-4206-9a61-64616c6e6961,rev?*
G04 #@! TF.SameCoordinates,Original*
G04 #@! TF.FileFunction,Copper,L2,Bot*
G04 #@! TF.FilePolarity,Positive*
%FSLAX46Y46*%
G04 Gerber Fmt 4.6, Leading zero omitted, Abs format (unit mm)*
G04 Created by KiCad (PCBNEW (5.1.6)-1) date 2020-12-09 17:58:41*
%MOMM*%
%LPD*%
G01*
G04 APERTURE LIST*
G04 #@! TA.AperFunction,ComponentPad*
%ADD10O,2.000000X2.000000*%
G04 #@! TD*
G04 #@! TA.AperFunction,ComponentPad*
%ADD11R,2.000000X2.000000*%
G04 #@! TD*
G04 #@! TA.AperFunction,ComponentPad*
%ADD12C,2.000000*%
G04 #@! TD*
G04 #@! TA.AperFunction,ComponentPad*
%ADD13O,1.100000X2.500000*%
G04 #@! TD*
G04 #@! TA.AperFunction,ComponentPad*
%ADD14O,2.500000X1.100000*%
G04 #@! TD*
G04 #@! TA.AperFunction,ComponentPad*
%ADD15R,2.500000X1.100000*%
G04 #@! TD*
G04 #@! TA.AperFunction,Conductor*
%ADD16C,0.250000*%
G04 #@! TD*
G04 APERTURE END LIST*
D10*
X36576000Y-53340000D03*
D11*
X39116000Y-53340000D03*
X39163001Y-26082001D03*
D12*
X36623001Y-26082001D03*
X36623001Y-48942001D03*
D11*
X39163001Y-48942001D03*
X99060000Y-23876000D03*
D12*
X101600000Y-23876000D03*
X101600000Y-26416000D03*
X99060000Y-26416000D03*
X101600000Y-28956000D03*
X99060000Y-28956000D03*
X101600000Y-31496000D03*
X99060000Y-31496000D03*
X101600000Y-34036000D03*
X99060000Y-34036000D03*
X101600000Y-36576000D03*
X99060000Y-36576000D03*
X101600000Y-39116000D03*
X99060000Y-39116000D03*
X101600000Y-41656000D03*
X99060000Y-41656000D03*
D11*
X72771000Y-23622000D03*
D12*
X75311000Y-23622000D03*
X75311000Y-26162000D03*
X72771000Y-26162000D03*
X75311000Y-28702000D03*
X72771000Y-28702000D03*
X75311000Y-31242000D03*
X72771000Y-31242000D03*
X75311000Y-33782000D03*
X72771000Y-33782000D03*
X75311000Y-36322000D03*
X72771000Y-36322000D03*
X75311000Y-38862000D03*
X72771000Y-38862000D03*
X75311000Y-41402000D03*
X72771000Y-41402000D03*
D10*
X99060000Y-50419000D03*
X99060000Y-47879000D03*
D11*
X99060000Y-45339000D03*
D10*
X90424000Y-50546000D03*
X90424000Y-48006000D03*
D11*
X90424000Y-45466000D03*
D10*
X75946000Y-50419000D03*
X75946000Y-47879000D03*
D11*
X75946000Y-45339000D03*
D10*
X84582000Y-50546000D03*
X84582000Y-48006000D03*
D11*
X84582000Y-45466000D03*
D10*
X72263000Y-50419000D03*
X72263000Y-47879000D03*
D11*
X72263000Y-45339000D03*
D10*
X63881000Y-50419000D03*
X63881000Y-47879000D03*
D11*
X63881000Y-45339000D03*
D13*
X56263001Y-48732001D03*
X54263001Y-48732001D03*
X52263001Y-48732001D03*
X50263001Y-48732001D03*
X48263001Y-48732001D03*
X46263001Y-48732001D03*
D14*
X58973001Y-33032001D03*
X58973001Y-35032001D03*
X58973001Y-37032001D03*
X58973001Y-39032001D03*
X58973001Y-41032001D03*
X58973001Y-43032001D03*
X58873001Y-45032001D03*
X58973001Y-47032001D03*
X43573001Y-47032001D03*
X43573001Y-45032001D03*
X43573001Y-43032001D03*
X43573001Y-41032001D03*
X43573001Y-39032001D03*
X43573001Y-37032001D03*
X43573001Y-35032001D03*
D15*
X43573001Y-33032001D03*
D12*
X95885000Y-40259000D03*
X95885000Y-47879000D03*
X93345000Y-47879000D03*
X93345000Y-40259000D03*
X78994000Y-40259000D03*
X78994000Y-47879000D03*
X81661000Y-48006000D03*
X81661000Y-40386000D03*
X69342000Y-40259000D03*
X69342000Y-47879000D03*
X66802000Y-47879000D03*
X66802000Y-40259000D03*
X61976000Y-26162000D03*
X69596000Y-26162000D03*
X85979000Y-28702000D03*
X78359000Y-28702000D03*
X78359000Y-31242000D03*
X85979000Y-31242000D03*
X61976000Y-28829000D03*
X69596000Y-28829000D03*
X96139000Y-28956000D03*
X88519000Y-28956000D03*
X88519000Y-26416000D03*
X96139000Y-26416000D03*
D16*
X61722000Y-52832000D02*
X86868000Y-52832000D01*
X60198000Y-51308000D02*
X61722000Y-52832000D01*
X87884000Y-37211000D02*
X96139000Y-28956000D01*
X34544000Y-51308000D02*
X60198000Y-51308000D01*
X34036000Y-50800000D02*
X34544000Y-51308000D01*
X34036000Y-47879000D02*
X34036000Y-50800000D01*
X86868000Y-52832000D02*
X87884000Y-51816000D01*
X36882999Y-45032001D02*
X34036000Y-47879000D01*
X87884000Y-51816000D02*
X87884000Y-37211000D01*
X44273001Y-45032001D02*
X36882999Y-45032001D01*
X41540001Y-41032001D02*
X44273001Y-41032001D01*
X34417000Y-33909000D02*
X41540001Y-41032001D01*
X34417000Y-23876000D02*
X34417000Y-33909000D01*
X38354000Y-19939000D02*
X34417000Y-23876000D01*
X89662000Y-19939000D02*
X38354000Y-19939000D01*
X96139000Y-26416000D02*
X89662000Y-19939000D01*
X61976000Y-26162000D02*
X61976000Y-24638000D01*
X61976000Y-24638000D02*
X60325000Y-22987000D01*
X39718002Y-22987000D02*
X36623001Y-26082001D01*
X60325000Y-22987000D02*
X39718002Y-22987000D01*
X69596000Y-26162000D02*
X67691000Y-28067000D01*
X67691000Y-28067000D02*
X67691000Y-35941000D01*
X62599999Y-41032001D02*
X58273001Y-41032001D01*
X67691000Y-35941000D02*
X62599999Y-41032001D01*
X58273001Y-39032001D02*
X62948999Y-39032001D01*
X62948999Y-39032001D02*
X67056000Y-34925000D01*
X67056000Y-34925000D02*
X67056000Y-23368000D01*
X67056000Y-23368000D02*
X69342000Y-21082000D01*
X69342000Y-21082000D02*
X77216000Y-21082000D01*
X78359000Y-22225000D02*
X78359000Y-28702000D01*
X77216000Y-21082000D02*
X78359000Y-22225000D01*
X58273001Y-37032001D02*
X60503999Y-37032001D01*
X60503999Y-37032001D02*
X66421000Y-31115000D01*
X66421000Y-31115000D02*
X66421000Y-23114000D01*
X66421000Y-23114000D02*
X69088000Y-20447000D01*
X69088000Y-20447000D02*
X78232000Y-20447000D01*
X78232000Y-20447000D02*
X80772000Y-22987000D01*
X80772000Y-28829000D02*
X78359000Y-31242000D01*
X80772000Y-22987000D02*
X80772000Y-28829000D01*
M02*
