%TF.GenerationSoftware,KiCad,Pcbnew,(5.1.9)-1*%
%TF.CreationDate,2021-05-06T17:33:23+02:00*%
%TF.ProjectId,Rolety jadalnia i taras,526f6c65-7479-4206-9a61-64616c6e6961,rev?*%
%TF.SameCoordinates,Original*%
%TF.FileFunction,Soldermask,Top*%
%TF.FilePolarity,Negative*%
%FSLAX46Y46*%
G04 Gerber Fmt 4.6, Leading zero omitted, Abs format (unit mm)*
G04 Created by KiCad (PCBNEW (5.1.9)-1) date 2021-05-06 17:33:23*
%MOMM*%
%LPD*%
G01*
G04 APERTURE LIST*
%ADD10R,1.300000X1.300000*%
%ADD11C,1.300000*%
%ADD12R,2.000000X2.000000*%
%ADD13C,2.000000*%
%ADD14O,1.700000X1.700000*%
%ADD15R,1.700000X1.700000*%
%ADD16C,1.400000*%
%ADD17O,1.400000X1.400000*%
%ADD18R,1.100000X2.500000*%
%ADD19O,1.100000X2.500000*%
%ADD20O,2.500000X1.100000*%
%ADD21R,1.600000X1.600000*%
%ADD22O,1.600000X1.600000*%
G04 APERTURE END LIST*
D10*
%TO.C,Q10*%
X119380000Y-116840000D03*
D11*
X116840000Y-116840000D03*
X118110000Y-118110000D03*
%TD*%
D12*
%TO.C,IC1*%
X72390000Y-107950000D03*
D13*
X80010000Y-125730000D03*
X72390000Y-110490000D03*
X80010000Y-123190000D03*
X72390000Y-113030000D03*
X80010000Y-120650000D03*
X72390000Y-115570000D03*
X80010000Y-118110000D03*
X72390000Y-118110000D03*
X80010000Y-115570000D03*
X72390000Y-120650000D03*
X80010000Y-113030000D03*
X72390000Y-123190000D03*
X80010000Y-110490000D03*
X72390000Y-125730000D03*
X80010000Y-107950000D03*
%TD*%
D11*
%TO.C,Q4*%
X95885000Y-90170000D03*
X94615000Y-88900000D03*
D10*
X97155000Y-88900000D03*
%TD*%
D13*
%TO.C,IC2*%
X113665000Y-107950000D03*
X106045000Y-125730000D03*
X113665000Y-110490000D03*
X106045000Y-123190000D03*
X113665000Y-113030000D03*
X106045000Y-120650000D03*
X113665000Y-115570000D03*
X106045000Y-118110000D03*
X113665000Y-118110000D03*
X106045000Y-115570000D03*
X113665000Y-120650000D03*
X106045000Y-113030000D03*
X113665000Y-123190000D03*
X106045000Y-110490000D03*
X113665000Y-125730000D03*
D12*
X106045000Y-107950000D03*
%TD*%
D14*
%TO.C,U5*%
X60960000Y-93980000D03*
X60960000Y-96520000D03*
X60960000Y-99060000D03*
D15*
X60960000Y-101600000D03*
%TD*%
%TO.C,U4*%
X84455000Y-130810000D03*
D14*
X86995000Y-130810000D03*
X89535000Y-130810000D03*
X92075000Y-130810000D03*
X94615000Y-130810000D03*
X97155000Y-130810000D03*
X99695000Y-130810000D03*
X102235000Y-130810000D03*
X104775000Y-130810000D03*
X107315000Y-130810000D03*
%TD*%
D11*
%TO.C,Q1*%
X62484000Y-123190000D03*
X63754000Y-124460000D03*
D10*
X61214000Y-124460000D03*
%TD*%
%TO.C,Q2*%
X63754000Y-114300000D03*
D11*
X61214000Y-114300000D03*
X62484000Y-115570000D03*
%TD*%
%TO.C,Q3*%
X89916000Y-118110000D03*
X88646000Y-116840000D03*
D10*
X91186000Y-116840000D03*
%TD*%
%TO.C,Q5*%
X88646000Y-127000000D03*
D11*
X91186000Y-127000000D03*
X89916000Y-125730000D03*
%TD*%
D10*
%TO.C,Q6*%
X89535000Y-88900000D03*
D11*
X89535000Y-91440000D03*
X90805000Y-90170000D03*
%TD*%
%TO.C,Q7*%
X96139000Y-123190000D03*
X97409000Y-124460000D03*
D10*
X94869000Y-124460000D03*
%TD*%
%TO.C,Q8*%
X97409000Y-114300000D03*
D11*
X94869000Y-114300000D03*
X96139000Y-115570000D03*
%TD*%
%TO.C,Q9*%
X123825000Y-118110000D03*
X122555000Y-116840000D03*
D10*
X125095000Y-116840000D03*
%TD*%
D16*
%TO.C,R1*%
X62484000Y-120650000D03*
D17*
X70104000Y-120650000D03*
%TD*%
%TO.C,R2*%
X70104000Y-118110000D03*
D16*
X62484000Y-118110000D03*
%TD*%
%TO.C,R3*%
X89916000Y-120650000D03*
D17*
X82296000Y-120650000D03*
%TD*%
%TO.C,R4*%
X107315000Y-90805000D03*
D16*
X99695000Y-90805000D03*
%TD*%
D17*
%TO.C,R5*%
X82296000Y-123190000D03*
D16*
X89916000Y-123190000D03*
%TD*%
%TO.C,R6*%
X90805000Y-93345000D03*
D17*
X98425000Y-93345000D03*
%TD*%
D16*
%TO.C,R7*%
X96139000Y-120650000D03*
D17*
X103759000Y-120650000D03*
%TD*%
%TO.C,R8*%
X103759000Y-118110000D03*
D16*
X96139000Y-118110000D03*
%TD*%
%TO.C,R9*%
X123825000Y-120650000D03*
D17*
X116205000Y-120650000D03*
%TD*%
%TO.C,R10*%
X116205000Y-123190000D03*
D16*
X123825000Y-123190000D03*
%TD*%
D15*
%TO.C,SW1*%
X68580000Y-74930000D03*
D14*
X71120000Y-74930000D03*
%TD*%
D15*
%TO.C,SW2*%
X118110000Y-104775000D03*
D14*
X118110000Y-102235000D03*
X118110000Y-99695000D03*
X118110000Y-97155000D03*
X118110000Y-94615000D03*
X118110000Y-92075000D03*
%TD*%
D12*
%TO.C,U1*%
X68580000Y-78740000D03*
D13*
X71120000Y-78740000D03*
X71120000Y-101600000D03*
D12*
X68580000Y-101600000D03*
%TD*%
D18*
%TO.C,U2*%
X90805000Y-69785000D03*
D19*
X88805000Y-69785000D03*
X86805000Y-69785000D03*
X84805000Y-69785000D03*
X82805000Y-69785000D03*
X80805000Y-69785000D03*
X78805000Y-69785000D03*
X76805000Y-69785000D03*
X76805000Y-85185000D03*
X78805000Y-85085000D03*
X80805000Y-85185000D03*
X82805000Y-85185000D03*
X84805000Y-85185000D03*
X86805000Y-85185000D03*
X88805000Y-85185000D03*
X90805000Y-85185000D03*
D20*
X75105000Y-72475000D03*
X75105000Y-74475000D03*
X75105000Y-76475000D03*
X75105000Y-78475000D03*
X75105000Y-80475000D03*
X75105000Y-82475000D03*
%TD*%
D21*
%TO.C,U3*%
X113030000Y-95885000D03*
D22*
X80010000Y-103505000D03*
X110490000Y-95885000D03*
X82550000Y-103505000D03*
X107950000Y-95885000D03*
X85090000Y-103505000D03*
X105410000Y-95885000D03*
X87630000Y-103505000D03*
X102870000Y-95885000D03*
X90170000Y-103505000D03*
X100330000Y-95885000D03*
X92710000Y-103505000D03*
X97790000Y-95885000D03*
X95250000Y-103505000D03*
X95250000Y-95885000D03*
X97790000Y-103505000D03*
X92710000Y-95885000D03*
X100330000Y-103505000D03*
X90170000Y-95885000D03*
X102870000Y-103505000D03*
X87630000Y-95885000D03*
X105410000Y-103505000D03*
X85090000Y-95885000D03*
X107950000Y-103505000D03*
X82550000Y-95885000D03*
X110490000Y-103505000D03*
X80010000Y-95885000D03*
X113030000Y-103505000D03*
%TD*%
M02*
