M48
; DRILL file {KiCad (5.1.9)-1} date 05/06/21 17:34:03
; FORMAT={-:-/ absolute / inch / decimal}
; #@! TF.CreationDate,2021-05-06T17:34:03+02:00
; #@! TF.GenerationSoftware,Kicad,Pcbnew,(5.1.9)-1
; #@! TF.FileFunction,Plated,1,2,PTH
FMAT,2
INCH
T1C0.0256
T2C0.0276
T3C0.0295
T4C0.0315
T5C0.0394
%
G90
G05
T1
X2.9844Y-2.8533
X2.9844Y-2.9321
X2.9844Y-3.0108
X2.9844Y-3.0896
X2.9844Y-3.1683
X2.9844Y-3.247
X3.0238Y-2.775
X3.0238Y-3.3262
X3.1026Y-2.775
X3.1026Y-3.3262
X3.1813Y-2.775
X3.1813Y-3.3262
X3.26Y-2.775
X3.26Y-3.3262
X3.3388Y-2.775
X3.3388Y-3.3262
X3.4175Y-2.775
X3.4175Y-3.3262
X3.4963Y-2.775
X3.4963Y-3.3262
X3.575Y-2.775
X3.575Y-3.3262
T2
X2.46Y-4.65
X2.46Y-4.75
X2.76Y-4.65
X2.76Y-4.75
X3.24Y-4.75
X3.24Y-4.85
X3.54Y-4.75
X3.54Y-4.85
X3.575Y-3.675
X3.785Y-4.65
X3.785Y-4.75
X3.875Y-3.675
X3.925Y-3.575
X4.085Y-4.65
X4.085Y-4.75
X4.225Y-3.575
X4.575Y-4.75
X4.575Y-4.85
X4.875Y-4.75
X4.875Y-4.85
T3
X2.41Y-4.5
X2.41Y-4.9
X2.46Y-4.55
X2.46Y-4.85
X2.51Y-4.5
X2.51Y-4.9
X3.49Y-4.6
X3.49Y-5.0
X3.525Y-3.5
X3.525Y-3.6
X3.54Y-4.65
X3.54Y-4.95
X3.575Y-3.55
X3.59Y-4.6
X3.59Y-5.0
X3.725Y-3.5
X3.735Y-4.5
X3.735Y-4.9
X3.775Y-3.55
X3.785Y-4.55
X3.785Y-4.85
X3.825Y-3.5
X3.835Y-4.5
X3.835Y-4.9
X4.6Y-4.6
X4.65Y-4.65
X4.7Y-4.6
X4.825Y-4.6
X4.875Y-4.65
X4.925Y-4.6
T4
X3.15Y-3.775
X3.15Y-4.075
X3.25Y-3.775
X3.25Y-4.075
X3.35Y-3.775
X3.35Y-4.075
X3.45Y-3.775
X3.45Y-4.075
X3.55Y-3.775
X3.55Y-4.075
X3.65Y-3.775
X3.65Y-4.075
X3.75Y-3.775
X3.75Y-4.075
X3.85Y-3.775
X3.85Y-4.075
X3.95Y-3.775
X3.95Y-4.075
X4.05Y-3.775
X4.05Y-4.075
X4.15Y-3.775
X4.15Y-4.075
X4.25Y-3.775
X4.25Y-4.075
X4.35Y-3.775
X4.35Y-4.075
X4.45Y-3.775
X4.45Y-4.075
T5
X2.4Y-3.7
X2.4Y-3.8
X2.4Y-3.9
X2.4Y-4.0
X2.7Y-2.95
X2.7Y-3.1
X2.7Y-4.0
X2.8Y-2.95
X2.8Y-3.1
X2.8Y-4.0
X2.85Y-4.25
X2.85Y-4.35
X2.85Y-4.45
X2.85Y-4.55
X2.85Y-4.65
X2.85Y-4.75
X2.85Y-4.85
X2.85Y-4.95
X3.15Y-4.25
X3.15Y-4.35
X3.15Y-4.45
X3.15Y-4.55
X3.15Y-4.65
X3.15Y-4.75
X3.15Y-4.85
X3.15Y-4.95
X3.325Y-5.15
X3.425Y-5.15
X3.525Y-5.15
X3.625Y-5.15
X3.725Y-5.15
X3.825Y-5.15
X3.925Y-5.15
X4.025Y-5.15
X4.125Y-5.15
X4.175Y-4.25
X4.175Y-4.35
X4.175Y-4.45
X4.175Y-4.55
X4.175Y-4.65
X4.175Y-4.75
X4.175Y-4.85
X4.175Y-4.95
X4.225Y-5.15
X4.475Y-4.25
X4.475Y-4.35
X4.475Y-4.45
X4.475Y-4.55
X4.475Y-4.65
X4.475Y-4.75
X4.475Y-4.85
X4.475Y-4.95
X4.65Y-3.625
X4.65Y-3.725
X4.65Y-3.825
X4.65Y-3.925
X4.65Y-4.025
X4.65Y-4.125
T0
M30
