G04 #@! TF.GenerationSoftware,KiCad,Pcbnew,(5.1.6)-1*
G04 #@! TF.CreationDate,2020-12-09T17:55:00+01:00*
G04 #@! TF.ProjectId,Rolety Bart_omiej Torczy_o,526f6c65-7479-4204-9261-7274426f6d69,rev?*
G04 #@! TF.SameCoordinates,Original*
G04 #@! TF.FileFunction,Copper,L2,Bot*
G04 #@! TF.FilePolarity,Positive*
%FSLAX46Y46*%
G04 Gerber Fmt 4.6, Leading zero omitted, Abs format (unit mm)*
G04 Created by KiCad (PCBNEW (5.1.6)-1) date 2020-12-09 17:55:00*
%MOMM*%
%LPD*%
G01*
G04 APERTURE LIST*
G04 #@! TA.AperFunction,ComponentPad*
%ADD10C,2.000000*%
G04 #@! TD*
G04 #@! TA.AperFunction,ComponentPad*
%ADD11R,2.000000X2.000000*%
G04 #@! TD*
G04 #@! TA.AperFunction,Conductor*
%ADD12C,0.250000*%
G04 #@! TD*
G04 APERTURE END LIST*
D10*
X24892000Y-57598000D03*
D11*
X22352000Y-57598000D03*
D10*
X24892000Y-60138000D03*
D11*
X22352000Y-60138000D03*
D10*
X24892000Y-62678000D03*
D11*
X22352000Y-62678000D03*
D10*
X24892000Y-65218000D03*
D11*
X22352000Y-65218000D03*
D10*
X24892000Y-67758000D03*
D11*
X22352000Y-67758000D03*
D10*
X24892000Y-70298000D03*
D11*
X22352000Y-70298000D03*
D10*
X24892000Y-72838000D03*
D11*
X22352000Y-72838000D03*
D10*
X24892000Y-75378000D03*
D11*
X22352000Y-75378000D03*
D10*
X24892000Y-77918000D03*
D11*
X22352000Y-77918000D03*
D10*
X24892000Y-80458000D03*
D11*
X22352000Y-80458000D03*
D10*
X24892000Y-82998000D03*
D11*
X22352000Y-82998000D03*
D10*
X24892000Y-85538000D03*
D11*
X22352000Y-85538000D03*
D10*
X24892000Y-88078000D03*
D11*
X22352000Y-88078000D03*
D10*
X24892000Y-90618000D03*
D11*
X22352000Y-90618000D03*
D10*
X24892000Y-93158000D03*
D11*
X22352000Y-93158000D03*
D10*
X24892000Y-95698000D03*
D11*
X22352000Y-95698000D03*
D10*
X24892000Y-98238000D03*
D11*
X22352000Y-98238000D03*
D10*
X24892000Y-100778000D03*
D11*
X22352000Y-100778000D03*
D10*
X24892000Y-103318000D03*
D11*
X22352000Y-103318000D03*
D10*
X24892000Y-105858000D03*
D11*
X22352000Y-105858000D03*
D10*
X24892000Y-108398000D03*
D11*
X22352000Y-108398000D03*
D10*
X24892000Y-110938000D03*
D11*
X22352000Y-110938000D03*
D10*
X24892000Y-113478000D03*
D11*
X22352000Y-113478000D03*
D10*
X24892000Y-116018000D03*
D11*
X22352000Y-116018000D03*
X94742000Y-86407000D03*
D10*
X97282000Y-86407000D03*
X97282000Y-88947000D03*
X94742000Y-88947000D03*
X97282000Y-91487000D03*
X94742000Y-91487000D03*
X97282000Y-94027000D03*
X94742000Y-94027000D03*
X97282000Y-96567000D03*
X94742000Y-96567000D03*
X97282000Y-99107000D03*
X94742000Y-99107000D03*
X97282000Y-101647000D03*
X94742000Y-101647000D03*
X97282000Y-104187000D03*
X94742000Y-104187000D03*
D11*
X71374000Y-90424000D03*
D10*
X73914000Y-90424000D03*
X73914000Y-92964000D03*
X71374000Y-92964000D03*
X73914000Y-95504000D03*
X71374000Y-95504000D03*
X73914000Y-98044000D03*
X71374000Y-98044000D03*
X73914000Y-100584000D03*
X71374000Y-100584000D03*
X73914000Y-103124000D03*
X71374000Y-103124000D03*
X73914000Y-105664000D03*
X71374000Y-105664000D03*
X73914000Y-108204000D03*
X71374000Y-108204000D03*
D11*
X48006000Y-94488000D03*
D10*
X50546000Y-94488000D03*
X50546000Y-97028000D03*
X48006000Y-97028000D03*
X50546000Y-99568000D03*
X48006000Y-99568000D03*
X50546000Y-102108000D03*
X48006000Y-102108000D03*
X50546000Y-104648000D03*
X48006000Y-104648000D03*
X50546000Y-107188000D03*
X48006000Y-107188000D03*
X50546000Y-109728000D03*
X48006000Y-109728000D03*
X50546000Y-112268000D03*
X48006000Y-112268000D03*
D11*
X71628000Y-64817000D03*
D10*
X74168000Y-64817000D03*
X74168000Y-67357000D03*
X71628000Y-67357000D03*
X74168000Y-69897000D03*
X71628000Y-69897000D03*
X74168000Y-72437000D03*
X71628000Y-72437000D03*
X74168000Y-74977000D03*
X71628000Y-74977000D03*
X74168000Y-77517000D03*
X71628000Y-77517000D03*
X74168000Y-80057000D03*
X71628000Y-80057000D03*
X74168000Y-82597000D03*
X71628000Y-82597000D03*
D11*
X48006000Y-70658500D03*
D10*
X50546000Y-70658500D03*
X50546000Y-73198500D03*
X48006000Y-73198500D03*
X50546000Y-75738500D03*
X48006000Y-75738500D03*
X50546000Y-78278500D03*
X48006000Y-78278500D03*
X50546000Y-80818500D03*
X48006000Y-80818500D03*
X50546000Y-83358500D03*
X48006000Y-83358500D03*
X50546000Y-85898500D03*
X48006000Y-85898500D03*
X50546000Y-88438500D03*
X48006000Y-88438500D03*
D11*
X31242000Y-55118000D03*
D10*
X28702000Y-55118000D03*
X31242000Y-57658000D03*
X28702000Y-57658000D03*
X31242000Y-60198000D03*
X28702000Y-60198000D03*
X31242000Y-62738000D03*
X28702000Y-62738000D03*
X31242000Y-65278000D03*
X28702000Y-65278000D03*
X31242000Y-67818000D03*
X28702000Y-67818000D03*
X31242000Y-70358000D03*
X28702000Y-70358000D03*
X31242000Y-72898000D03*
X28702000Y-72898000D03*
X31242000Y-75438000D03*
X28702000Y-75438000D03*
X31242000Y-77978000D03*
X28702000Y-77978000D03*
X31242000Y-80518000D03*
X28702000Y-80518000D03*
X31242000Y-83058000D03*
X28702000Y-83058000D03*
X31242000Y-85598000D03*
X28702000Y-85598000D03*
X31242000Y-88138000D03*
X28702000Y-88138000D03*
X31242000Y-90678000D03*
X28702000Y-90678000D03*
X31242000Y-93218000D03*
X28702000Y-93218000D03*
X31242000Y-95758000D03*
X28702000Y-95758000D03*
X31242000Y-98298000D03*
X28702000Y-98298000D03*
X31242000Y-100838000D03*
X28702000Y-100838000D03*
X31242000Y-103378000D03*
X28702000Y-103378000D03*
X31242000Y-105918000D03*
X28702000Y-105918000D03*
X31242000Y-108458000D03*
X28702000Y-108458000D03*
X31242000Y-110998000D03*
X28702000Y-110998000D03*
X31242000Y-113538000D03*
X28702000Y-113538000D03*
X31242000Y-116078000D03*
X28702000Y-116078000D03*
D11*
X94996000Y-56896000D03*
D10*
X97536000Y-56896000D03*
X97536000Y-59436000D03*
X94996000Y-59436000D03*
X97536000Y-61976000D03*
X94996000Y-61976000D03*
X97536000Y-64516000D03*
X94996000Y-64516000D03*
X97536000Y-67056000D03*
X94996000Y-67056000D03*
X97536000Y-69596000D03*
X94996000Y-69596000D03*
X97536000Y-72136000D03*
X94996000Y-72136000D03*
X97536000Y-74676000D03*
X94996000Y-74676000D03*
X107696000Y-46990000D03*
X107696000Y-44450000D03*
D11*
X107696000Y-41910000D03*
D10*
X99060000Y-46990000D03*
X99060000Y-44450000D03*
D11*
X99060000Y-41910000D03*
D10*
X95250000Y-46990000D03*
X95250000Y-44450000D03*
D11*
X95250000Y-41910000D03*
D10*
X86614000Y-46990000D03*
X86614000Y-44450000D03*
D11*
X86614000Y-41910000D03*
D10*
X82804000Y-46990000D03*
X82804000Y-44450000D03*
D11*
X82804000Y-41910000D03*
D10*
X76708000Y-46990000D03*
X76708000Y-44450000D03*
D11*
X76708000Y-41910000D03*
D10*
X70358000Y-46990000D03*
X70358000Y-44450000D03*
D11*
X70358000Y-41910000D03*
D10*
X61722000Y-46990000D03*
X61722000Y-44450000D03*
D11*
X61722000Y-41910000D03*
D10*
X55626000Y-46990000D03*
X55626000Y-44450000D03*
D11*
X55626000Y-41910000D03*
D10*
X51816000Y-46990000D03*
X51816000Y-44450000D03*
D11*
X51816000Y-41910000D03*
D10*
X45466000Y-46990000D03*
X45466000Y-44450000D03*
D11*
X45466000Y-41910000D03*
D10*
X39354200Y-47000600D03*
X39354200Y-44460600D03*
D11*
X39354200Y-41920600D03*
D10*
X102362000Y-124206000D03*
X102362000Y-126746000D03*
D11*
X102362000Y-129286000D03*
D10*
X98552000Y-124206000D03*
X98552000Y-126746000D03*
D11*
X98552000Y-129286000D03*
D10*
X88900000Y-124206000D03*
X88900000Y-126746000D03*
D11*
X88900000Y-129286000D03*
D10*
X85090000Y-124206000D03*
X85090000Y-126746000D03*
D11*
X85090000Y-129286000D03*
D10*
X76454000Y-124206000D03*
X76454000Y-126746000D03*
D11*
X76454000Y-129286000D03*
D10*
X72644000Y-124206000D03*
X72644000Y-126746000D03*
D11*
X72644000Y-129286000D03*
D10*
X62738000Y-124206000D03*
X62738000Y-126746000D03*
D11*
X62738000Y-129286000D03*
D10*
X58928000Y-124206000D03*
X58928000Y-126746000D03*
D11*
X58928000Y-129286000D03*
D10*
X50292000Y-124206000D03*
X50292000Y-126746000D03*
D11*
X50292000Y-129286000D03*
D10*
X46482000Y-124206000D03*
X46482000Y-126746000D03*
D11*
X46482000Y-129286000D03*
D10*
X37846000Y-124206000D03*
X37846000Y-126746000D03*
D11*
X37846000Y-129286000D03*
D10*
X123444000Y-104902000D03*
X123444000Y-102362000D03*
X123444000Y-99822000D03*
X123444000Y-97282000D03*
X123444000Y-94742000D03*
X123444000Y-92202000D03*
X123444000Y-89662000D03*
X123444000Y-87122000D03*
X123444000Y-84582000D03*
X123444000Y-82042000D03*
X123444000Y-79502000D03*
X123444000Y-76962000D03*
X123444000Y-74422000D03*
X123444000Y-71882000D03*
X123444000Y-69342000D03*
X123444000Y-66802000D03*
X123444000Y-64262000D03*
X123444000Y-61722000D03*
X123444000Y-59182000D03*
X123444000Y-56642000D03*
X123444000Y-54102000D03*
X123444000Y-51562000D03*
X123444000Y-49022000D03*
X123444000Y-46482000D03*
X123444000Y-43942000D03*
D11*
X123444000Y-41402000D03*
D10*
X55880000Y-119126000D03*
X55880000Y-126746000D03*
X53340000Y-119126000D03*
X53340000Y-126746000D03*
X43434000Y-119126000D03*
X43434000Y-126746000D03*
X40894000Y-119126000D03*
X40894000Y-126746000D03*
X30988000Y-119126000D03*
X30988000Y-126746000D03*
X36322000Y-52070000D03*
X36322000Y-44450000D03*
X42418000Y-52070000D03*
X42418000Y-44450000D03*
X48768000Y-52070000D03*
X48768000Y-44450000D03*
X58674000Y-52070000D03*
X58674000Y-44450000D03*
X60706000Y-102108000D03*
X53086000Y-102108000D03*
X60706000Y-99568000D03*
X53086000Y-99568000D03*
X44958000Y-99568000D03*
X37338000Y-99568000D03*
X60706000Y-92964000D03*
X68326000Y-92964000D03*
X60706000Y-95504000D03*
X68326000Y-95504000D03*
X84074000Y-95504000D03*
X76454000Y-95504000D03*
X84074000Y-98044000D03*
X76454000Y-98044000D03*
X60960000Y-67310000D03*
X68580000Y-67310000D03*
X60960000Y-69850000D03*
X68580000Y-69850000D03*
X85852000Y-69850000D03*
X78232000Y-69850000D03*
X85852000Y-72390000D03*
X78232000Y-72390000D03*
X84328000Y-88900000D03*
X91948000Y-88900000D03*
X84328000Y-91440000D03*
X91948000Y-91440000D03*
X107696000Y-91694000D03*
X100076000Y-91694000D03*
X107696000Y-93980000D03*
X100076000Y-93980000D03*
X84468000Y-59436000D03*
X92088000Y-59436000D03*
X84468000Y-61976000D03*
X92088000Y-61976000D03*
X109982000Y-61976000D03*
X102362000Y-61976000D03*
X109982000Y-64516000D03*
X102362000Y-64516000D03*
X37391000Y-73198500D03*
X45011000Y-73198500D03*
X37391000Y-75692000D03*
X45011000Y-75692000D03*
X63045000Y-75738500D03*
X55425000Y-75738500D03*
X63045000Y-78278500D03*
X55425000Y-78278500D03*
X37338000Y-97028000D03*
X44958000Y-97028000D03*
X66040000Y-119126000D03*
X66040000Y-126746000D03*
X69596000Y-119126000D03*
X69596000Y-126746000D03*
X79502000Y-119126000D03*
X79502000Y-126746000D03*
X79756000Y-52070000D03*
X79756000Y-44450000D03*
X73660000Y-52070000D03*
X73660000Y-44450000D03*
X67310000Y-52070000D03*
X67310000Y-44450000D03*
X64770000Y-52070000D03*
X64770000Y-44450000D03*
X82042000Y-119126000D03*
X82042000Y-126746000D03*
X91948000Y-119126000D03*
X91948000Y-126746000D03*
X95504000Y-119126000D03*
X95504000Y-126746000D03*
X105410000Y-119126000D03*
X105410000Y-126746000D03*
X104648000Y-44450000D03*
X104648000Y-52070000D03*
X102108000Y-44450000D03*
X102108000Y-52070000D03*
X92202000Y-44450000D03*
X92202000Y-52070000D03*
X89662000Y-44450000D03*
X89662000Y-52070000D03*
D11*
X34036000Y-129286000D03*
D10*
X34036000Y-126746000D03*
X34036000Y-124206000D03*
D12*
X116078000Y-41656000D02*
X123444000Y-49022000D01*
X66294000Y-136652000D02*
X58928000Y-129286000D01*
X106172000Y-136652000D02*
X66294000Y-136652000D01*
X113792000Y-129032000D02*
X106172000Y-136652000D01*
X123444000Y-94742000D02*
X113792000Y-104394000D01*
X113792000Y-104394000D02*
X113792000Y-129032000D01*
X53086000Y-34290000D02*
X45466000Y-41910000D01*
X116078000Y-38354000D02*
X112014000Y-34290000D01*
X116078000Y-38354000D02*
X116078000Y-41656000D01*
X112014000Y-34290000D02*
X53086000Y-34290000D01*
X35151500Y-83058000D02*
X35990750Y-82218750D01*
X31623000Y-83058000D02*
X35151500Y-83058000D01*
X35990750Y-82218750D02*
X45011000Y-73198500D01*
X52764400Y-67875990D02*
X57404000Y-72515590D01*
X57404000Y-76299500D02*
X55425000Y-78278500D01*
X57404000Y-72515590D02*
X57404000Y-76299500D01*
X38675600Y-67875990D02*
X38919990Y-67875990D01*
X35617991Y-70933599D02*
X38675600Y-67875990D01*
X35617990Y-73983010D02*
X35617991Y-70933599D01*
X31623000Y-77978000D02*
X35617990Y-73983010D01*
X38919990Y-67875990D02*
X52764400Y-67875990D01*
X55425000Y-71173000D02*
X52578000Y-68326000D01*
X55425000Y-75738500D02*
X55425000Y-71173000D01*
X31623000Y-80518000D02*
X36068000Y-76073000D01*
X36068000Y-76073000D02*
X36068000Y-71120000D01*
X38862000Y-68326000D02*
X39116000Y-68326000D01*
X36068000Y-71120000D02*
X38862000Y-68326000D01*
X39116000Y-68326000D02*
X52578000Y-68326000D01*
X64770000Y-109474000D02*
X64770000Y-96520000D01*
X64770000Y-96520000D02*
X68326000Y-92964000D01*
X59747990Y-114496010D02*
X64770000Y-109474000D01*
X46170010Y-114496010D02*
X59747990Y-114496010D01*
X31623000Y-98298000D02*
X34163000Y-100838000D01*
X34163000Y-102489000D02*
X46170010Y-114496010D01*
X34163000Y-100838000D02*
X34163000Y-102489000D01*
X76454000Y-109728000D02*
X76454000Y-98044000D01*
X45797208Y-115396028D02*
X70785972Y-115396028D01*
X70785972Y-115396028D02*
X76454000Y-109728000D01*
X33779180Y-103378000D02*
X35622090Y-105220910D01*
X35622090Y-105220910D02*
X45797208Y-115396028D01*
X33779180Y-103378000D02*
X34796590Y-104395410D01*
X31623000Y-103378000D02*
X33779180Y-103378000D01*
X34394961Y-103993781D02*
X34796590Y-104395410D01*
X34796590Y-104395410D02*
X35622090Y-105220910D01*
X78740000Y-97790000D02*
X76454000Y-95504000D01*
X31623000Y-105918000D02*
X35682770Y-105918000D01*
X35682770Y-105918000D02*
X45610808Y-115846038D01*
X45610808Y-115846038D02*
X70972373Y-115846037D01*
X70972373Y-115846037D02*
X78740000Y-108078410D01*
X78740000Y-108078410D02*
X78740000Y-97790000D01*
X78232000Y-69850000D02*
X78232000Y-65024000D01*
X78232000Y-65024000D02*
X75819000Y-62611000D01*
X39370000Y-62611000D02*
X42545000Y-62611000D01*
X31623000Y-70358000D02*
X39370000Y-62611000D01*
X75819000Y-62611000D02*
X42545000Y-62611000D01*
X78232000Y-72390000D02*
X80010000Y-70612000D01*
X80010000Y-70612000D02*
X80010000Y-66165590D01*
X80010000Y-66165590D02*
X78677205Y-64832795D01*
X76005401Y-62160991D02*
X78677205Y-64832795D01*
X78677205Y-64832795D02*
X79121000Y-65276590D01*
X37280009Y-62160991D02*
X38284991Y-62160991D01*
X31623000Y-67818000D02*
X37280009Y-62160991D01*
X38284991Y-62160991D02*
X76005401Y-62160991D01*
X64262000Y-65532000D02*
X68580000Y-69850000D01*
X40383180Y-65532000D02*
X41402000Y-65532000D01*
X35167982Y-70747198D02*
X40383180Y-65532000D01*
X35167982Y-71893018D02*
X35167982Y-70747198D01*
X31623000Y-75438000D02*
X35167982Y-71893018D01*
X41402000Y-65532000D02*
X64262000Y-65532000D01*
X39439009Y-65081991D02*
X66351991Y-65081991D01*
X31623000Y-72898000D02*
X39439009Y-65081991D01*
X66351991Y-65081991D02*
X66802000Y-65532000D01*
X66351990Y-65081990D02*
X66802000Y-65532000D01*
X66802000Y-65532000D02*
X68580000Y-67310000D01*
X71158774Y-116296046D02*
X88138000Y-99316820D01*
X45424409Y-116296047D02*
X71158774Y-116296046D01*
X88138000Y-92710000D02*
X91948000Y-88900000D01*
X88138000Y-99316820D02*
X88138000Y-92710000D01*
X37586360Y-108458000D02*
X38414680Y-109286320D01*
X37586362Y-108458000D02*
X38605181Y-109476819D01*
X31623000Y-108458000D02*
X37586362Y-108458000D01*
X38414680Y-109286320D02*
X38605181Y-109476819D01*
X38605181Y-109476819D02*
X45424409Y-116296047D01*
X91948000Y-96143230D02*
X91948000Y-91440000D01*
X71345175Y-116746055D02*
X91948000Y-96143230D01*
X39489952Y-110998000D02*
X45238010Y-116746056D01*
X45238010Y-116746056D02*
X71345175Y-116746055D01*
X31623000Y-110998000D02*
X39489952Y-110998000D01*
X101727000Y-93345000D02*
X100076000Y-91694000D01*
X31623000Y-116078000D02*
X43297136Y-116078000D01*
X43297136Y-116078000D02*
X44865210Y-117646074D01*
X44865210Y-117646074D02*
X89238337Y-117646073D01*
X89238337Y-117646073D02*
X101727000Y-105157410D01*
X101727000Y-105157410D02*
X101727000Y-93345000D01*
X32512000Y-57658000D02*
X31623000Y-57658000D01*
X103886000Y-63246000D02*
X103886000Y-59053590D01*
X102362000Y-64770000D02*
X103886000Y-63246000D01*
X103886000Y-59053590D02*
X99246401Y-54413991D01*
X99246401Y-54413991D02*
X35756010Y-54413990D01*
X35756010Y-54413990D02*
X32512000Y-57658000D01*
X33100027Y-61260973D02*
X76378203Y-61260973D01*
X31623000Y-62738000D02*
X33100027Y-61260973D01*
X85738000Y-65786000D02*
X92088000Y-59436000D01*
X80903230Y-65786000D02*
X85738000Y-65786000D01*
X76378203Y-61260973D02*
X80903230Y-65786000D01*
X73660000Y-90424000D02*
X73660000Y-87884000D01*
X73660000Y-87884000D02*
X77978000Y-83566000D01*
X94450000Y-83566000D02*
X97291000Y-86407000D01*
X73660000Y-87884000D02*
X56896000Y-87884000D01*
X94450000Y-83566000D02*
X95250000Y-83566000D01*
X77978000Y-83566000D02*
X88900000Y-83566000D01*
X88900000Y-83566000D02*
X94450000Y-83566000D01*
X50292000Y-94488000D02*
X56896000Y-87884000D01*
X74073000Y-64817000D02*
X76454000Y-67198000D01*
X76454000Y-82042000D02*
X77978000Y-83566000D01*
X76454000Y-67198000D02*
X76454000Y-82042000D01*
X99695000Y-79121000D02*
X99695000Y-57785000D01*
X95250000Y-83566000D02*
X99695000Y-79121000D01*
X51520001Y-71833501D02*
X51520001Y-71840001D01*
X50345000Y-70658500D02*
X51520001Y-71833501D01*
X51520001Y-71840001D02*
X52832000Y-73152000D01*
X52832000Y-83820000D02*
X56896000Y-87884000D01*
X52832000Y-73152000D02*
X52832000Y-83820000D01*
X117983000Y-38481000D02*
X123444000Y-43942000D01*
X38042010Y-33331990D02*
X112833990Y-33331990D01*
X112833990Y-33331990D02*
X117983000Y-38481000D01*
X29083000Y-42291000D02*
X38042010Y-33331990D01*
X29083000Y-55118000D02*
X29083000Y-42291000D01*
X98806000Y-56896000D02*
X99695000Y-57785000D01*
X97536000Y-56896000D02*
X98806000Y-56896000D01*
X35105000Y-85598000D02*
X35459500Y-85243500D01*
X31623000Y-85598000D02*
X35105000Y-85598000D01*
X35459500Y-85243500D02*
X45011000Y-75692000D01*
X59182000Y-97028000D02*
X60706000Y-95504000D01*
X50292000Y-97028000D02*
X59182000Y-97028000D01*
X37338000Y-101854000D02*
X47752000Y-112268000D01*
X37338000Y-99568000D02*
X37338000Y-101854000D01*
X47752000Y-112268000D02*
X49530000Y-114046000D01*
X49530000Y-114046000D02*
X52578000Y-114046000D01*
X60706000Y-105918000D02*
X60706000Y-102108000D01*
X52578000Y-114046000D02*
X60706000Y-105918000D01*
X39931000Y-70658500D02*
X37391000Y-73198500D01*
X47805000Y-70658500D02*
X39931000Y-70658500D01*
X31623000Y-55118000D02*
X31623000Y-49403000D01*
X34025400Y-47000600D02*
X39354200Y-47000600D01*
X31623000Y-49403000D02*
X34025400Y-47000600D01*
X87008000Y-56896000D02*
X85668000Y-58236000D01*
X84468000Y-59436000D02*
X85668000Y-58236000D01*
X94996000Y-56896000D02*
X87008000Y-56896000D01*
X85668000Y-58236000D02*
X86661000Y-57243000D01*
X65532000Y-98298000D02*
X68326000Y-95504000D01*
X65278000Y-98552000D02*
X65532000Y-98298000D01*
X31875590Y-100838000D02*
X45983610Y-114946020D01*
X45983610Y-114946020D02*
X59934391Y-114946019D01*
X59934391Y-114946019D02*
X65278000Y-109602410D01*
X31623000Y-100838000D02*
X31875590Y-100838000D01*
X65278000Y-109602410D02*
X65278000Y-98552000D01*
X100076000Y-106172000D02*
X100076000Y-93980000D01*
X89051936Y-117196064D02*
X100076000Y-106172000D01*
X45051609Y-117196065D02*
X89051936Y-117196064D01*
X41393542Y-113538000D02*
X45051609Y-117196065D01*
X31623000Y-113538000D02*
X41393542Y-113538000D01*
X76191802Y-61710982D02*
X80772000Y-66291180D01*
X31623000Y-65278000D02*
X35190019Y-61710981D01*
X35190019Y-61710981D02*
X76191802Y-61710982D01*
X92088000Y-61976000D02*
X87772820Y-66291180D01*
X80772000Y-66291180D02*
X86865180Y-66291180D01*
X87772820Y-66291180D02*
X86865180Y-66291180D01*
X99060000Y-54864000D02*
X102362000Y-58166000D01*
X102362000Y-58166000D02*
X102362000Y-62230000D01*
X38608000Y-54864000D02*
X99060000Y-54864000D01*
X33274000Y-60198000D02*
X38608000Y-54864000D01*
X31623000Y-60198000D02*
X33274000Y-60198000D01*
X116586000Y-39624000D02*
X123444000Y-46482000D01*
X116586000Y-38100000D02*
X116586000Y-39624000D01*
X112268000Y-33782000D02*
X116586000Y-38100000D01*
X47492800Y-33782000D02*
X112268000Y-33782000D01*
X39354200Y-41920600D02*
X47492800Y-33782000D01*
X115824000Y-130048000D02*
X115824000Y-112522000D01*
X115824000Y-112522000D02*
X123444000Y-104902000D01*
X107188000Y-138684000D02*
X115824000Y-130048000D01*
X43434000Y-138684000D02*
X107188000Y-138684000D01*
X43434000Y-138684000D02*
X34036000Y-129286000D01*
X46736000Y-138176000D02*
X37846000Y-129286000D01*
X115316000Y-129794000D02*
X106934000Y-138176000D01*
X123444000Y-102362000D02*
X115316000Y-110490000D01*
X106934000Y-138176000D02*
X46736000Y-138176000D01*
X115316000Y-110490000D02*
X115316000Y-129794000D01*
X105918000Y-136144000D02*
X69596000Y-136144000D01*
X113284000Y-128778000D02*
X105918000Y-136144000D01*
X123444000Y-92202000D02*
X113284000Y-102362000D01*
X69596000Y-136144000D02*
X62738000Y-129286000D01*
X113284000Y-102362000D02*
X113284000Y-128778000D01*
X114046000Y-49784000D02*
X123444000Y-59182000D01*
X114046000Y-39370000D02*
X114046000Y-49784000D01*
X110998000Y-36322000D02*
X114046000Y-39370000D01*
X75946000Y-36322000D02*
X110998000Y-36322000D01*
X70358000Y-41910000D02*
X75946000Y-36322000D01*
X114554000Y-47752000D02*
X123444000Y-56642000D01*
X67818000Y-35814000D02*
X61722000Y-41910000D01*
X114554000Y-39116000D02*
X111252000Y-35814000D01*
X111252000Y-35814000D02*
X67818000Y-35814000D01*
X114554000Y-39116000D02*
X114554000Y-47752000D01*
X90424000Y-134620000D02*
X85090000Y-129286000D01*
X111760000Y-128016000D02*
X105156000Y-134620000D01*
X105156000Y-134620000D02*
X90424000Y-134620000D01*
X123444000Y-84582000D02*
X111760000Y-96266000D01*
X111760000Y-96266000D02*
X111760000Y-128016000D01*
X111252000Y-94234000D02*
X111252000Y-95250000D01*
X123444000Y-82042000D02*
X111252000Y-94234000D01*
X111252000Y-95250000D02*
X111252000Y-94996000D01*
X104902000Y-134112000D02*
X93726000Y-134112000D01*
X111252000Y-95250000D02*
X111252000Y-127762000D01*
X93726000Y-134112000D02*
X88900000Y-129286000D01*
X111252000Y-127762000D02*
X104902000Y-134112000D01*
X112014000Y-57912000D02*
X123444000Y-69342000D01*
X98806000Y-38354000D02*
X95250000Y-41910000D01*
X109982000Y-38354000D02*
X112014000Y-40386000D01*
X112014000Y-40386000D02*
X112014000Y-57912000D01*
X109982000Y-38354000D02*
X98806000Y-38354000D01*
X112522000Y-55880000D02*
X123444000Y-66802000D01*
X112522000Y-53340000D02*
X112522000Y-55880000D01*
X112522000Y-40132000D02*
X110236000Y-37846000D01*
X112522000Y-40132000D02*
X112522000Y-53340000D01*
X86614000Y-41910000D02*
X90678000Y-37846000D01*
X110236000Y-37846000D02*
X90678000Y-37846000D01*
X111760000Y-34798000D02*
X58928000Y-34798000D01*
X115570000Y-38608000D02*
X111760000Y-34798000D01*
X115570000Y-43688000D02*
X115570000Y-38608000D01*
X58928000Y-34798000D02*
X51816000Y-41910000D01*
X123444000Y-51562000D02*
X115570000Y-43688000D01*
X115062000Y-38862000D02*
X115062000Y-45720000D01*
X115062000Y-45720000D02*
X123444000Y-54102000D01*
X111506000Y-35306000D02*
X115062000Y-38862000D01*
X62230000Y-35306000D02*
X111506000Y-35306000D01*
X55626000Y-41910000D02*
X62230000Y-35306000D01*
X106426000Y-137160000D02*
X58166000Y-137160000D01*
X114300000Y-129286000D02*
X106426000Y-137160000D01*
X123444000Y-97282000D02*
X114300000Y-106426000D01*
X58166000Y-137160000D02*
X50292000Y-129286000D01*
X114300000Y-106426000D02*
X114300000Y-129286000D01*
X54864000Y-137668000D02*
X46482000Y-129286000D01*
X114808000Y-129540000D02*
X106680000Y-137668000D01*
X123444000Y-99822000D02*
X114808000Y-108458000D01*
X106680000Y-137668000D02*
X54864000Y-137668000D01*
X114808000Y-108458000D02*
X114808000Y-129540000D01*
X78994000Y-135636000D02*
X72644000Y-129286000D01*
X105664000Y-135636000D02*
X78994000Y-135636000D01*
X112776000Y-128524000D02*
X105664000Y-135636000D01*
X123444000Y-89662000D02*
X112776000Y-100330000D01*
X112776000Y-100330000D02*
X112776000Y-128524000D01*
X112268000Y-128270000D02*
X105410000Y-135128000D01*
X82296000Y-135128000D02*
X76454000Y-129286000D01*
X105410000Y-135128000D02*
X82296000Y-135128000D01*
X123444000Y-87122000D02*
X112268000Y-98298000D01*
X112268000Y-98298000D02*
X112268000Y-128270000D01*
X113538000Y-51816000D02*
X123444000Y-61722000D01*
X81788000Y-36830000D02*
X76708000Y-41910000D01*
X113538000Y-39624000D02*
X110744000Y-36830000D01*
X110744000Y-36830000D02*
X81788000Y-36830000D01*
X113538000Y-39624000D02*
X113538000Y-51816000D01*
X113030000Y-53848000D02*
X123444000Y-64262000D01*
X87376000Y-37338000D02*
X82804000Y-41910000D01*
X113030000Y-39878000D02*
X110490000Y-37338000D01*
X110490000Y-37338000D02*
X87376000Y-37338000D01*
X113030000Y-39878000D02*
X113030000Y-53848000D01*
X110236000Y-90170000D02*
X123444000Y-76962000D01*
X110236000Y-122428000D02*
X110236000Y-90170000D01*
X110236000Y-122682000D02*
X110236000Y-122428000D01*
X102362000Y-129286000D02*
X108204000Y-129286000D01*
X108204000Y-129286000D02*
X110236000Y-127254000D01*
X110236000Y-127254000D02*
X110236000Y-123698000D01*
X110236000Y-122428000D02*
X110236000Y-123698000D01*
X110236000Y-123698000D02*
X110236000Y-123952000D01*
X104648000Y-133604000D02*
X110744000Y-127508000D01*
X110744000Y-92202000D02*
X123444000Y-79502000D01*
X110744000Y-127508000D02*
X110744000Y-92202000D01*
X98552000Y-129286000D02*
X98552000Y-131572000D01*
X98552000Y-131572000D02*
X100584000Y-133604000D01*
X100584000Y-133604000D02*
X104648000Y-133604000D01*
X114046000Y-74422000D02*
X123444000Y-74422000D01*
X107696000Y-41910000D02*
X109220000Y-41910000D01*
X109220000Y-41910000D02*
X109728000Y-42418000D01*
X109728000Y-42418000D02*
X109728000Y-57658000D01*
X107442000Y-59944000D02*
X107442000Y-67818000D01*
X109728000Y-57658000D02*
X107442000Y-59944000D01*
X107442000Y-67818000D02*
X114046000Y-74422000D01*
X111506000Y-59944000D02*
X123444000Y-71882000D01*
X102108000Y-38862000D02*
X99060000Y-41910000D01*
X109728000Y-38862000D02*
X111506000Y-40640000D01*
X109728000Y-38862000D02*
X102108000Y-38862000D01*
X111506000Y-40640000D02*
X111506000Y-59944000D01*
M02*
