G04 #@! TF.GenerationSoftware,KiCad,Pcbnew,(5.1.6)-1*
G04 #@! TF.CreationDate,2020-12-09T17:55:00+01:00*
G04 #@! TF.ProjectId,Rolety Bart_omiej Torczy_o,526f6c65-7479-4204-9261-7274426f6d69,rev?*
G04 #@! TF.SameCoordinates,Original*
G04 #@! TF.FileFunction,Legend,Top*
G04 #@! TF.FilePolarity,Positive*
%FSLAX46Y46*%
G04 Gerber Fmt 4.6, Leading zero omitted, Abs format (unit mm)*
G04 Created by KiCad (PCBNEW (5.1.6)-1) date 2020-12-09 17:55:00*
%MOMM*%
%LPD*%
G01*
G04 APERTURE LIST*
%ADD10C,0.120000*%
%ADD11C,0.150000*%
G04 APERTURE END LIST*
D10*
X22352000Y-117348000D02*
X21022000Y-117348000D01*
X21022000Y-117348000D02*
X21022000Y-116018000D01*
X23622000Y-117348000D02*
X23622000Y-114748000D01*
X23622000Y-114748000D02*
X21022000Y-114748000D01*
X21022000Y-114748000D02*
X21022000Y-56268000D01*
X26222000Y-56268000D02*
X21022000Y-56268000D01*
X26222000Y-117348000D02*
X26222000Y-56268000D01*
X26222000Y-117348000D02*
X23622000Y-117348000D01*
X93412000Y-85077000D02*
X96012000Y-85077000D01*
X93412000Y-85077000D02*
X93412000Y-105517000D01*
X93412000Y-105517000D02*
X98612000Y-105517000D01*
X98612000Y-87677000D02*
X98612000Y-105517000D01*
X96012000Y-87677000D02*
X98612000Y-87677000D01*
X96012000Y-85077000D02*
X96012000Y-87677000D01*
X98612000Y-85077000D02*
X98612000Y-86407000D01*
X97282000Y-85077000D02*
X98612000Y-85077000D01*
X70044000Y-89094000D02*
X72644000Y-89094000D01*
X70044000Y-89094000D02*
X70044000Y-109534000D01*
X70044000Y-109534000D02*
X75244000Y-109534000D01*
X75244000Y-91694000D02*
X75244000Y-109534000D01*
X72644000Y-91694000D02*
X75244000Y-91694000D01*
X72644000Y-89094000D02*
X72644000Y-91694000D01*
X75244000Y-89094000D02*
X75244000Y-90424000D01*
X73914000Y-89094000D02*
X75244000Y-89094000D01*
X46676000Y-93158000D02*
X49276000Y-93158000D01*
X46676000Y-93158000D02*
X46676000Y-113598000D01*
X46676000Y-113598000D02*
X51876000Y-113598000D01*
X51876000Y-95758000D02*
X51876000Y-113598000D01*
X49276000Y-95758000D02*
X51876000Y-95758000D01*
X49276000Y-93158000D02*
X49276000Y-95758000D01*
X51876000Y-93158000D02*
X51876000Y-94488000D01*
X50546000Y-93158000D02*
X51876000Y-93158000D01*
X70298000Y-63487000D02*
X72898000Y-63487000D01*
X70298000Y-63487000D02*
X70298000Y-83927000D01*
X70298000Y-83927000D02*
X75498000Y-83927000D01*
X75498000Y-66087000D02*
X75498000Y-83927000D01*
X72898000Y-66087000D02*
X75498000Y-66087000D01*
X72898000Y-63487000D02*
X72898000Y-66087000D01*
X75498000Y-63487000D02*
X75498000Y-64817000D01*
X74168000Y-63487000D02*
X75498000Y-63487000D01*
X46676000Y-69328500D02*
X49276000Y-69328500D01*
X46676000Y-69328500D02*
X46676000Y-89768500D01*
X46676000Y-89768500D02*
X51876000Y-89768500D01*
X51876000Y-71928500D02*
X51876000Y-89768500D01*
X49276000Y-71928500D02*
X51876000Y-71928500D01*
X49276000Y-69328500D02*
X49276000Y-71928500D01*
X51876000Y-69328500D02*
X51876000Y-70658500D01*
X50546000Y-69328500D02*
X51876000Y-69328500D01*
X31242000Y-53788000D02*
X32572000Y-53788000D01*
X32572000Y-53788000D02*
X32572000Y-55118000D01*
X29972000Y-53788000D02*
X29972000Y-56388000D01*
X29972000Y-56388000D02*
X32572000Y-56388000D01*
X32572000Y-56388000D02*
X32572000Y-117408000D01*
X27372000Y-117408000D02*
X32572000Y-117408000D01*
X27372000Y-53788000D02*
X27372000Y-117408000D01*
X27372000Y-53788000D02*
X29972000Y-53788000D01*
X93666000Y-55566000D02*
X96266000Y-55566000D01*
X93666000Y-55566000D02*
X93666000Y-76006000D01*
X93666000Y-76006000D02*
X98866000Y-76006000D01*
X98866000Y-58166000D02*
X98866000Y-76006000D01*
X96266000Y-58166000D02*
X98866000Y-58166000D01*
X96266000Y-55566000D02*
X96266000Y-58166000D01*
X98866000Y-55566000D02*
X98866000Y-56896000D01*
X97536000Y-55566000D02*
X98866000Y-55566000D01*
X106366000Y-43180000D02*
X109026000Y-43180000D01*
X106366000Y-43180000D02*
X106366000Y-48320000D01*
X106366000Y-48320000D02*
X109026000Y-48320000D01*
X109026000Y-43180000D02*
X109026000Y-48320000D01*
X109026000Y-40580000D02*
X109026000Y-41910000D01*
X107696000Y-40580000D02*
X109026000Y-40580000D01*
X97730000Y-43180000D02*
X100390000Y-43180000D01*
X97730000Y-43180000D02*
X97730000Y-48320000D01*
X97730000Y-48320000D02*
X100390000Y-48320000D01*
X100390000Y-43180000D02*
X100390000Y-48320000D01*
X100390000Y-40580000D02*
X100390000Y-41910000D01*
X99060000Y-40580000D02*
X100390000Y-40580000D01*
X93920000Y-43180000D02*
X96580000Y-43180000D01*
X93920000Y-43180000D02*
X93920000Y-48320000D01*
X93920000Y-48320000D02*
X96580000Y-48320000D01*
X96580000Y-43180000D02*
X96580000Y-48320000D01*
X96580000Y-40580000D02*
X96580000Y-41910000D01*
X95250000Y-40580000D02*
X96580000Y-40580000D01*
X85284000Y-43180000D02*
X87944000Y-43180000D01*
X85284000Y-43180000D02*
X85284000Y-48320000D01*
X85284000Y-48320000D02*
X87944000Y-48320000D01*
X87944000Y-43180000D02*
X87944000Y-48320000D01*
X87944000Y-40580000D02*
X87944000Y-41910000D01*
X86614000Y-40580000D02*
X87944000Y-40580000D01*
X81474000Y-43180000D02*
X84134000Y-43180000D01*
X81474000Y-43180000D02*
X81474000Y-48320000D01*
X81474000Y-48320000D02*
X84134000Y-48320000D01*
X84134000Y-43180000D02*
X84134000Y-48320000D01*
X84134000Y-40580000D02*
X84134000Y-41910000D01*
X82804000Y-40580000D02*
X84134000Y-40580000D01*
X75378000Y-43180000D02*
X78038000Y-43180000D01*
X75378000Y-43180000D02*
X75378000Y-48320000D01*
X75378000Y-48320000D02*
X78038000Y-48320000D01*
X78038000Y-43180000D02*
X78038000Y-48320000D01*
X78038000Y-40580000D02*
X78038000Y-41910000D01*
X76708000Y-40580000D02*
X78038000Y-40580000D01*
X69028000Y-43180000D02*
X71688000Y-43180000D01*
X69028000Y-43180000D02*
X69028000Y-48320000D01*
X69028000Y-48320000D02*
X71688000Y-48320000D01*
X71688000Y-43180000D02*
X71688000Y-48320000D01*
X71688000Y-40580000D02*
X71688000Y-41910000D01*
X70358000Y-40580000D02*
X71688000Y-40580000D01*
X60392000Y-43180000D02*
X63052000Y-43180000D01*
X60392000Y-43180000D02*
X60392000Y-48320000D01*
X60392000Y-48320000D02*
X63052000Y-48320000D01*
X63052000Y-43180000D02*
X63052000Y-48320000D01*
X63052000Y-40580000D02*
X63052000Y-41910000D01*
X61722000Y-40580000D02*
X63052000Y-40580000D01*
X54296000Y-43180000D02*
X56956000Y-43180000D01*
X54296000Y-43180000D02*
X54296000Y-48320000D01*
X54296000Y-48320000D02*
X56956000Y-48320000D01*
X56956000Y-43180000D02*
X56956000Y-48320000D01*
X56956000Y-40580000D02*
X56956000Y-41910000D01*
X55626000Y-40580000D02*
X56956000Y-40580000D01*
X50486000Y-43180000D02*
X53146000Y-43180000D01*
X50486000Y-43180000D02*
X50486000Y-48320000D01*
X50486000Y-48320000D02*
X53146000Y-48320000D01*
X53146000Y-43180000D02*
X53146000Y-48320000D01*
X53146000Y-40580000D02*
X53146000Y-41910000D01*
X51816000Y-40580000D02*
X53146000Y-40580000D01*
X44136000Y-43180000D02*
X46796000Y-43180000D01*
X44136000Y-43180000D02*
X44136000Y-48320000D01*
X44136000Y-48320000D02*
X46796000Y-48320000D01*
X46796000Y-43180000D02*
X46796000Y-48320000D01*
X46796000Y-40580000D02*
X46796000Y-41910000D01*
X45466000Y-40580000D02*
X46796000Y-40580000D01*
X38024200Y-43190600D02*
X40684200Y-43190600D01*
X38024200Y-43190600D02*
X38024200Y-48330600D01*
X38024200Y-48330600D02*
X40684200Y-48330600D01*
X40684200Y-43190600D02*
X40684200Y-48330600D01*
X40684200Y-40590600D02*
X40684200Y-41920600D01*
X39354200Y-40590600D02*
X40684200Y-40590600D01*
X103692000Y-128016000D02*
X101032000Y-128016000D01*
X103692000Y-128016000D02*
X103692000Y-122876000D01*
X103692000Y-122876000D02*
X101032000Y-122876000D01*
X101032000Y-128016000D02*
X101032000Y-122876000D01*
X101032000Y-130616000D02*
X101032000Y-129286000D01*
X102362000Y-130616000D02*
X101032000Y-130616000D01*
X99882000Y-128016000D02*
X97222000Y-128016000D01*
X99882000Y-128016000D02*
X99882000Y-122876000D01*
X99882000Y-122876000D02*
X97222000Y-122876000D01*
X97222000Y-128016000D02*
X97222000Y-122876000D01*
X97222000Y-130616000D02*
X97222000Y-129286000D01*
X98552000Y-130616000D02*
X97222000Y-130616000D01*
X90230000Y-128016000D02*
X87570000Y-128016000D01*
X90230000Y-128016000D02*
X90230000Y-122876000D01*
X90230000Y-122876000D02*
X87570000Y-122876000D01*
X87570000Y-128016000D02*
X87570000Y-122876000D01*
X87570000Y-130616000D02*
X87570000Y-129286000D01*
X88900000Y-130616000D02*
X87570000Y-130616000D01*
X86420000Y-128016000D02*
X83760000Y-128016000D01*
X86420000Y-128016000D02*
X86420000Y-122876000D01*
X86420000Y-122876000D02*
X83760000Y-122876000D01*
X83760000Y-128016000D02*
X83760000Y-122876000D01*
X83760000Y-130616000D02*
X83760000Y-129286000D01*
X85090000Y-130616000D02*
X83760000Y-130616000D01*
X77784000Y-128016000D02*
X75124000Y-128016000D01*
X77784000Y-128016000D02*
X77784000Y-122876000D01*
X77784000Y-122876000D02*
X75124000Y-122876000D01*
X75124000Y-128016000D02*
X75124000Y-122876000D01*
X75124000Y-130616000D02*
X75124000Y-129286000D01*
X76454000Y-130616000D02*
X75124000Y-130616000D01*
X73974000Y-128016000D02*
X71314000Y-128016000D01*
X73974000Y-128016000D02*
X73974000Y-122876000D01*
X73974000Y-122876000D02*
X71314000Y-122876000D01*
X71314000Y-128016000D02*
X71314000Y-122876000D01*
X71314000Y-130616000D02*
X71314000Y-129286000D01*
X72644000Y-130616000D02*
X71314000Y-130616000D01*
X64068000Y-128016000D02*
X61408000Y-128016000D01*
X64068000Y-128016000D02*
X64068000Y-122876000D01*
X64068000Y-122876000D02*
X61408000Y-122876000D01*
X61408000Y-128016000D02*
X61408000Y-122876000D01*
X61408000Y-130616000D02*
X61408000Y-129286000D01*
X62738000Y-130616000D02*
X61408000Y-130616000D01*
X60258000Y-128016000D02*
X57598000Y-128016000D01*
X60258000Y-128016000D02*
X60258000Y-122876000D01*
X60258000Y-122876000D02*
X57598000Y-122876000D01*
X57598000Y-128016000D02*
X57598000Y-122876000D01*
X57598000Y-130616000D02*
X57598000Y-129286000D01*
X58928000Y-130616000D02*
X57598000Y-130616000D01*
X51622000Y-128016000D02*
X48962000Y-128016000D01*
X51622000Y-128016000D02*
X51622000Y-122876000D01*
X51622000Y-122876000D02*
X48962000Y-122876000D01*
X48962000Y-128016000D02*
X48962000Y-122876000D01*
X48962000Y-130616000D02*
X48962000Y-129286000D01*
X50292000Y-130616000D02*
X48962000Y-130616000D01*
X47812000Y-128016000D02*
X45152000Y-128016000D01*
X47812000Y-128016000D02*
X47812000Y-122876000D01*
X47812000Y-122876000D02*
X45152000Y-122876000D01*
X45152000Y-128016000D02*
X45152000Y-122876000D01*
X45152000Y-130616000D02*
X45152000Y-129286000D01*
X46482000Y-130616000D02*
X45152000Y-130616000D01*
X39176000Y-128016000D02*
X36516000Y-128016000D01*
X39176000Y-128016000D02*
X39176000Y-122876000D01*
X39176000Y-122876000D02*
X36516000Y-122876000D01*
X36516000Y-128016000D02*
X36516000Y-122876000D01*
X36516000Y-130616000D02*
X36516000Y-129286000D01*
X37846000Y-130616000D02*
X36516000Y-130616000D01*
X122114000Y-42672000D02*
X124774000Y-42672000D01*
X122114000Y-42672000D02*
X122114000Y-106232000D01*
X122114000Y-106232000D02*
X124774000Y-106232000D01*
X124774000Y-42672000D02*
X124774000Y-106232000D01*
X124774000Y-40072000D02*
X124774000Y-41402000D01*
X123444000Y-40072000D02*
X124774000Y-40072000D01*
X54960000Y-124856000D02*
X56800000Y-124856000D01*
X56800000Y-124856000D02*
X56800000Y-121016000D01*
X56800000Y-121016000D02*
X54960000Y-121016000D01*
X54960000Y-121016000D02*
X54960000Y-124856000D01*
X55880000Y-125806000D02*
X55880000Y-124856000D01*
X55880000Y-120066000D02*
X55880000Y-121016000D01*
X52420000Y-124856000D02*
X54260000Y-124856000D01*
X54260000Y-124856000D02*
X54260000Y-121016000D01*
X54260000Y-121016000D02*
X52420000Y-121016000D01*
X52420000Y-121016000D02*
X52420000Y-124856000D01*
X53340000Y-125806000D02*
X53340000Y-124856000D01*
X53340000Y-120066000D02*
X53340000Y-121016000D01*
X42514000Y-124856000D02*
X44354000Y-124856000D01*
X44354000Y-124856000D02*
X44354000Y-121016000D01*
X44354000Y-121016000D02*
X42514000Y-121016000D01*
X42514000Y-121016000D02*
X42514000Y-124856000D01*
X43434000Y-125806000D02*
X43434000Y-124856000D01*
X43434000Y-120066000D02*
X43434000Y-121016000D01*
X39974000Y-124856000D02*
X41814000Y-124856000D01*
X41814000Y-124856000D02*
X41814000Y-121016000D01*
X41814000Y-121016000D02*
X39974000Y-121016000D01*
X39974000Y-121016000D02*
X39974000Y-124856000D01*
X40894000Y-125806000D02*
X40894000Y-124856000D01*
X40894000Y-120066000D02*
X40894000Y-121016000D01*
X30068000Y-124856000D02*
X31908000Y-124856000D01*
X31908000Y-124856000D02*
X31908000Y-121016000D01*
X31908000Y-121016000D02*
X30068000Y-121016000D01*
X30068000Y-121016000D02*
X30068000Y-124856000D01*
X30988000Y-125806000D02*
X30988000Y-124856000D01*
X30988000Y-120066000D02*
X30988000Y-121016000D01*
X37242000Y-46340000D02*
X35402000Y-46340000D01*
X35402000Y-46340000D02*
X35402000Y-50180000D01*
X35402000Y-50180000D02*
X37242000Y-50180000D01*
X37242000Y-50180000D02*
X37242000Y-46340000D01*
X36322000Y-45390000D02*
X36322000Y-46340000D01*
X36322000Y-51130000D02*
X36322000Y-50180000D01*
X43338000Y-46340000D02*
X41498000Y-46340000D01*
X41498000Y-46340000D02*
X41498000Y-50180000D01*
X41498000Y-50180000D02*
X43338000Y-50180000D01*
X43338000Y-50180000D02*
X43338000Y-46340000D01*
X42418000Y-45390000D02*
X42418000Y-46340000D01*
X42418000Y-51130000D02*
X42418000Y-50180000D01*
X49688000Y-46340000D02*
X47848000Y-46340000D01*
X47848000Y-46340000D02*
X47848000Y-50180000D01*
X47848000Y-50180000D02*
X49688000Y-50180000D01*
X49688000Y-50180000D02*
X49688000Y-46340000D01*
X48768000Y-45390000D02*
X48768000Y-46340000D01*
X48768000Y-51130000D02*
X48768000Y-50180000D01*
X59594000Y-46340000D02*
X57754000Y-46340000D01*
X57754000Y-46340000D02*
X57754000Y-50180000D01*
X57754000Y-50180000D02*
X59594000Y-50180000D01*
X59594000Y-50180000D02*
X59594000Y-46340000D01*
X58674000Y-45390000D02*
X58674000Y-46340000D01*
X58674000Y-51130000D02*
X58674000Y-50180000D01*
X54976000Y-101188000D02*
X54976000Y-103028000D01*
X54976000Y-103028000D02*
X58816000Y-103028000D01*
X58816000Y-103028000D02*
X58816000Y-101188000D01*
X58816000Y-101188000D02*
X54976000Y-101188000D01*
X54026000Y-102108000D02*
X54976000Y-102108000D01*
X59766000Y-102108000D02*
X58816000Y-102108000D01*
X54976000Y-98648000D02*
X54976000Y-100488000D01*
X54976000Y-100488000D02*
X58816000Y-100488000D01*
X58816000Y-100488000D02*
X58816000Y-98648000D01*
X58816000Y-98648000D02*
X54976000Y-98648000D01*
X54026000Y-99568000D02*
X54976000Y-99568000D01*
X59766000Y-99568000D02*
X58816000Y-99568000D01*
X39228000Y-98648000D02*
X39228000Y-100488000D01*
X39228000Y-100488000D02*
X43068000Y-100488000D01*
X43068000Y-100488000D02*
X43068000Y-98648000D01*
X43068000Y-98648000D02*
X39228000Y-98648000D01*
X38278000Y-99568000D02*
X39228000Y-99568000D01*
X44018000Y-99568000D02*
X43068000Y-99568000D01*
X66436000Y-93884000D02*
X66436000Y-92044000D01*
X66436000Y-92044000D02*
X62596000Y-92044000D01*
X62596000Y-92044000D02*
X62596000Y-93884000D01*
X62596000Y-93884000D02*
X66436000Y-93884000D01*
X67386000Y-92964000D02*
X66436000Y-92964000D01*
X61646000Y-92964000D02*
X62596000Y-92964000D01*
X66436000Y-96424000D02*
X66436000Y-94584000D01*
X66436000Y-94584000D02*
X62596000Y-94584000D01*
X62596000Y-94584000D02*
X62596000Y-96424000D01*
X62596000Y-96424000D02*
X66436000Y-96424000D01*
X67386000Y-95504000D02*
X66436000Y-95504000D01*
X61646000Y-95504000D02*
X62596000Y-95504000D01*
X78344000Y-94584000D02*
X78344000Y-96424000D01*
X78344000Y-96424000D02*
X82184000Y-96424000D01*
X82184000Y-96424000D02*
X82184000Y-94584000D01*
X82184000Y-94584000D02*
X78344000Y-94584000D01*
X77394000Y-95504000D02*
X78344000Y-95504000D01*
X83134000Y-95504000D02*
X82184000Y-95504000D01*
X78344000Y-97124000D02*
X78344000Y-98964000D01*
X78344000Y-98964000D02*
X82184000Y-98964000D01*
X82184000Y-98964000D02*
X82184000Y-97124000D01*
X82184000Y-97124000D02*
X78344000Y-97124000D01*
X77394000Y-98044000D02*
X78344000Y-98044000D01*
X83134000Y-98044000D02*
X82184000Y-98044000D01*
X66690000Y-68230000D02*
X66690000Y-66390000D01*
X66690000Y-66390000D02*
X62850000Y-66390000D01*
X62850000Y-66390000D02*
X62850000Y-68230000D01*
X62850000Y-68230000D02*
X66690000Y-68230000D01*
X67640000Y-67310000D02*
X66690000Y-67310000D01*
X61900000Y-67310000D02*
X62850000Y-67310000D01*
X66690000Y-70770000D02*
X66690000Y-68930000D01*
X66690000Y-68930000D02*
X62850000Y-68930000D01*
X62850000Y-68930000D02*
X62850000Y-70770000D01*
X62850000Y-70770000D02*
X66690000Y-70770000D01*
X67640000Y-69850000D02*
X66690000Y-69850000D01*
X61900000Y-69850000D02*
X62850000Y-69850000D01*
X80122000Y-68930000D02*
X80122000Y-70770000D01*
X80122000Y-70770000D02*
X83962000Y-70770000D01*
X83962000Y-70770000D02*
X83962000Y-68930000D01*
X83962000Y-68930000D02*
X80122000Y-68930000D01*
X79172000Y-69850000D02*
X80122000Y-69850000D01*
X84912000Y-69850000D02*
X83962000Y-69850000D01*
X80122000Y-71470000D02*
X80122000Y-73310000D01*
X80122000Y-73310000D02*
X83962000Y-73310000D01*
X83962000Y-73310000D02*
X83962000Y-71470000D01*
X83962000Y-71470000D02*
X80122000Y-71470000D01*
X79172000Y-72390000D02*
X80122000Y-72390000D01*
X84912000Y-72390000D02*
X83962000Y-72390000D01*
X90058000Y-89820000D02*
X90058000Y-87980000D01*
X90058000Y-87980000D02*
X86218000Y-87980000D01*
X86218000Y-87980000D02*
X86218000Y-89820000D01*
X86218000Y-89820000D02*
X90058000Y-89820000D01*
X91008000Y-88900000D02*
X90058000Y-88900000D01*
X85268000Y-88900000D02*
X86218000Y-88900000D01*
X90058000Y-92360000D02*
X90058000Y-90520000D01*
X90058000Y-90520000D02*
X86218000Y-90520000D01*
X86218000Y-90520000D02*
X86218000Y-92360000D01*
X86218000Y-92360000D02*
X90058000Y-92360000D01*
X91008000Y-91440000D02*
X90058000Y-91440000D01*
X85268000Y-91440000D02*
X86218000Y-91440000D01*
X101966000Y-90774000D02*
X101966000Y-92614000D01*
X101966000Y-92614000D02*
X105806000Y-92614000D01*
X105806000Y-92614000D02*
X105806000Y-90774000D01*
X105806000Y-90774000D02*
X101966000Y-90774000D01*
X101016000Y-91694000D02*
X101966000Y-91694000D01*
X106756000Y-91694000D02*
X105806000Y-91694000D01*
X101966000Y-93060000D02*
X101966000Y-94900000D01*
X101966000Y-94900000D02*
X105806000Y-94900000D01*
X105806000Y-94900000D02*
X105806000Y-93060000D01*
X105806000Y-93060000D02*
X101966000Y-93060000D01*
X101016000Y-93980000D02*
X101966000Y-93980000D01*
X106756000Y-93980000D02*
X105806000Y-93980000D01*
X90198000Y-60356000D02*
X90198000Y-58516000D01*
X90198000Y-58516000D02*
X86358000Y-58516000D01*
X86358000Y-58516000D02*
X86358000Y-60356000D01*
X86358000Y-60356000D02*
X90198000Y-60356000D01*
X91148000Y-59436000D02*
X90198000Y-59436000D01*
X85408000Y-59436000D02*
X86358000Y-59436000D01*
X90198000Y-62896000D02*
X90198000Y-61056000D01*
X90198000Y-61056000D02*
X86358000Y-61056000D01*
X86358000Y-61056000D02*
X86358000Y-62896000D01*
X86358000Y-62896000D02*
X90198000Y-62896000D01*
X91148000Y-61976000D02*
X90198000Y-61976000D01*
X85408000Y-61976000D02*
X86358000Y-61976000D01*
X104252000Y-61056000D02*
X104252000Y-62896000D01*
X104252000Y-62896000D02*
X108092000Y-62896000D01*
X108092000Y-62896000D02*
X108092000Y-61056000D01*
X108092000Y-61056000D02*
X104252000Y-61056000D01*
X103302000Y-61976000D02*
X104252000Y-61976000D01*
X109042000Y-61976000D02*
X108092000Y-61976000D01*
X104252000Y-63596000D02*
X104252000Y-65436000D01*
X104252000Y-65436000D02*
X108092000Y-65436000D01*
X108092000Y-65436000D02*
X108092000Y-63596000D01*
X108092000Y-63596000D02*
X104252000Y-63596000D01*
X103302000Y-64516000D02*
X104252000Y-64516000D01*
X109042000Y-64516000D02*
X108092000Y-64516000D01*
X43121000Y-74118500D02*
X43121000Y-72278500D01*
X43121000Y-72278500D02*
X39281000Y-72278500D01*
X39281000Y-72278500D02*
X39281000Y-74118500D01*
X39281000Y-74118500D02*
X43121000Y-74118500D01*
X44071000Y-73198500D02*
X43121000Y-73198500D01*
X38331000Y-73198500D02*
X39281000Y-73198500D01*
X43121000Y-76612000D02*
X43121000Y-74772000D01*
X43121000Y-74772000D02*
X39281000Y-74772000D01*
X39281000Y-74772000D02*
X39281000Y-76612000D01*
X39281000Y-76612000D02*
X43121000Y-76612000D01*
X44071000Y-75692000D02*
X43121000Y-75692000D01*
X38331000Y-75692000D02*
X39281000Y-75692000D01*
X57315000Y-74818500D02*
X57315000Y-76658500D01*
X57315000Y-76658500D02*
X61155000Y-76658500D01*
X61155000Y-76658500D02*
X61155000Y-74818500D01*
X61155000Y-74818500D02*
X57315000Y-74818500D01*
X56365000Y-75738500D02*
X57315000Y-75738500D01*
X62105000Y-75738500D02*
X61155000Y-75738500D01*
X57315000Y-77358500D02*
X57315000Y-79198500D01*
X57315000Y-79198500D02*
X61155000Y-79198500D01*
X61155000Y-79198500D02*
X61155000Y-77358500D01*
X61155000Y-77358500D02*
X57315000Y-77358500D01*
X56365000Y-78278500D02*
X57315000Y-78278500D01*
X62105000Y-78278500D02*
X61155000Y-78278500D01*
X43068000Y-97948000D02*
X43068000Y-96108000D01*
X43068000Y-96108000D02*
X39228000Y-96108000D01*
X39228000Y-96108000D02*
X39228000Y-97948000D01*
X39228000Y-97948000D02*
X43068000Y-97948000D01*
X44018000Y-97028000D02*
X43068000Y-97028000D01*
X38278000Y-97028000D02*
X39228000Y-97028000D01*
X65120000Y-124856000D02*
X66960000Y-124856000D01*
X66960000Y-124856000D02*
X66960000Y-121016000D01*
X66960000Y-121016000D02*
X65120000Y-121016000D01*
X65120000Y-121016000D02*
X65120000Y-124856000D01*
X66040000Y-125806000D02*
X66040000Y-124856000D01*
X66040000Y-120066000D02*
X66040000Y-121016000D01*
X68676000Y-124856000D02*
X70516000Y-124856000D01*
X70516000Y-124856000D02*
X70516000Y-121016000D01*
X70516000Y-121016000D02*
X68676000Y-121016000D01*
X68676000Y-121016000D02*
X68676000Y-124856000D01*
X69596000Y-125806000D02*
X69596000Y-124856000D01*
X69596000Y-120066000D02*
X69596000Y-121016000D01*
X78582000Y-124856000D02*
X80422000Y-124856000D01*
X80422000Y-124856000D02*
X80422000Y-121016000D01*
X80422000Y-121016000D02*
X78582000Y-121016000D01*
X78582000Y-121016000D02*
X78582000Y-124856000D01*
X79502000Y-125806000D02*
X79502000Y-124856000D01*
X79502000Y-120066000D02*
X79502000Y-121016000D01*
X80676000Y-46340000D02*
X78836000Y-46340000D01*
X78836000Y-46340000D02*
X78836000Y-50180000D01*
X78836000Y-50180000D02*
X80676000Y-50180000D01*
X80676000Y-50180000D02*
X80676000Y-46340000D01*
X79756000Y-45390000D02*
X79756000Y-46340000D01*
X79756000Y-51130000D02*
X79756000Y-50180000D01*
X74580000Y-46340000D02*
X72740000Y-46340000D01*
X72740000Y-46340000D02*
X72740000Y-50180000D01*
X72740000Y-50180000D02*
X74580000Y-50180000D01*
X74580000Y-50180000D02*
X74580000Y-46340000D01*
X73660000Y-45390000D02*
X73660000Y-46340000D01*
X73660000Y-51130000D02*
X73660000Y-50180000D01*
X68230000Y-46340000D02*
X66390000Y-46340000D01*
X66390000Y-46340000D02*
X66390000Y-50180000D01*
X66390000Y-50180000D02*
X68230000Y-50180000D01*
X68230000Y-50180000D02*
X68230000Y-46340000D01*
X67310000Y-45390000D02*
X67310000Y-46340000D01*
X67310000Y-51130000D02*
X67310000Y-50180000D01*
X65690000Y-46340000D02*
X63850000Y-46340000D01*
X63850000Y-46340000D02*
X63850000Y-50180000D01*
X63850000Y-50180000D02*
X65690000Y-50180000D01*
X65690000Y-50180000D02*
X65690000Y-46340000D01*
X64770000Y-45390000D02*
X64770000Y-46340000D01*
X64770000Y-51130000D02*
X64770000Y-50180000D01*
X81122000Y-124856000D02*
X82962000Y-124856000D01*
X82962000Y-124856000D02*
X82962000Y-121016000D01*
X82962000Y-121016000D02*
X81122000Y-121016000D01*
X81122000Y-121016000D02*
X81122000Y-124856000D01*
X82042000Y-125806000D02*
X82042000Y-124856000D01*
X82042000Y-120066000D02*
X82042000Y-121016000D01*
X91028000Y-124856000D02*
X92868000Y-124856000D01*
X92868000Y-124856000D02*
X92868000Y-121016000D01*
X92868000Y-121016000D02*
X91028000Y-121016000D01*
X91028000Y-121016000D02*
X91028000Y-124856000D01*
X91948000Y-125806000D02*
X91948000Y-124856000D01*
X91948000Y-120066000D02*
X91948000Y-121016000D01*
X94584000Y-124856000D02*
X96424000Y-124856000D01*
X96424000Y-124856000D02*
X96424000Y-121016000D01*
X96424000Y-121016000D02*
X94584000Y-121016000D01*
X94584000Y-121016000D02*
X94584000Y-124856000D01*
X95504000Y-125806000D02*
X95504000Y-124856000D01*
X95504000Y-120066000D02*
X95504000Y-121016000D01*
X104490000Y-124856000D02*
X106330000Y-124856000D01*
X106330000Y-124856000D02*
X106330000Y-121016000D01*
X106330000Y-121016000D02*
X104490000Y-121016000D01*
X104490000Y-121016000D02*
X104490000Y-124856000D01*
X105410000Y-125806000D02*
X105410000Y-124856000D01*
X105410000Y-120066000D02*
X105410000Y-121016000D01*
X103728000Y-50180000D02*
X105568000Y-50180000D01*
X105568000Y-50180000D02*
X105568000Y-46340000D01*
X105568000Y-46340000D02*
X103728000Y-46340000D01*
X103728000Y-46340000D02*
X103728000Y-50180000D01*
X104648000Y-51130000D02*
X104648000Y-50180000D01*
X104648000Y-45390000D02*
X104648000Y-46340000D01*
X101188000Y-50180000D02*
X103028000Y-50180000D01*
X103028000Y-50180000D02*
X103028000Y-46340000D01*
X103028000Y-46340000D02*
X101188000Y-46340000D01*
X101188000Y-46340000D02*
X101188000Y-50180000D01*
X102108000Y-51130000D02*
X102108000Y-50180000D01*
X102108000Y-45390000D02*
X102108000Y-46340000D01*
X91282000Y-50180000D02*
X93122000Y-50180000D01*
X93122000Y-50180000D02*
X93122000Y-46340000D01*
X93122000Y-46340000D02*
X91282000Y-46340000D01*
X91282000Y-46340000D02*
X91282000Y-50180000D01*
X92202000Y-51130000D02*
X92202000Y-50180000D01*
X92202000Y-45390000D02*
X92202000Y-46340000D01*
X88742000Y-50180000D02*
X90582000Y-50180000D01*
X90582000Y-50180000D02*
X90582000Y-46340000D01*
X90582000Y-46340000D02*
X88742000Y-46340000D01*
X88742000Y-46340000D02*
X88742000Y-50180000D01*
X89662000Y-51130000D02*
X89662000Y-50180000D01*
X89662000Y-45390000D02*
X89662000Y-46340000D01*
X34036000Y-130616000D02*
X32706000Y-130616000D01*
X32706000Y-130616000D02*
X32706000Y-129286000D01*
X32706000Y-128016000D02*
X32706000Y-122876000D01*
X35366000Y-122876000D02*
X32706000Y-122876000D01*
X35366000Y-128016000D02*
X35366000Y-122876000D01*
X35366000Y-128016000D02*
X32706000Y-128016000D01*
D11*
X21018666Y-119240380D02*
X20685333Y-118764190D01*
X20447238Y-119240380D02*
X20447238Y-118240380D01*
X20828190Y-118240380D01*
X20923428Y-118288000D01*
X20971047Y-118335619D01*
X21018666Y-118430857D01*
X21018666Y-118573714D01*
X20971047Y-118668952D01*
X20923428Y-118716571D01*
X20828190Y-118764190D01*
X20447238Y-118764190D01*
X21447238Y-118716571D02*
X21780571Y-118716571D01*
X21923428Y-119240380D02*
X21447238Y-119240380D01*
X21447238Y-118240380D01*
X21923428Y-118240380D01*
X22685333Y-118716571D02*
X22352000Y-118716571D01*
X22352000Y-119240380D02*
X22352000Y-118240380D01*
X22828190Y-118240380D01*
X23352000Y-118240380D02*
X23352000Y-118478476D01*
X23113904Y-118383238D02*
X23352000Y-118478476D01*
X23590095Y-118383238D01*
X23209142Y-118668952D02*
X23352000Y-118478476D01*
X23494857Y-118668952D01*
X24113904Y-118240380D02*
X24113904Y-118478476D01*
X23875809Y-118383238D02*
X24113904Y-118478476D01*
X24352000Y-118383238D01*
X23971047Y-118668952D02*
X24113904Y-118478476D01*
X24256761Y-118668952D01*
X97575809Y-84529380D02*
X97575809Y-83529380D01*
X98623428Y-84434142D02*
X98575809Y-84481761D01*
X98432952Y-84529380D01*
X98337714Y-84529380D01*
X98194857Y-84481761D01*
X98099619Y-84386523D01*
X98052000Y-84291285D01*
X98004380Y-84100809D01*
X98004380Y-83957952D01*
X98052000Y-83767476D01*
X98099619Y-83672238D01*
X98194857Y-83577000D01*
X98337714Y-83529380D01*
X98432952Y-83529380D01*
X98575809Y-83577000D01*
X98623428Y-83624619D01*
X99528190Y-83529380D02*
X99052000Y-83529380D01*
X99004380Y-84005571D01*
X99052000Y-83957952D01*
X99147238Y-83910333D01*
X99385333Y-83910333D01*
X99480571Y-83957952D01*
X99528190Y-84005571D01*
X99575809Y-84100809D01*
X99575809Y-84338904D01*
X99528190Y-84434142D01*
X99480571Y-84481761D01*
X99385333Y-84529380D01*
X99147238Y-84529380D01*
X99052000Y-84481761D01*
X99004380Y-84434142D01*
X74207809Y-88546380D02*
X74207809Y-87546380D01*
X75255428Y-88451142D02*
X75207809Y-88498761D01*
X75064952Y-88546380D01*
X74969714Y-88546380D01*
X74826857Y-88498761D01*
X74731619Y-88403523D01*
X74684000Y-88308285D01*
X74636380Y-88117809D01*
X74636380Y-87974952D01*
X74684000Y-87784476D01*
X74731619Y-87689238D01*
X74826857Y-87594000D01*
X74969714Y-87546380D01*
X75064952Y-87546380D01*
X75207809Y-87594000D01*
X75255428Y-87641619D01*
X75588761Y-87546380D02*
X76207809Y-87546380D01*
X75874476Y-87927333D01*
X76017333Y-87927333D01*
X76112571Y-87974952D01*
X76160190Y-88022571D01*
X76207809Y-88117809D01*
X76207809Y-88355904D01*
X76160190Y-88451142D01*
X76112571Y-88498761D01*
X76017333Y-88546380D01*
X75731619Y-88546380D01*
X75636380Y-88498761D01*
X75588761Y-88451142D01*
X50839809Y-92610380D02*
X50839809Y-91610380D01*
X51887428Y-92515142D02*
X51839809Y-92562761D01*
X51696952Y-92610380D01*
X51601714Y-92610380D01*
X51458857Y-92562761D01*
X51363619Y-92467523D01*
X51316000Y-92372285D01*
X51268380Y-92181809D01*
X51268380Y-92038952D01*
X51316000Y-91848476D01*
X51363619Y-91753238D01*
X51458857Y-91658000D01*
X51601714Y-91610380D01*
X51696952Y-91610380D01*
X51839809Y-91658000D01*
X51887428Y-91705619D01*
X52268380Y-91705619D02*
X52316000Y-91658000D01*
X52411238Y-91610380D01*
X52649333Y-91610380D01*
X52744571Y-91658000D01*
X52792190Y-91705619D01*
X52839809Y-91800857D01*
X52839809Y-91896095D01*
X52792190Y-92038952D01*
X52220761Y-92610380D01*
X52839809Y-92610380D01*
X74461809Y-62939380D02*
X74461809Y-61939380D01*
X75509428Y-62844142D02*
X75461809Y-62891761D01*
X75318952Y-62939380D01*
X75223714Y-62939380D01*
X75080857Y-62891761D01*
X74985619Y-62796523D01*
X74938000Y-62701285D01*
X74890380Y-62510809D01*
X74890380Y-62367952D01*
X74938000Y-62177476D01*
X74985619Y-62082238D01*
X75080857Y-61987000D01*
X75223714Y-61939380D01*
X75318952Y-61939380D01*
X75461809Y-61987000D01*
X75509428Y-62034619D01*
X76366571Y-62272714D02*
X76366571Y-62939380D01*
X76128476Y-61891761D02*
X75890380Y-62606047D01*
X76509428Y-62606047D01*
X50839809Y-68780880D02*
X50839809Y-67780880D01*
X51887428Y-68685642D02*
X51839809Y-68733261D01*
X51696952Y-68780880D01*
X51601714Y-68780880D01*
X51458857Y-68733261D01*
X51363619Y-68638023D01*
X51316000Y-68542785D01*
X51268380Y-68352309D01*
X51268380Y-68209452D01*
X51316000Y-68018976D01*
X51363619Y-67923738D01*
X51458857Y-67828500D01*
X51601714Y-67780880D01*
X51696952Y-67780880D01*
X51839809Y-67828500D01*
X51887428Y-67876119D01*
X52839809Y-68780880D02*
X52268380Y-68780880D01*
X52554095Y-68780880D02*
X52554095Y-67780880D01*
X52458857Y-67923738D01*
X52363619Y-68018976D01*
X52268380Y-68066595D01*
X27091047Y-52752761D02*
X27233904Y-52800380D01*
X27472000Y-52800380D01*
X27567238Y-52752761D01*
X27614857Y-52705142D01*
X27662476Y-52609904D01*
X27662476Y-52514666D01*
X27614857Y-52419428D01*
X27567238Y-52371809D01*
X27472000Y-52324190D01*
X27281523Y-52276571D01*
X27186285Y-52228952D01*
X27138666Y-52181333D01*
X27091047Y-52086095D01*
X27091047Y-51990857D01*
X27138666Y-51895619D01*
X27186285Y-51848000D01*
X27281523Y-51800380D01*
X27519619Y-51800380D01*
X27662476Y-51848000D01*
X28091047Y-52800380D02*
X28091047Y-51800380D01*
X28091047Y-52276571D02*
X28662476Y-52276571D01*
X28662476Y-52800380D02*
X28662476Y-51800380D01*
X29138666Y-52800380D02*
X29138666Y-51800380D01*
X29614857Y-52276571D02*
X29948190Y-52276571D01*
X30091047Y-52800380D02*
X29614857Y-52800380D01*
X29614857Y-51800380D01*
X30091047Y-51800380D01*
X30995809Y-52800380D02*
X30519619Y-52800380D01*
X30519619Y-51800380D01*
X31329142Y-52800380D02*
X31329142Y-51800380D01*
X31567238Y-51800380D01*
X31710095Y-51848000D01*
X31805333Y-51943238D01*
X31852952Y-52038476D01*
X31900571Y-52228952D01*
X31900571Y-52371809D01*
X31852952Y-52562285D01*
X31805333Y-52657523D01*
X31710095Y-52752761D01*
X31567238Y-52800380D01*
X31329142Y-52800380D01*
X32852952Y-52800380D02*
X32281523Y-52800380D01*
X32567238Y-52800380D02*
X32567238Y-51800380D01*
X32472000Y-51943238D01*
X32376761Y-52038476D01*
X32281523Y-52086095D01*
X96559809Y-53919380D02*
X96559809Y-52919380D01*
X97607428Y-53824142D02*
X97559809Y-53871761D01*
X97416952Y-53919380D01*
X97321714Y-53919380D01*
X97178857Y-53871761D01*
X97083619Y-53776523D01*
X97036000Y-53681285D01*
X96988380Y-53490809D01*
X96988380Y-53347952D01*
X97036000Y-53157476D01*
X97083619Y-53062238D01*
X97178857Y-52967000D01*
X97321714Y-52919380D01*
X97416952Y-52919380D01*
X97559809Y-52967000D01*
X97607428Y-53014619D01*
X98464571Y-52919380D02*
X98274095Y-52919380D01*
X98178857Y-52967000D01*
X98131238Y-53014619D01*
X98036000Y-53157476D01*
X97988380Y-53347952D01*
X97988380Y-53728904D01*
X98036000Y-53824142D01*
X98083619Y-53871761D01*
X98178857Y-53919380D01*
X98369333Y-53919380D01*
X98464571Y-53871761D01*
X98512190Y-53824142D01*
X98559809Y-53728904D01*
X98559809Y-53490809D01*
X98512190Y-53395571D01*
X98464571Y-53347952D01*
X98369333Y-53300333D01*
X98178857Y-53300333D01*
X98083619Y-53347952D01*
X98036000Y-53395571D01*
X97988380Y-53490809D01*
X108394571Y-38897619D02*
X108299333Y-38850000D01*
X108204095Y-38754761D01*
X108061238Y-38611904D01*
X107966000Y-38564285D01*
X107870761Y-38564285D01*
X107918380Y-38802380D02*
X107823142Y-38754761D01*
X107727904Y-38659523D01*
X107680285Y-38469047D01*
X107680285Y-38135714D01*
X107727904Y-37945238D01*
X107823142Y-37850000D01*
X107918380Y-37802380D01*
X108108857Y-37802380D01*
X108204095Y-37850000D01*
X108299333Y-37945238D01*
X108346952Y-38135714D01*
X108346952Y-38469047D01*
X108299333Y-38659523D01*
X108204095Y-38754761D01*
X108108857Y-38802380D01*
X107918380Y-38802380D01*
X108727904Y-37897619D02*
X108775523Y-37850000D01*
X108870761Y-37802380D01*
X109108857Y-37802380D01*
X109204095Y-37850000D01*
X109251714Y-37897619D01*
X109299333Y-37992857D01*
X109299333Y-38088095D01*
X109251714Y-38230952D01*
X108680285Y-38802380D01*
X109299333Y-38802380D01*
X109632666Y-37802380D02*
X110251714Y-37802380D01*
X109918380Y-38183333D01*
X110061238Y-38183333D01*
X110156476Y-38230952D01*
X110204095Y-38278571D01*
X110251714Y-38373809D01*
X110251714Y-38611904D01*
X110204095Y-38707142D01*
X110156476Y-38754761D01*
X110061238Y-38802380D01*
X109775523Y-38802380D01*
X109680285Y-38754761D01*
X109632666Y-38707142D01*
X99758571Y-38897619D02*
X99663333Y-38850000D01*
X99568095Y-38754761D01*
X99425238Y-38611904D01*
X99330000Y-38564285D01*
X99234761Y-38564285D01*
X99282380Y-38802380D02*
X99187142Y-38754761D01*
X99091904Y-38659523D01*
X99044285Y-38469047D01*
X99044285Y-38135714D01*
X99091904Y-37945238D01*
X99187142Y-37850000D01*
X99282380Y-37802380D01*
X99472857Y-37802380D01*
X99568095Y-37850000D01*
X99663333Y-37945238D01*
X99710952Y-38135714D01*
X99710952Y-38469047D01*
X99663333Y-38659523D01*
X99568095Y-38754761D01*
X99472857Y-38802380D01*
X99282380Y-38802380D01*
X100091904Y-37897619D02*
X100139523Y-37850000D01*
X100234761Y-37802380D01*
X100472857Y-37802380D01*
X100568095Y-37850000D01*
X100615714Y-37897619D01*
X100663333Y-37992857D01*
X100663333Y-38088095D01*
X100615714Y-38230952D01*
X100044285Y-38802380D01*
X100663333Y-38802380D01*
X101520476Y-38135714D02*
X101520476Y-38802380D01*
X101282380Y-37754761D02*
X101044285Y-38469047D01*
X101663333Y-38469047D01*
X95948571Y-38897619D02*
X95853333Y-38850000D01*
X95758095Y-38754761D01*
X95615238Y-38611904D01*
X95520000Y-38564285D01*
X95424761Y-38564285D01*
X95472380Y-38802380D02*
X95377142Y-38754761D01*
X95281904Y-38659523D01*
X95234285Y-38469047D01*
X95234285Y-38135714D01*
X95281904Y-37945238D01*
X95377142Y-37850000D01*
X95472380Y-37802380D01*
X95662857Y-37802380D01*
X95758095Y-37850000D01*
X95853333Y-37945238D01*
X95900952Y-38135714D01*
X95900952Y-38469047D01*
X95853333Y-38659523D01*
X95758095Y-38754761D01*
X95662857Y-38802380D01*
X95472380Y-38802380D01*
X96853333Y-38802380D02*
X96281904Y-38802380D01*
X96567619Y-38802380D02*
X96567619Y-37802380D01*
X96472380Y-37945238D01*
X96377142Y-38040476D01*
X96281904Y-38088095D01*
X97805714Y-38802380D02*
X97234285Y-38802380D01*
X97520000Y-38802380D02*
X97520000Y-37802380D01*
X97424761Y-37945238D01*
X97329523Y-38040476D01*
X97234285Y-38088095D01*
X87312571Y-38897619D02*
X87217333Y-38850000D01*
X87122095Y-38754761D01*
X86979238Y-38611904D01*
X86884000Y-38564285D01*
X86788761Y-38564285D01*
X86836380Y-38802380D02*
X86741142Y-38754761D01*
X86645904Y-38659523D01*
X86598285Y-38469047D01*
X86598285Y-38135714D01*
X86645904Y-37945238D01*
X86741142Y-37850000D01*
X86836380Y-37802380D01*
X87026857Y-37802380D01*
X87122095Y-37850000D01*
X87217333Y-37945238D01*
X87264952Y-38135714D01*
X87264952Y-38469047D01*
X87217333Y-38659523D01*
X87122095Y-38754761D01*
X87026857Y-38802380D01*
X86836380Y-38802380D01*
X88217333Y-38802380D02*
X87645904Y-38802380D01*
X87931619Y-38802380D02*
X87931619Y-37802380D01*
X87836380Y-37945238D01*
X87741142Y-38040476D01*
X87645904Y-38088095D01*
X88598285Y-37897619D02*
X88645904Y-37850000D01*
X88741142Y-37802380D01*
X88979238Y-37802380D01*
X89074476Y-37850000D01*
X89122095Y-37897619D01*
X89169714Y-37992857D01*
X89169714Y-38088095D01*
X89122095Y-38230952D01*
X88550666Y-38802380D01*
X89169714Y-38802380D01*
X83502571Y-38897619D02*
X83407333Y-38850000D01*
X83312095Y-38754761D01*
X83169238Y-38611904D01*
X83074000Y-38564285D01*
X82978761Y-38564285D01*
X83026380Y-38802380D02*
X82931142Y-38754761D01*
X82835904Y-38659523D01*
X82788285Y-38469047D01*
X82788285Y-38135714D01*
X82835904Y-37945238D01*
X82931142Y-37850000D01*
X83026380Y-37802380D01*
X83216857Y-37802380D01*
X83312095Y-37850000D01*
X83407333Y-37945238D01*
X83454952Y-38135714D01*
X83454952Y-38469047D01*
X83407333Y-38659523D01*
X83312095Y-38754761D01*
X83216857Y-38802380D01*
X83026380Y-38802380D01*
X83835904Y-37897619D02*
X83883523Y-37850000D01*
X83978761Y-37802380D01*
X84216857Y-37802380D01*
X84312095Y-37850000D01*
X84359714Y-37897619D01*
X84407333Y-37992857D01*
X84407333Y-38088095D01*
X84359714Y-38230952D01*
X83788285Y-38802380D01*
X84407333Y-38802380D01*
X85026380Y-37802380D02*
X85121619Y-37802380D01*
X85216857Y-37850000D01*
X85264476Y-37897619D01*
X85312095Y-37992857D01*
X85359714Y-38183333D01*
X85359714Y-38421428D01*
X85312095Y-38611904D01*
X85264476Y-38707142D01*
X85216857Y-38754761D01*
X85121619Y-38802380D01*
X85026380Y-38802380D01*
X84931142Y-38754761D01*
X84883523Y-38707142D01*
X84835904Y-38611904D01*
X84788285Y-38421428D01*
X84788285Y-38183333D01*
X84835904Y-37992857D01*
X84883523Y-37897619D01*
X84931142Y-37850000D01*
X85026380Y-37802380D01*
X77406571Y-38897619D02*
X77311333Y-38850000D01*
X77216095Y-38754761D01*
X77073238Y-38611904D01*
X76978000Y-38564285D01*
X76882761Y-38564285D01*
X76930380Y-38802380D02*
X76835142Y-38754761D01*
X76739904Y-38659523D01*
X76692285Y-38469047D01*
X76692285Y-38135714D01*
X76739904Y-37945238D01*
X76835142Y-37850000D01*
X76930380Y-37802380D01*
X77120857Y-37802380D01*
X77216095Y-37850000D01*
X77311333Y-37945238D01*
X77358952Y-38135714D01*
X77358952Y-38469047D01*
X77311333Y-38659523D01*
X77216095Y-38754761D01*
X77120857Y-38802380D01*
X76930380Y-38802380D01*
X78311333Y-38802380D02*
X77739904Y-38802380D01*
X78025619Y-38802380D02*
X78025619Y-37802380D01*
X77930380Y-37945238D01*
X77835142Y-38040476D01*
X77739904Y-38088095D01*
X78787523Y-38802380D02*
X78978000Y-38802380D01*
X79073238Y-38754761D01*
X79120857Y-38707142D01*
X79216095Y-38564285D01*
X79263714Y-38373809D01*
X79263714Y-37992857D01*
X79216095Y-37897619D01*
X79168476Y-37850000D01*
X79073238Y-37802380D01*
X78882761Y-37802380D01*
X78787523Y-37850000D01*
X78739904Y-37897619D01*
X78692285Y-37992857D01*
X78692285Y-38230952D01*
X78739904Y-38326190D01*
X78787523Y-38373809D01*
X78882761Y-38421428D01*
X79073238Y-38421428D01*
X79168476Y-38373809D01*
X79216095Y-38326190D01*
X79263714Y-38230952D01*
X71532761Y-38897619D02*
X71437523Y-38850000D01*
X71342285Y-38754761D01*
X71199428Y-38611904D01*
X71104190Y-38564285D01*
X71008952Y-38564285D01*
X71056571Y-38802380D02*
X70961333Y-38754761D01*
X70866095Y-38659523D01*
X70818476Y-38469047D01*
X70818476Y-38135714D01*
X70866095Y-37945238D01*
X70961333Y-37850000D01*
X71056571Y-37802380D01*
X71247047Y-37802380D01*
X71342285Y-37850000D01*
X71437523Y-37945238D01*
X71485142Y-38135714D01*
X71485142Y-38469047D01*
X71437523Y-38659523D01*
X71342285Y-38754761D01*
X71247047Y-38802380D01*
X71056571Y-38802380D01*
X71818476Y-37802380D02*
X72485142Y-37802380D01*
X72056571Y-38802380D01*
X62896761Y-38897619D02*
X62801523Y-38850000D01*
X62706285Y-38754761D01*
X62563428Y-38611904D01*
X62468190Y-38564285D01*
X62372952Y-38564285D01*
X62420571Y-38802380D02*
X62325333Y-38754761D01*
X62230095Y-38659523D01*
X62182476Y-38469047D01*
X62182476Y-38135714D01*
X62230095Y-37945238D01*
X62325333Y-37850000D01*
X62420571Y-37802380D01*
X62611047Y-37802380D01*
X62706285Y-37850000D01*
X62801523Y-37945238D01*
X62849142Y-38135714D01*
X62849142Y-38469047D01*
X62801523Y-38659523D01*
X62706285Y-38754761D01*
X62611047Y-38802380D01*
X62420571Y-38802380D01*
X63420571Y-38230952D02*
X63325333Y-38183333D01*
X63277714Y-38135714D01*
X63230095Y-38040476D01*
X63230095Y-37992857D01*
X63277714Y-37897619D01*
X63325333Y-37850000D01*
X63420571Y-37802380D01*
X63611047Y-37802380D01*
X63706285Y-37850000D01*
X63753904Y-37897619D01*
X63801523Y-37992857D01*
X63801523Y-38040476D01*
X63753904Y-38135714D01*
X63706285Y-38183333D01*
X63611047Y-38230952D01*
X63420571Y-38230952D01*
X63325333Y-38278571D01*
X63277714Y-38326190D01*
X63230095Y-38421428D01*
X63230095Y-38611904D01*
X63277714Y-38707142D01*
X63325333Y-38754761D01*
X63420571Y-38802380D01*
X63611047Y-38802380D01*
X63706285Y-38754761D01*
X63753904Y-38707142D01*
X63801523Y-38611904D01*
X63801523Y-38421428D01*
X63753904Y-38326190D01*
X63706285Y-38278571D01*
X63611047Y-38230952D01*
X56324571Y-38897619D02*
X56229333Y-38850000D01*
X56134095Y-38754761D01*
X55991238Y-38611904D01*
X55896000Y-38564285D01*
X55800761Y-38564285D01*
X55848380Y-38802380D02*
X55753142Y-38754761D01*
X55657904Y-38659523D01*
X55610285Y-38469047D01*
X55610285Y-38135714D01*
X55657904Y-37945238D01*
X55753142Y-37850000D01*
X55848380Y-37802380D01*
X56038857Y-37802380D01*
X56134095Y-37850000D01*
X56229333Y-37945238D01*
X56276952Y-38135714D01*
X56276952Y-38469047D01*
X56229333Y-38659523D01*
X56134095Y-38754761D01*
X56038857Y-38802380D01*
X55848380Y-38802380D01*
X57229333Y-38802380D02*
X56657904Y-38802380D01*
X56943619Y-38802380D02*
X56943619Y-37802380D01*
X56848380Y-37945238D01*
X56753142Y-38040476D01*
X56657904Y-38088095D01*
X58086476Y-38135714D02*
X58086476Y-38802380D01*
X57848380Y-37754761D02*
X57610285Y-38469047D01*
X58229333Y-38469047D01*
X52514571Y-38897619D02*
X52419333Y-38850000D01*
X52324095Y-38754761D01*
X52181238Y-38611904D01*
X52086000Y-38564285D01*
X51990761Y-38564285D01*
X52038380Y-38802380D02*
X51943142Y-38754761D01*
X51847904Y-38659523D01*
X51800285Y-38469047D01*
X51800285Y-38135714D01*
X51847904Y-37945238D01*
X51943142Y-37850000D01*
X52038380Y-37802380D01*
X52228857Y-37802380D01*
X52324095Y-37850000D01*
X52419333Y-37945238D01*
X52466952Y-38135714D01*
X52466952Y-38469047D01*
X52419333Y-38659523D01*
X52324095Y-38754761D01*
X52228857Y-38802380D01*
X52038380Y-38802380D01*
X53419333Y-38802380D02*
X52847904Y-38802380D01*
X53133619Y-38802380D02*
X53133619Y-37802380D01*
X53038380Y-37945238D01*
X52943142Y-38040476D01*
X52847904Y-38088095D01*
X53752666Y-37802380D02*
X54371714Y-37802380D01*
X54038380Y-38183333D01*
X54181238Y-38183333D01*
X54276476Y-38230952D01*
X54324095Y-38278571D01*
X54371714Y-38373809D01*
X54371714Y-38611904D01*
X54324095Y-38707142D01*
X54276476Y-38754761D01*
X54181238Y-38802380D01*
X53895523Y-38802380D01*
X53800285Y-38754761D01*
X53752666Y-38707142D01*
X46640761Y-38897619D02*
X46545523Y-38850000D01*
X46450285Y-38754761D01*
X46307428Y-38611904D01*
X46212190Y-38564285D01*
X46116952Y-38564285D01*
X46164571Y-38802380D02*
X46069333Y-38754761D01*
X45974095Y-38659523D01*
X45926476Y-38469047D01*
X45926476Y-38135714D01*
X45974095Y-37945238D01*
X46069333Y-37850000D01*
X46164571Y-37802380D01*
X46355047Y-37802380D01*
X46450285Y-37850000D01*
X46545523Y-37945238D01*
X46593142Y-38135714D01*
X46593142Y-38469047D01*
X46545523Y-38659523D01*
X46450285Y-38754761D01*
X46355047Y-38802380D01*
X46164571Y-38802380D01*
X47545523Y-38802380D02*
X46974095Y-38802380D01*
X47259809Y-38802380D02*
X47259809Y-37802380D01*
X47164571Y-37945238D01*
X47069333Y-38040476D01*
X46974095Y-38088095D01*
X40528961Y-38908219D02*
X40433723Y-38860600D01*
X40338485Y-38765361D01*
X40195628Y-38622504D01*
X40100390Y-38574885D01*
X40005152Y-38574885D01*
X40052771Y-38812980D02*
X39957533Y-38765361D01*
X39862295Y-38670123D01*
X39814676Y-38479647D01*
X39814676Y-38146314D01*
X39862295Y-37955838D01*
X39957533Y-37860600D01*
X40052771Y-37812980D01*
X40243247Y-37812980D01*
X40338485Y-37860600D01*
X40433723Y-37955838D01*
X40481342Y-38146314D01*
X40481342Y-38479647D01*
X40433723Y-38670123D01*
X40338485Y-38765361D01*
X40243247Y-38812980D01*
X40052771Y-38812980D01*
X40862295Y-37908219D02*
X40909914Y-37860600D01*
X41005152Y-37812980D01*
X41243247Y-37812980D01*
X41338485Y-37860600D01*
X41386104Y-37908219D01*
X41433723Y-38003457D01*
X41433723Y-38098695D01*
X41386104Y-38241552D01*
X40814676Y-38812980D01*
X41433723Y-38812980D01*
X100520571Y-133393619D02*
X100425333Y-133346000D01*
X100330095Y-133250761D01*
X100187238Y-133107904D01*
X100092000Y-133060285D01*
X99996761Y-133060285D01*
X100044380Y-133298380D02*
X99949142Y-133250761D01*
X99853904Y-133155523D01*
X99806285Y-132965047D01*
X99806285Y-132631714D01*
X99853904Y-132441238D01*
X99949142Y-132346000D01*
X100044380Y-132298380D01*
X100234857Y-132298380D01*
X100330095Y-132346000D01*
X100425333Y-132441238D01*
X100472952Y-132631714D01*
X100472952Y-132965047D01*
X100425333Y-133155523D01*
X100330095Y-133250761D01*
X100234857Y-133298380D01*
X100044380Y-133298380D01*
X100853904Y-132393619D02*
X100901523Y-132346000D01*
X100996761Y-132298380D01*
X101234857Y-132298380D01*
X101330095Y-132346000D01*
X101377714Y-132393619D01*
X101425333Y-132488857D01*
X101425333Y-132584095D01*
X101377714Y-132726952D01*
X100806285Y-133298380D01*
X101425333Y-133298380D01*
X102377714Y-133298380D02*
X101806285Y-133298380D01*
X102092000Y-133298380D02*
X102092000Y-132298380D01*
X101996761Y-132441238D01*
X101901523Y-132536476D01*
X101806285Y-132584095D01*
X96710571Y-133393619D02*
X96615333Y-133346000D01*
X96520095Y-133250761D01*
X96377238Y-133107904D01*
X96282000Y-133060285D01*
X96186761Y-133060285D01*
X96234380Y-133298380D02*
X96139142Y-133250761D01*
X96043904Y-133155523D01*
X95996285Y-132965047D01*
X95996285Y-132631714D01*
X96043904Y-132441238D01*
X96139142Y-132346000D01*
X96234380Y-132298380D01*
X96424857Y-132298380D01*
X96520095Y-132346000D01*
X96615333Y-132441238D01*
X96662952Y-132631714D01*
X96662952Y-132965047D01*
X96615333Y-133155523D01*
X96520095Y-133250761D01*
X96424857Y-133298380D01*
X96234380Y-133298380D01*
X97043904Y-132393619D02*
X97091523Y-132346000D01*
X97186761Y-132298380D01*
X97424857Y-132298380D01*
X97520095Y-132346000D01*
X97567714Y-132393619D01*
X97615333Y-132488857D01*
X97615333Y-132584095D01*
X97567714Y-132726952D01*
X96996285Y-133298380D01*
X97615333Y-133298380D01*
X97996285Y-132393619D02*
X98043904Y-132346000D01*
X98139142Y-132298380D01*
X98377238Y-132298380D01*
X98472476Y-132346000D01*
X98520095Y-132393619D01*
X98567714Y-132488857D01*
X98567714Y-132584095D01*
X98520095Y-132726952D01*
X97948666Y-133298380D01*
X98567714Y-133298380D01*
X87058571Y-133393619D02*
X86963333Y-133346000D01*
X86868095Y-133250761D01*
X86725238Y-133107904D01*
X86630000Y-133060285D01*
X86534761Y-133060285D01*
X86582380Y-133298380D02*
X86487142Y-133250761D01*
X86391904Y-133155523D01*
X86344285Y-132965047D01*
X86344285Y-132631714D01*
X86391904Y-132441238D01*
X86487142Y-132346000D01*
X86582380Y-132298380D01*
X86772857Y-132298380D01*
X86868095Y-132346000D01*
X86963333Y-132441238D01*
X87010952Y-132631714D01*
X87010952Y-132965047D01*
X86963333Y-133155523D01*
X86868095Y-133250761D01*
X86772857Y-133298380D01*
X86582380Y-133298380D01*
X87963333Y-133298380D02*
X87391904Y-133298380D01*
X87677619Y-133298380D02*
X87677619Y-132298380D01*
X87582380Y-132441238D01*
X87487142Y-132536476D01*
X87391904Y-132584095D01*
X88582380Y-132298380D02*
X88677619Y-132298380D01*
X88772857Y-132346000D01*
X88820476Y-132393619D01*
X88868095Y-132488857D01*
X88915714Y-132679333D01*
X88915714Y-132917428D01*
X88868095Y-133107904D01*
X88820476Y-133203142D01*
X88772857Y-133250761D01*
X88677619Y-133298380D01*
X88582380Y-133298380D01*
X88487142Y-133250761D01*
X88439523Y-133203142D01*
X88391904Y-133107904D01*
X88344285Y-132917428D01*
X88344285Y-132679333D01*
X88391904Y-132488857D01*
X88439523Y-132393619D01*
X88487142Y-132346000D01*
X88582380Y-132298380D01*
X83724761Y-133393619D02*
X83629523Y-133346000D01*
X83534285Y-133250761D01*
X83391428Y-133107904D01*
X83296190Y-133060285D01*
X83200952Y-133060285D01*
X83248571Y-133298380D02*
X83153333Y-133250761D01*
X83058095Y-133155523D01*
X83010476Y-132965047D01*
X83010476Y-132631714D01*
X83058095Y-132441238D01*
X83153333Y-132346000D01*
X83248571Y-132298380D01*
X83439047Y-132298380D01*
X83534285Y-132346000D01*
X83629523Y-132441238D01*
X83677142Y-132631714D01*
X83677142Y-132965047D01*
X83629523Y-133155523D01*
X83534285Y-133250761D01*
X83439047Y-133298380D01*
X83248571Y-133298380D01*
X84153333Y-133298380D02*
X84343809Y-133298380D01*
X84439047Y-133250761D01*
X84486666Y-133203142D01*
X84581904Y-133060285D01*
X84629523Y-132869809D01*
X84629523Y-132488857D01*
X84581904Y-132393619D01*
X84534285Y-132346000D01*
X84439047Y-132298380D01*
X84248571Y-132298380D01*
X84153333Y-132346000D01*
X84105714Y-132393619D01*
X84058095Y-132488857D01*
X84058095Y-132726952D01*
X84105714Y-132822190D01*
X84153333Y-132869809D01*
X84248571Y-132917428D01*
X84439047Y-132917428D01*
X84534285Y-132869809D01*
X84581904Y-132822190D01*
X84629523Y-132726952D01*
X74612571Y-133393619D02*
X74517333Y-133346000D01*
X74422095Y-133250761D01*
X74279238Y-133107904D01*
X74184000Y-133060285D01*
X74088761Y-133060285D01*
X74136380Y-133298380D02*
X74041142Y-133250761D01*
X73945904Y-133155523D01*
X73898285Y-132965047D01*
X73898285Y-132631714D01*
X73945904Y-132441238D01*
X74041142Y-132346000D01*
X74136380Y-132298380D01*
X74326857Y-132298380D01*
X74422095Y-132346000D01*
X74517333Y-132441238D01*
X74564952Y-132631714D01*
X74564952Y-132965047D01*
X74517333Y-133155523D01*
X74422095Y-133250761D01*
X74326857Y-133298380D01*
X74136380Y-133298380D01*
X75517333Y-133298380D02*
X74945904Y-133298380D01*
X75231619Y-133298380D02*
X75231619Y-132298380D01*
X75136380Y-132441238D01*
X75041142Y-132536476D01*
X74945904Y-132584095D01*
X76088761Y-132726952D02*
X75993523Y-132679333D01*
X75945904Y-132631714D01*
X75898285Y-132536476D01*
X75898285Y-132488857D01*
X75945904Y-132393619D01*
X75993523Y-132346000D01*
X76088761Y-132298380D01*
X76279238Y-132298380D01*
X76374476Y-132346000D01*
X76422095Y-132393619D01*
X76469714Y-132488857D01*
X76469714Y-132536476D01*
X76422095Y-132631714D01*
X76374476Y-132679333D01*
X76279238Y-132726952D01*
X76088761Y-132726952D01*
X75993523Y-132774571D01*
X75945904Y-132822190D01*
X75898285Y-132917428D01*
X75898285Y-133107904D01*
X75945904Y-133203142D01*
X75993523Y-133250761D01*
X76088761Y-133298380D01*
X76279238Y-133298380D01*
X76374476Y-133250761D01*
X76422095Y-133203142D01*
X76469714Y-133107904D01*
X76469714Y-132917428D01*
X76422095Y-132822190D01*
X76374476Y-132774571D01*
X76279238Y-132726952D01*
X70802571Y-133393619D02*
X70707333Y-133346000D01*
X70612095Y-133250761D01*
X70469238Y-133107904D01*
X70374000Y-133060285D01*
X70278761Y-133060285D01*
X70326380Y-133298380D02*
X70231142Y-133250761D01*
X70135904Y-133155523D01*
X70088285Y-132965047D01*
X70088285Y-132631714D01*
X70135904Y-132441238D01*
X70231142Y-132346000D01*
X70326380Y-132298380D01*
X70516857Y-132298380D01*
X70612095Y-132346000D01*
X70707333Y-132441238D01*
X70754952Y-132631714D01*
X70754952Y-132965047D01*
X70707333Y-133155523D01*
X70612095Y-133250761D01*
X70516857Y-133298380D01*
X70326380Y-133298380D01*
X71707333Y-133298380D02*
X71135904Y-133298380D01*
X71421619Y-133298380D02*
X71421619Y-132298380D01*
X71326380Y-132441238D01*
X71231142Y-132536476D01*
X71135904Y-132584095D01*
X72040666Y-132298380D02*
X72707333Y-132298380D01*
X72278761Y-133298380D01*
X61372761Y-133393619D02*
X61277523Y-133346000D01*
X61182285Y-133250761D01*
X61039428Y-133107904D01*
X60944190Y-133060285D01*
X60848952Y-133060285D01*
X60896571Y-133298380D02*
X60801333Y-133250761D01*
X60706095Y-133155523D01*
X60658476Y-132965047D01*
X60658476Y-132631714D01*
X60706095Y-132441238D01*
X60801333Y-132346000D01*
X60896571Y-132298380D01*
X61087047Y-132298380D01*
X61182285Y-132346000D01*
X61277523Y-132441238D01*
X61325142Y-132631714D01*
X61325142Y-132965047D01*
X61277523Y-133155523D01*
X61182285Y-133250761D01*
X61087047Y-133298380D01*
X60896571Y-133298380D01*
X62182285Y-132298380D02*
X61991809Y-132298380D01*
X61896571Y-132346000D01*
X61848952Y-132393619D01*
X61753714Y-132536476D01*
X61706095Y-132726952D01*
X61706095Y-133107904D01*
X61753714Y-133203142D01*
X61801333Y-133250761D01*
X61896571Y-133298380D01*
X62087047Y-133298380D01*
X62182285Y-133250761D01*
X62229904Y-133203142D01*
X62277523Y-133107904D01*
X62277523Y-132869809D01*
X62229904Y-132774571D01*
X62182285Y-132726952D01*
X62087047Y-132679333D01*
X61896571Y-132679333D01*
X61801333Y-132726952D01*
X61753714Y-132774571D01*
X61706095Y-132869809D01*
X57562761Y-133393619D02*
X57467523Y-133346000D01*
X57372285Y-133250761D01*
X57229428Y-133107904D01*
X57134190Y-133060285D01*
X57038952Y-133060285D01*
X57086571Y-133298380D02*
X56991333Y-133250761D01*
X56896095Y-133155523D01*
X56848476Y-132965047D01*
X56848476Y-132631714D01*
X56896095Y-132441238D01*
X56991333Y-132346000D01*
X57086571Y-132298380D01*
X57277047Y-132298380D01*
X57372285Y-132346000D01*
X57467523Y-132441238D01*
X57515142Y-132631714D01*
X57515142Y-132965047D01*
X57467523Y-133155523D01*
X57372285Y-133250761D01*
X57277047Y-133298380D01*
X57086571Y-133298380D01*
X58419904Y-132298380D02*
X57943714Y-132298380D01*
X57896095Y-132774571D01*
X57943714Y-132726952D01*
X58038952Y-132679333D01*
X58277047Y-132679333D01*
X58372285Y-132726952D01*
X58419904Y-132774571D01*
X58467523Y-132869809D01*
X58467523Y-133107904D01*
X58419904Y-133203142D01*
X58372285Y-133250761D01*
X58277047Y-133298380D01*
X58038952Y-133298380D01*
X57943714Y-133250761D01*
X57896095Y-133203142D01*
X48450571Y-133393619D02*
X48355333Y-133346000D01*
X48260095Y-133250761D01*
X48117238Y-133107904D01*
X48022000Y-133060285D01*
X47926761Y-133060285D01*
X47974380Y-133298380D02*
X47879142Y-133250761D01*
X47783904Y-133155523D01*
X47736285Y-132965047D01*
X47736285Y-132631714D01*
X47783904Y-132441238D01*
X47879142Y-132346000D01*
X47974380Y-132298380D01*
X48164857Y-132298380D01*
X48260095Y-132346000D01*
X48355333Y-132441238D01*
X48402952Y-132631714D01*
X48402952Y-132965047D01*
X48355333Y-133155523D01*
X48260095Y-133250761D01*
X48164857Y-133298380D01*
X47974380Y-133298380D01*
X49355333Y-133298380D02*
X48783904Y-133298380D01*
X49069619Y-133298380D02*
X49069619Y-132298380D01*
X48974380Y-132441238D01*
X48879142Y-132536476D01*
X48783904Y-132584095D01*
X50260095Y-132298380D02*
X49783904Y-132298380D01*
X49736285Y-132774571D01*
X49783904Y-132726952D01*
X49879142Y-132679333D01*
X50117238Y-132679333D01*
X50212476Y-132726952D01*
X50260095Y-132774571D01*
X50307714Y-132869809D01*
X50307714Y-133107904D01*
X50260095Y-133203142D01*
X50212476Y-133250761D01*
X50117238Y-133298380D01*
X49879142Y-133298380D01*
X49783904Y-133250761D01*
X49736285Y-133203142D01*
X44640571Y-133393619D02*
X44545333Y-133346000D01*
X44450095Y-133250761D01*
X44307238Y-133107904D01*
X44212000Y-133060285D01*
X44116761Y-133060285D01*
X44164380Y-133298380D02*
X44069142Y-133250761D01*
X43973904Y-133155523D01*
X43926285Y-132965047D01*
X43926285Y-132631714D01*
X43973904Y-132441238D01*
X44069142Y-132346000D01*
X44164380Y-132298380D01*
X44354857Y-132298380D01*
X44450095Y-132346000D01*
X44545333Y-132441238D01*
X44592952Y-132631714D01*
X44592952Y-132965047D01*
X44545333Y-133155523D01*
X44450095Y-133250761D01*
X44354857Y-133298380D01*
X44164380Y-133298380D01*
X45545333Y-133298380D02*
X44973904Y-133298380D01*
X45259619Y-133298380D02*
X45259619Y-132298380D01*
X45164380Y-132441238D01*
X45069142Y-132536476D01*
X44973904Y-132584095D01*
X46402476Y-132298380D02*
X46212000Y-132298380D01*
X46116761Y-132346000D01*
X46069142Y-132393619D01*
X45973904Y-132536476D01*
X45926285Y-132726952D01*
X45926285Y-133107904D01*
X45973904Y-133203142D01*
X46021523Y-133250761D01*
X46116761Y-133298380D01*
X46307238Y-133298380D01*
X46402476Y-133250761D01*
X46450095Y-133203142D01*
X46497714Y-133107904D01*
X46497714Y-132869809D01*
X46450095Y-132774571D01*
X46402476Y-132726952D01*
X46307238Y-132679333D01*
X46116761Y-132679333D01*
X46021523Y-132726952D01*
X45973904Y-132774571D01*
X45926285Y-132869809D01*
X36480761Y-133393619D02*
X36385523Y-133346000D01*
X36290285Y-133250761D01*
X36147428Y-133107904D01*
X36052190Y-133060285D01*
X35956952Y-133060285D01*
X36004571Y-133298380D02*
X35909333Y-133250761D01*
X35814095Y-133155523D01*
X35766476Y-132965047D01*
X35766476Y-132631714D01*
X35814095Y-132441238D01*
X35909333Y-132346000D01*
X36004571Y-132298380D01*
X36195047Y-132298380D01*
X36290285Y-132346000D01*
X36385523Y-132441238D01*
X36433142Y-132631714D01*
X36433142Y-132965047D01*
X36385523Y-133155523D01*
X36290285Y-133250761D01*
X36195047Y-133298380D01*
X36004571Y-133298380D01*
X37290285Y-132631714D02*
X37290285Y-133298380D01*
X37052190Y-132250761D02*
X36814095Y-132965047D01*
X37433142Y-132965047D01*
X122110666Y-39084380D02*
X121777333Y-38608190D01*
X121539238Y-39084380D02*
X121539238Y-38084380D01*
X121920190Y-38084380D01*
X122015428Y-38132000D01*
X122063047Y-38179619D01*
X122110666Y-38274857D01*
X122110666Y-38417714D01*
X122063047Y-38512952D01*
X122015428Y-38560571D01*
X121920190Y-38608190D01*
X121539238Y-38608190D01*
X122539238Y-38560571D02*
X122872571Y-38560571D01*
X123015428Y-39084380D02*
X122539238Y-39084380D01*
X122539238Y-38084380D01*
X123015428Y-38084380D01*
X123777333Y-38560571D02*
X123444000Y-38560571D01*
X123444000Y-39084380D02*
X123444000Y-38084380D01*
X123920190Y-38084380D01*
X124444000Y-38084380D02*
X124444000Y-38322476D01*
X124205904Y-38227238D02*
X124444000Y-38322476D01*
X124682095Y-38227238D01*
X124301142Y-38512952D02*
X124444000Y-38322476D01*
X124586857Y-38512952D01*
X125205904Y-38084380D02*
X125205904Y-38322476D01*
X124967809Y-38227238D02*
X125205904Y-38322476D01*
X125444000Y-38227238D01*
X125063047Y-38512952D02*
X125205904Y-38322476D01*
X125348761Y-38512952D01*
X56332380Y-123705857D02*
X55856190Y-124039190D01*
X56332380Y-124277285D02*
X55332380Y-124277285D01*
X55332380Y-123896333D01*
X55380000Y-123801095D01*
X55427619Y-123753476D01*
X55522857Y-123705857D01*
X55665714Y-123705857D01*
X55760952Y-123753476D01*
X55808571Y-123801095D01*
X55856190Y-123896333D01*
X55856190Y-124277285D01*
X55427619Y-123324904D02*
X55380000Y-123277285D01*
X55332380Y-123182047D01*
X55332380Y-122943952D01*
X55380000Y-122848714D01*
X55427619Y-122801095D01*
X55522857Y-122753476D01*
X55618095Y-122753476D01*
X55760952Y-122801095D01*
X56332380Y-123372523D01*
X56332380Y-122753476D01*
X56332380Y-122277285D02*
X56332380Y-122086809D01*
X56284761Y-121991571D01*
X56237142Y-121943952D01*
X56094285Y-121848714D01*
X55903809Y-121801095D01*
X55522857Y-121801095D01*
X55427619Y-121848714D01*
X55380000Y-121896333D01*
X55332380Y-121991571D01*
X55332380Y-122182047D01*
X55380000Y-122277285D01*
X55427619Y-122324904D01*
X55522857Y-122372523D01*
X55760952Y-122372523D01*
X55856190Y-122324904D01*
X55903809Y-122277285D01*
X55951428Y-122182047D01*
X55951428Y-121991571D01*
X55903809Y-121896333D01*
X55856190Y-121848714D01*
X55760952Y-121801095D01*
X53792380Y-123832857D02*
X53316190Y-124166190D01*
X53792380Y-124404285D02*
X52792380Y-124404285D01*
X52792380Y-124023333D01*
X52840000Y-123928095D01*
X52887619Y-123880476D01*
X52982857Y-123832857D01*
X53125714Y-123832857D01*
X53220952Y-123880476D01*
X53268571Y-123928095D01*
X53316190Y-124023333D01*
X53316190Y-124404285D01*
X52792380Y-123499523D02*
X52792380Y-122880476D01*
X53173333Y-123213809D01*
X53173333Y-123070952D01*
X53220952Y-122975714D01*
X53268571Y-122928095D01*
X53363809Y-122880476D01*
X53601904Y-122880476D01*
X53697142Y-122928095D01*
X53744761Y-122975714D01*
X53792380Y-123070952D01*
X53792380Y-123356666D01*
X53744761Y-123451904D01*
X53697142Y-123499523D01*
X53792380Y-122404285D02*
X53792380Y-122213809D01*
X53744761Y-122118571D01*
X53697142Y-122070952D01*
X53554285Y-121975714D01*
X53363809Y-121928095D01*
X52982857Y-121928095D01*
X52887619Y-121975714D01*
X52840000Y-122023333D01*
X52792380Y-122118571D01*
X52792380Y-122309047D01*
X52840000Y-122404285D01*
X52887619Y-122451904D01*
X52982857Y-122499523D01*
X53220952Y-122499523D01*
X53316190Y-122451904D01*
X53363809Y-122404285D01*
X53411428Y-122309047D01*
X53411428Y-122118571D01*
X53363809Y-122023333D01*
X53316190Y-121975714D01*
X53220952Y-121928095D01*
X43886380Y-123705857D02*
X43410190Y-124039190D01*
X43886380Y-124277285D02*
X42886380Y-124277285D01*
X42886380Y-123896333D01*
X42934000Y-123801095D01*
X42981619Y-123753476D01*
X43076857Y-123705857D01*
X43219714Y-123705857D01*
X43314952Y-123753476D01*
X43362571Y-123801095D01*
X43410190Y-123896333D01*
X43410190Y-124277285D01*
X43219714Y-122848714D02*
X43886380Y-122848714D01*
X42838761Y-123086809D02*
X43553047Y-123324904D01*
X43553047Y-122705857D01*
X42886380Y-122134428D02*
X42886380Y-122039190D01*
X42934000Y-121943952D01*
X42981619Y-121896333D01*
X43076857Y-121848714D01*
X43267333Y-121801095D01*
X43505428Y-121801095D01*
X43695904Y-121848714D01*
X43791142Y-121896333D01*
X43838761Y-121943952D01*
X43886380Y-122039190D01*
X43886380Y-122134428D01*
X43838761Y-122229666D01*
X43791142Y-122277285D01*
X43695904Y-122324904D01*
X43505428Y-122372523D01*
X43267333Y-122372523D01*
X43076857Y-122324904D01*
X42981619Y-122277285D01*
X42934000Y-122229666D01*
X42886380Y-122134428D01*
X41346380Y-123578857D02*
X40870190Y-123912190D01*
X41346380Y-124150285D02*
X40346380Y-124150285D01*
X40346380Y-123769333D01*
X40394000Y-123674095D01*
X40441619Y-123626476D01*
X40536857Y-123578857D01*
X40679714Y-123578857D01*
X40774952Y-123626476D01*
X40822571Y-123674095D01*
X40870190Y-123769333D01*
X40870190Y-124150285D01*
X40441619Y-123197904D02*
X40394000Y-123150285D01*
X40346380Y-123055047D01*
X40346380Y-122816952D01*
X40394000Y-122721714D01*
X40441619Y-122674095D01*
X40536857Y-122626476D01*
X40632095Y-122626476D01*
X40774952Y-122674095D01*
X41346380Y-123245523D01*
X41346380Y-122626476D01*
X40774952Y-122055047D02*
X40727333Y-122150285D01*
X40679714Y-122197904D01*
X40584476Y-122245523D01*
X40536857Y-122245523D01*
X40441619Y-122197904D01*
X40394000Y-122150285D01*
X40346380Y-122055047D01*
X40346380Y-121864571D01*
X40394000Y-121769333D01*
X40441619Y-121721714D01*
X40536857Y-121674095D01*
X40584476Y-121674095D01*
X40679714Y-121721714D01*
X40727333Y-121769333D01*
X40774952Y-121864571D01*
X40774952Y-122055047D01*
X40822571Y-122150285D01*
X40870190Y-122197904D01*
X40965428Y-122245523D01*
X41155904Y-122245523D01*
X41251142Y-122197904D01*
X41298761Y-122150285D01*
X41346380Y-122055047D01*
X41346380Y-121864571D01*
X41298761Y-121769333D01*
X41251142Y-121721714D01*
X41155904Y-121674095D01*
X40965428Y-121674095D01*
X40870190Y-121721714D01*
X40822571Y-121769333D01*
X40774952Y-121864571D01*
X31440380Y-123578857D02*
X30964190Y-123912190D01*
X31440380Y-124150285D02*
X30440380Y-124150285D01*
X30440380Y-123769333D01*
X30488000Y-123674095D01*
X30535619Y-123626476D01*
X30630857Y-123578857D01*
X30773714Y-123578857D01*
X30868952Y-123626476D01*
X30916571Y-123674095D01*
X30964190Y-123769333D01*
X30964190Y-124150285D01*
X30535619Y-123197904D02*
X30488000Y-123150285D01*
X30440380Y-123055047D01*
X30440380Y-122816952D01*
X30488000Y-122721714D01*
X30535619Y-122674095D01*
X30630857Y-122626476D01*
X30726095Y-122626476D01*
X30868952Y-122674095D01*
X31440380Y-123245523D01*
X31440380Y-122626476D01*
X30440380Y-122293142D02*
X30440380Y-121626476D01*
X31440380Y-122055047D01*
X36901380Y-48902857D02*
X36425190Y-49236190D01*
X36901380Y-49474285D02*
X35901380Y-49474285D01*
X35901380Y-49093333D01*
X35949000Y-48998095D01*
X35996619Y-48950476D01*
X36091857Y-48902857D01*
X36234714Y-48902857D01*
X36329952Y-48950476D01*
X36377571Y-48998095D01*
X36425190Y-49093333D01*
X36425190Y-49474285D01*
X35996619Y-48521904D02*
X35949000Y-48474285D01*
X35901380Y-48379047D01*
X35901380Y-48140952D01*
X35949000Y-48045714D01*
X35996619Y-47998095D01*
X36091857Y-47950476D01*
X36187095Y-47950476D01*
X36329952Y-47998095D01*
X36901380Y-48569523D01*
X36901380Y-47950476D01*
X35901380Y-47093333D02*
X35901380Y-47283809D01*
X35949000Y-47379047D01*
X35996619Y-47426666D01*
X36139476Y-47521904D01*
X36329952Y-47569523D01*
X36710904Y-47569523D01*
X36806142Y-47521904D01*
X36853761Y-47474285D01*
X36901380Y-47379047D01*
X36901380Y-47188571D01*
X36853761Y-47093333D01*
X36806142Y-47045714D01*
X36710904Y-46998095D01*
X36472809Y-46998095D01*
X36377571Y-47045714D01*
X36329952Y-47093333D01*
X36282333Y-47188571D01*
X36282333Y-47379047D01*
X36329952Y-47474285D01*
X36377571Y-47521904D01*
X36472809Y-47569523D01*
X42870380Y-49029857D02*
X42394190Y-49363190D01*
X42870380Y-49601285D02*
X41870380Y-49601285D01*
X41870380Y-49220333D01*
X41918000Y-49125095D01*
X41965619Y-49077476D01*
X42060857Y-49029857D01*
X42203714Y-49029857D01*
X42298952Y-49077476D01*
X42346571Y-49125095D01*
X42394190Y-49220333D01*
X42394190Y-49601285D01*
X41965619Y-48648904D02*
X41918000Y-48601285D01*
X41870380Y-48506047D01*
X41870380Y-48267952D01*
X41918000Y-48172714D01*
X41965619Y-48125095D01*
X42060857Y-48077476D01*
X42156095Y-48077476D01*
X42298952Y-48125095D01*
X42870380Y-48696523D01*
X42870380Y-48077476D01*
X41870380Y-47172714D02*
X41870380Y-47648904D01*
X42346571Y-47696523D01*
X42298952Y-47648904D01*
X42251333Y-47553666D01*
X42251333Y-47315571D01*
X42298952Y-47220333D01*
X42346571Y-47172714D01*
X42441809Y-47125095D01*
X42679904Y-47125095D01*
X42775142Y-47172714D01*
X42822761Y-47220333D01*
X42870380Y-47315571D01*
X42870380Y-47553666D01*
X42822761Y-47648904D01*
X42775142Y-47696523D01*
X49347380Y-48902857D02*
X48871190Y-49236190D01*
X49347380Y-49474285D02*
X48347380Y-49474285D01*
X48347380Y-49093333D01*
X48395000Y-48998095D01*
X48442619Y-48950476D01*
X48537857Y-48902857D01*
X48680714Y-48902857D01*
X48775952Y-48950476D01*
X48823571Y-48998095D01*
X48871190Y-49093333D01*
X48871190Y-49474285D01*
X48347380Y-48569523D02*
X48347380Y-47950476D01*
X48728333Y-48283809D01*
X48728333Y-48140952D01*
X48775952Y-48045714D01*
X48823571Y-47998095D01*
X48918809Y-47950476D01*
X49156904Y-47950476D01*
X49252142Y-47998095D01*
X49299761Y-48045714D01*
X49347380Y-48140952D01*
X49347380Y-48426666D01*
X49299761Y-48521904D01*
X49252142Y-48569523D01*
X48347380Y-47617142D02*
X48347380Y-46950476D01*
X49347380Y-47379047D01*
X59126380Y-49029857D02*
X58650190Y-49363190D01*
X59126380Y-49601285D02*
X58126380Y-49601285D01*
X58126380Y-49220333D01*
X58174000Y-49125095D01*
X58221619Y-49077476D01*
X58316857Y-49029857D01*
X58459714Y-49029857D01*
X58554952Y-49077476D01*
X58602571Y-49125095D01*
X58650190Y-49220333D01*
X58650190Y-49601285D01*
X58126380Y-48696523D02*
X58126380Y-48077476D01*
X58507333Y-48410809D01*
X58507333Y-48267952D01*
X58554952Y-48172714D01*
X58602571Y-48125095D01*
X58697809Y-48077476D01*
X58935904Y-48077476D01*
X59031142Y-48125095D01*
X59078761Y-48172714D01*
X59126380Y-48267952D01*
X59126380Y-48553666D01*
X59078761Y-48648904D01*
X59031142Y-48696523D01*
X58554952Y-47506047D02*
X58507333Y-47601285D01*
X58459714Y-47648904D01*
X58364476Y-47696523D01*
X58316857Y-47696523D01*
X58221619Y-47648904D01*
X58174000Y-47601285D01*
X58126380Y-47506047D01*
X58126380Y-47315571D01*
X58174000Y-47220333D01*
X58221619Y-47172714D01*
X58316857Y-47125095D01*
X58364476Y-47125095D01*
X58459714Y-47172714D01*
X58507333Y-47220333D01*
X58554952Y-47315571D01*
X58554952Y-47506047D01*
X58602571Y-47601285D01*
X58650190Y-47648904D01*
X58745428Y-47696523D01*
X58935904Y-47696523D01*
X59031142Y-47648904D01*
X59078761Y-47601285D01*
X59126380Y-47506047D01*
X59126380Y-47315571D01*
X59078761Y-47220333D01*
X59031142Y-47172714D01*
X58935904Y-47125095D01*
X58745428Y-47125095D01*
X58650190Y-47172714D01*
X58602571Y-47220333D01*
X58554952Y-47315571D01*
X56126142Y-102560380D02*
X55792809Y-102084190D01*
X55554714Y-102560380D02*
X55554714Y-101560380D01*
X55935666Y-101560380D01*
X56030904Y-101608000D01*
X56078523Y-101655619D01*
X56126142Y-101750857D01*
X56126142Y-101893714D01*
X56078523Y-101988952D01*
X56030904Y-102036571D01*
X55935666Y-102084190D01*
X55554714Y-102084190D01*
X56507095Y-101655619D02*
X56554714Y-101608000D01*
X56649952Y-101560380D01*
X56888047Y-101560380D01*
X56983285Y-101608000D01*
X57030904Y-101655619D01*
X57078523Y-101750857D01*
X57078523Y-101846095D01*
X57030904Y-101988952D01*
X56459476Y-102560380D01*
X57078523Y-102560380D01*
X57935666Y-101893714D02*
X57935666Y-102560380D01*
X57697571Y-101512761D02*
X57459476Y-102227047D01*
X58078523Y-102227047D01*
X56126142Y-100020380D02*
X55792809Y-99544190D01*
X55554714Y-100020380D02*
X55554714Y-99020380D01*
X55935666Y-99020380D01*
X56030904Y-99068000D01*
X56078523Y-99115619D01*
X56126142Y-99210857D01*
X56126142Y-99353714D01*
X56078523Y-99448952D01*
X56030904Y-99496571D01*
X55935666Y-99544190D01*
X55554714Y-99544190D01*
X56507095Y-99115619D02*
X56554714Y-99068000D01*
X56649952Y-99020380D01*
X56888047Y-99020380D01*
X56983285Y-99068000D01*
X57030904Y-99115619D01*
X57078523Y-99210857D01*
X57078523Y-99306095D01*
X57030904Y-99448952D01*
X56459476Y-100020380D01*
X57078523Y-100020380D01*
X57411857Y-99020380D02*
X58030904Y-99020380D01*
X57697571Y-99401333D01*
X57840428Y-99401333D01*
X57935666Y-99448952D01*
X57983285Y-99496571D01*
X58030904Y-99591809D01*
X58030904Y-99829904D01*
X57983285Y-99925142D01*
X57935666Y-99972761D01*
X57840428Y-100020380D01*
X57554714Y-100020380D01*
X57459476Y-99972761D01*
X57411857Y-99925142D01*
X40505142Y-100020380D02*
X40171809Y-99544190D01*
X39933714Y-100020380D02*
X39933714Y-99020380D01*
X40314666Y-99020380D01*
X40409904Y-99068000D01*
X40457523Y-99115619D01*
X40505142Y-99210857D01*
X40505142Y-99353714D01*
X40457523Y-99448952D01*
X40409904Y-99496571D01*
X40314666Y-99544190D01*
X39933714Y-99544190D01*
X40886095Y-99115619D02*
X40933714Y-99068000D01*
X41028952Y-99020380D01*
X41267047Y-99020380D01*
X41362285Y-99068000D01*
X41409904Y-99115619D01*
X41457523Y-99210857D01*
X41457523Y-99306095D01*
X41409904Y-99448952D01*
X40838476Y-100020380D01*
X41457523Y-100020380D01*
X41838476Y-99115619D02*
X41886095Y-99068000D01*
X41981333Y-99020380D01*
X42219428Y-99020380D01*
X42314666Y-99068000D01*
X42362285Y-99115619D01*
X42409904Y-99210857D01*
X42409904Y-99306095D01*
X42362285Y-99448952D01*
X41790857Y-100020380D01*
X42409904Y-100020380D01*
X64349333Y-93416380D02*
X64016000Y-92940190D01*
X63777904Y-93416380D02*
X63777904Y-92416380D01*
X64158857Y-92416380D01*
X64254095Y-92464000D01*
X64301714Y-92511619D01*
X64349333Y-92606857D01*
X64349333Y-92749714D01*
X64301714Y-92844952D01*
X64254095Y-92892571D01*
X64158857Y-92940190D01*
X63777904Y-92940190D01*
X65301714Y-93416380D02*
X64730285Y-93416380D01*
X65016000Y-93416380D02*
X65016000Y-92416380D01*
X64920761Y-92559238D01*
X64825523Y-92654476D01*
X64730285Y-92702095D01*
X64349333Y-95956380D02*
X64016000Y-95480190D01*
X63777904Y-95956380D02*
X63777904Y-94956380D01*
X64158857Y-94956380D01*
X64254095Y-95004000D01*
X64301714Y-95051619D01*
X64349333Y-95146857D01*
X64349333Y-95289714D01*
X64301714Y-95384952D01*
X64254095Y-95432571D01*
X64158857Y-95480190D01*
X63777904Y-95480190D01*
X64730285Y-95051619D02*
X64777904Y-95004000D01*
X64873142Y-94956380D01*
X65111238Y-94956380D01*
X65206476Y-95004000D01*
X65254095Y-95051619D01*
X65301714Y-95146857D01*
X65301714Y-95242095D01*
X65254095Y-95384952D01*
X64682666Y-95956380D01*
X65301714Y-95956380D01*
X80097333Y-95956380D02*
X79764000Y-95480190D01*
X79525904Y-95956380D02*
X79525904Y-94956380D01*
X79906857Y-94956380D01*
X80002095Y-95004000D01*
X80049714Y-95051619D01*
X80097333Y-95146857D01*
X80097333Y-95289714D01*
X80049714Y-95384952D01*
X80002095Y-95432571D01*
X79906857Y-95480190D01*
X79525904Y-95480190D01*
X80430666Y-94956380D02*
X81049714Y-94956380D01*
X80716380Y-95337333D01*
X80859238Y-95337333D01*
X80954476Y-95384952D01*
X81002095Y-95432571D01*
X81049714Y-95527809D01*
X81049714Y-95765904D01*
X81002095Y-95861142D01*
X80954476Y-95908761D01*
X80859238Y-95956380D01*
X80573523Y-95956380D01*
X80478285Y-95908761D01*
X80430666Y-95861142D01*
X80097333Y-98496380D02*
X79764000Y-98020190D01*
X79525904Y-98496380D02*
X79525904Y-97496380D01*
X79906857Y-97496380D01*
X80002095Y-97544000D01*
X80049714Y-97591619D01*
X80097333Y-97686857D01*
X80097333Y-97829714D01*
X80049714Y-97924952D01*
X80002095Y-97972571D01*
X79906857Y-98020190D01*
X79525904Y-98020190D01*
X80954476Y-97829714D02*
X80954476Y-98496380D01*
X80716380Y-97448761D02*
X80478285Y-98163047D01*
X81097333Y-98163047D01*
X64603333Y-67889380D02*
X64270000Y-67413190D01*
X64031904Y-67889380D02*
X64031904Y-66889380D01*
X64412857Y-66889380D01*
X64508095Y-66937000D01*
X64555714Y-66984619D01*
X64603333Y-67079857D01*
X64603333Y-67222714D01*
X64555714Y-67317952D01*
X64508095Y-67365571D01*
X64412857Y-67413190D01*
X64031904Y-67413190D01*
X65508095Y-66889380D02*
X65031904Y-66889380D01*
X64984285Y-67365571D01*
X65031904Y-67317952D01*
X65127142Y-67270333D01*
X65365238Y-67270333D01*
X65460476Y-67317952D01*
X65508095Y-67365571D01*
X65555714Y-67460809D01*
X65555714Y-67698904D01*
X65508095Y-67794142D01*
X65460476Y-67841761D01*
X65365238Y-67889380D01*
X65127142Y-67889380D01*
X65031904Y-67841761D01*
X64984285Y-67794142D01*
X64603333Y-70302380D02*
X64270000Y-69826190D01*
X64031904Y-70302380D02*
X64031904Y-69302380D01*
X64412857Y-69302380D01*
X64508095Y-69350000D01*
X64555714Y-69397619D01*
X64603333Y-69492857D01*
X64603333Y-69635714D01*
X64555714Y-69730952D01*
X64508095Y-69778571D01*
X64412857Y-69826190D01*
X64031904Y-69826190D01*
X65460476Y-69302380D02*
X65270000Y-69302380D01*
X65174761Y-69350000D01*
X65127142Y-69397619D01*
X65031904Y-69540476D01*
X64984285Y-69730952D01*
X64984285Y-70111904D01*
X65031904Y-70207142D01*
X65079523Y-70254761D01*
X65174761Y-70302380D01*
X65365238Y-70302380D01*
X65460476Y-70254761D01*
X65508095Y-70207142D01*
X65555714Y-70111904D01*
X65555714Y-69873809D01*
X65508095Y-69778571D01*
X65460476Y-69730952D01*
X65365238Y-69683333D01*
X65174761Y-69683333D01*
X65079523Y-69730952D01*
X65031904Y-69778571D01*
X64984285Y-69873809D01*
X81875333Y-70302380D02*
X81542000Y-69826190D01*
X81303904Y-70302380D02*
X81303904Y-69302380D01*
X81684857Y-69302380D01*
X81780095Y-69350000D01*
X81827714Y-69397619D01*
X81875333Y-69492857D01*
X81875333Y-69635714D01*
X81827714Y-69730952D01*
X81780095Y-69778571D01*
X81684857Y-69826190D01*
X81303904Y-69826190D01*
X82208666Y-69302380D02*
X82875333Y-69302380D01*
X82446761Y-70302380D01*
X81875333Y-72842380D02*
X81542000Y-72366190D01*
X81303904Y-72842380D02*
X81303904Y-71842380D01*
X81684857Y-71842380D01*
X81780095Y-71890000D01*
X81827714Y-71937619D01*
X81875333Y-72032857D01*
X81875333Y-72175714D01*
X81827714Y-72270952D01*
X81780095Y-72318571D01*
X81684857Y-72366190D01*
X81303904Y-72366190D01*
X82446761Y-72270952D02*
X82351523Y-72223333D01*
X82303904Y-72175714D01*
X82256285Y-72080476D01*
X82256285Y-72032857D01*
X82303904Y-71937619D01*
X82351523Y-71890000D01*
X82446761Y-71842380D01*
X82637238Y-71842380D01*
X82732476Y-71890000D01*
X82780095Y-71937619D01*
X82827714Y-72032857D01*
X82827714Y-72080476D01*
X82780095Y-72175714D01*
X82732476Y-72223333D01*
X82637238Y-72270952D01*
X82446761Y-72270952D01*
X82351523Y-72318571D01*
X82303904Y-72366190D01*
X82256285Y-72461428D01*
X82256285Y-72651904D01*
X82303904Y-72747142D01*
X82351523Y-72794761D01*
X82446761Y-72842380D01*
X82637238Y-72842380D01*
X82732476Y-72794761D01*
X82780095Y-72747142D01*
X82827714Y-72651904D01*
X82827714Y-72461428D01*
X82780095Y-72366190D01*
X82732476Y-72318571D01*
X82637238Y-72270952D01*
X87971333Y-89352380D02*
X87638000Y-88876190D01*
X87399904Y-89352380D02*
X87399904Y-88352380D01*
X87780857Y-88352380D01*
X87876095Y-88400000D01*
X87923714Y-88447619D01*
X87971333Y-88542857D01*
X87971333Y-88685714D01*
X87923714Y-88780952D01*
X87876095Y-88828571D01*
X87780857Y-88876190D01*
X87399904Y-88876190D01*
X88447523Y-89352380D02*
X88638000Y-89352380D01*
X88733238Y-89304761D01*
X88780857Y-89257142D01*
X88876095Y-89114285D01*
X88923714Y-88923809D01*
X88923714Y-88542857D01*
X88876095Y-88447619D01*
X88828476Y-88400000D01*
X88733238Y-88352380D01*
X88542761Y-88352380D01*
X88447523Y-88400000D01*
X88399904Y-88447619D01*
X88352285Y-88542857D01*
X88352285Y-88780952D01*
X88399904Y-88876190D01*
X88447523Y-88923809D01*
X88542761Y-88971428D01*
X88733238Y-88971428D01*
X88828476Y-88923809D01*
X88876095Y-88876190D01*
X88923714Y-88780952D01*
X87495142Y-91892380D02*
X87161809Y-91416190D01*
X86923714Y-91892380D02*
X86923714Y-90892380D01*
X87304666Y-90892380D01*
X87399904Y-90940000D01*
X87447523Y-90987619D01*
X87495142Y-91082857D01*
X87495142Y-91225714D01*
X87447523Y-91320952D01*
X87399904Y-91368571D01*
X87304666Y-91416190D01*
X86923714Y-91416190D01*
X88447523Y-91892380D02*
X87876095Y-91892380D01*
X88161809Y-91892380D02*
X88161809Y-90892380D01*
X88066571Y-91035238D01*
X87971333Y-91130476D01*
X87876095Y-91178095D01*
X89066571Y-90892380D02*
X89161809Y-90892380D01*
X89257047Y-90940000D01*
X89304666Y-90987619D01*
X89352285Y-91082857D01*
X89399904Y-91273333D01*
X89399904Y-91511428D01*
X89352285Y-91701904D01*
X89304666Y-91797142D01*
X89257047Y-91844761D01*
X89161809Y-91892380D01*
X89066571Y-91892380D01*
X88971333Y-91844761D01*
X88923714Y-91797142D01*
X88876095Y-91701904D01*
X88828476Y-91511428D01*
X88828476Y-91273333D01*
X88876095Y-91082857D01*
X88923714Y-90987619D01*
X88971333Y-90940000D01*
X89066571Y-90892380D01*
X103243142Y-92146380D02*
X102909809Y-91670190D01*
X102671714Y-92146380D02*
X102671714Y-91146380D01*
X103052666Y-91146380D01*
X103147904Y-91194000D01*
X103195523Y-91241619D01*
X103243142Y-91336857D01*
X103243142Y-91479714D01*
X103195523Y-91574952D01*
X103147904Y-91622571D01*
X103052666Y-91670190D01*
X102671714Y-91670190D01*
X104195523Y-92146380D02*
X103624095Y-92146380D01*
X103909809Y-92146380D02*
X103909809Y-91146380D01*
X103814571Y-91289238D01*
X103719333Y-91384476D01*
X103624095Y-91432095D01*
X105147904Y-92146380D02*
X104576476Y-92146380D01*
X104862190Y-92146380D02*
X104862190Y-91146380D01*
X104766952Y-91289238D01*
X104671714Y-91384476D01*
X104576476Y-91432095D01*
X103243142Y-94432380D02*
X102909809Y-93956190D01*
X102671714Y-94432380D02*
X102671714Y-93432380D01*
X103052666Y-93432380D01*
X103147904Y-93480000D01*
X103195523Y-93527619D01*
X103243142Y-93622857D01*
X103243142Y-93765714D01*
X103195523Y-93860952D01*
X103147904Y-93908571D01*
X103052666Y-93956190D01*
X102671714Y-93956190D01*
X104195523Y-94432380D02*
X103624095Y-94432380D01*
X103909809Y-94432380D02*
X103909809Y-93432380D01*
X103814571Y-93575238D01*
X103719333Y-93670476D01*
X103624095Y-93718095D01*
X104576476Y-93527619D02*
X104624095Y-93480000D01*
X104719333Y-93432380D01*
X104957428Y-93432380D01*
X105052666Y-93480000D01*
X105100285Y-93527619D01*
X105147904Y-93622857D01*
X105147904Y-93718095D01*
X105100285Y-93860952D01*
X104528857Y-94432380D01*
X105147904Y-94432380D01*
X87635142Y-59888380D02*
X87301809Y-59412190D01*
X87063714Y-59888380D02*
X87063714Y-58888380D01*
X87444666Y-58888380D01*
X87539904Y-58936000D01*
X87587523Y-58983619D01*
X87635142Y-59078857D01*
X87635142Y-59221714D01*
X87587523Y-59316952D01*
X87539904Y-59364571D01*
X87444666Y-59412190D01*
X87063714Y-59412190D01*
X88587523Y-59888380D02*
X88016095Y-59888380D01*
X88301809Y-59888380D02*
X88301809Y-58888380D01*
X88206571Y-59031238D01*
X88111333Y-59126476D01*
X88016095Y-59174095D01*
X88920857Y-58888380D02*
X89539904Y-58888380D01*
X89206571Y-59269333D01*
X89349428Y-59269333D01*
X89444666Y-59316952D01*
X89492285Y-59364571D01*
X89539904Y-59459809D01*
X89539904Y-59697904D01*
X89492285Y-59793142D01*
X89444666Y-59840761D01*
X89349428Y-59888380D01*
X89063714Y-59888380D01*
X88968476Y-59840761D01*
X88920857Y-59793142D01*
X87622142Y-62428380D02*
X87288809Y-61952190D01*
X87050714Y-62428380D02*
X87050714Y-61428380D01*
X87431666Y-61428380D01*
X87526904Y-61476000D01*
X87574523Y-61523619D01*
X87622142Y-61618857D01*
X87622142Y-61761714D01*
X87574523Y-61856952D01*
X87526904Y-61904571D01*
X87431666Y-61952190D01*
X87050714Y-61952190D01*
X88574523Y-62428380D02*
X88003095Y-62428380D01*
X88288809Y-62428380D02*
X88288809Y-61428380D01*
X88193571Y-61571238D01*
X88098333Y-61666476D01*
X88003095Y-61714095D01*
X89431666Y-61761714D02*
X89431666Y-62428380D01*
X89193571Y-61380761D02*
X88955476Y-62095047D01*
X89574523Y-62095047D01*
X105402142Y-62428380D02*
X105068809Y-61952190D01*
X104830714Y-62428380D02*
X104830714Y-61428380D01*
X105211666Y-61428380D01*
X105306904Y-61476000D01*
X105354523Y-61523619D01*
X105402142Y-61618857D01*
X105402142Y-61761714D01*
X105354523Y-61856952D01*
X105306904Y-61904571D01*
X105211666Y-61952190D01*
X104830714Y-61952190D01*
X106354523Y-62428380D02*
X105783095Y-62428380D01*
X106068809Y-62428380D02*
X106068809Y-61428380D01*
X105973571Y-61571238D01*
X105878333Y-61666476D01*
X105783095Y-61714095D01*
X107259285Y-61428380D02*
X106783095Y-61428380D01*
X106735476Y-61904571D01*
X106783095Y-61856952D01*
X106878333Y-61809333D01*
X107116428Y-61809333D01*
X107211666Y-61856952D01*
X107259285Y-61904571D01*
X107306904Y-61999809D01*
X107306904Y-62237904D01*
X107259285Y-62333142D01*
X107211666Y-62380761D01*
X107116428Y-62428380D01*
X106878333Y-62428380D01*
X106783095Y-62380761D01*
X106735476Y-62333142D01*
X105529142Y-64968380D02*
X105195809Y-64492190D01*
X104957714Y-64968380D02*
X104957714Y-63968380D01*
X105338666Y-63968380D01*
X105433904Y-64016000D01*
X105481523Y-64063619D01*
X105529142Y-64158857D01*
X105529142Y-64301714D01*
X105481523Y-64396952D01*
X105433904Y-64444571D01*
X105338666Y-64492190D01*
X104957714Y-64492190D01*
X106481523Y-64968380D02*
X105910095Y-64968380D01*
X106195809Y-64968380D02*
X106195809Y-63968380D01*
X106100571Y-64111238D01*
X106005333Y-64206476D01*
X105910095Y-64254095D01*
X107338666Y-63968380D02*
X107148190Y-63968380D01*
X107052952Y-64016000D01*
X107005333Y-64063619D01*
X106910095Y-64206476D01*
X106862476Y-64396952D01*
X106862476Y-64777904D01*
X106910095Y-64873142D01*
X106957714Y-64920761D01*
X107052952Y-64968380D01*
X107243428Y-64968380D01*
X107338666Y-64920761D01*
X107386285Y-64873142D01*
X107433904Y-64777904D01*
X107433904Y-64539809D01*
X107386285Y-64444571D01*
X107338666Y-64396952D01*
X107243428Y-64349333D01*
X107052952Y-64349333D01*
X106957714Y-64396952D01*
X106910095Y-64444571D01*
X106862476Y-64539809D01*
X40505142Y-73604380D02*
X40171809Y-73128190D01*
X39933714Y-73604380D02*
X39933714Y-72604380D01*
X40314666Y-72604380D01*
X40409904Y-72652000D01*
X40457523Y-72699619D01*
X40505142Y-72794857D01*
X40505142Y-72937714D01*
X40457523Y-73032952D01*
X40409904Y-73080571D01*
X40314666Y-73128190D01*
X39933714Y-73128190D01*
X41457523Y-73604380D02*
X40886095Y-73604380D01*
X41171809Y-73604380D02*
X41171809Y-72604380D01*
X41076571Y-72747238D01*
X40981333Y-72842476D01*
X40886095Y-72890095D01*
X41790857Y-72604380D02*
X42457523Y-72604380D01*
X42028952Y-73604380D01*
X40505142Y-76144380D02*
X40171809Y-75668190D01*
X39933714Y-76144380D02*
X39933714Y-75144380D01*
X40314666Y-75144380D01*
X40409904Y-75192000D01*
X40457523Y-75239619D01*
X40505142Y-75334857D01*
X40505142Y-75477714D01*
X40457523Y-75572952D01*
X40409904Y-75620571D01*
X40314666Y-75668190D01*
X39933714Y-75668190D01*
X41457523Y-76144380D02*
X40886095Y-76144380D01*
X41171809Y-76144380D02*
X41171809Y-75144380D01*
X41076571Y-75287238D01*
X40981333Y-75382476D01*
X40886095Y-75430095D01*
X42028952Y-75572952D02*
X41933714Y-75525333D01*
X41886095Y-75477714D01*
X41838476Y-75382476D01*
X41838476Y-75334857D01*
X41886095Y-75239619D01*
X41933714Y-75192000D01*
X42028952Y-75144380D01*
X42219428Y-75144380D01*
X42314666Y-75192000D01*
X42362285Y-75239619D01*
X42409904Y-75334857D01*
X42409904Y-75382476D01*
X42362285Y-75477714D01*
X42314666Y-75525333D01*
X42219428Y-75572952D01*
X42028952Y-75572952D01*
X41933714Y-75620571D01*
X41886095Y-75668190D01*
X41838476Y-75763428D01*
X41838476Y-75953904D01*
X41886095Y-76049142D01*
X41933714Y-76096761D01*
X42028952Y-76144380D01*
X42219428Y-76144380D01*
X42314666Y-76096761D01*
X42362285Y-76049142D01*
X42409904Y-75953904D01*
X42409904Y-75763428D01*
X42362285Y-75668190D01*
X42314666Y-75620571D01*
X42219428Y-75572952D01*
X58539142Y-76144380D02*
X58205809Y-75668190D01*
X57967714Y-76144380D02*
X57967714Y-75144380D01*
X58348666Y-75144380D01*
X58443904Y-75192000D01*
X58491523Y-75239619D01*
X58539142Y-75334857D01*
X58539142Y-75477714D01*
X58491523Y-75572952D01*
X58443904Y-75620571D01*
X58348666Y-75668190D01*
X57967714Y-75668190D01*
X59491523Y-76144380D02*
X58920095Y-76144380D01*
X59205809Y-76144380D02*
X59205809Y-75144380D01*
X59110571Y-75287238D01*
X59015333Y-75382476D01*
X58920095Y-75430095D01*
X59967714Y-76144380D02*
X60158190Y-76144380D01*
X60253428Y-76096761D01*
X60301047Y-76049142D01*
X60396285Y-75906285D01*
X60443904Y-75715809D01*
X60443904Y-75334857D01*
X60396285Y-75239619D01*
X60348666Y-75192000D01*
X60253428Y-75144380D01*
X60062952Y-75144380D01*
X59967714Y-75192000D01*
X59920095Y-75239619D01*
X59872476Y-75334857D01*
X59872476Y-75572952D01*
X59920095Y-75668190D01*
X59967714Y-75715809D01*
X60062952Y-75763428D01*
X60253428Y-75763428D01*
X60348666Y-75715809D01*
X60396285Y-75668190D01*
X60443904Y-75572952D01*
X58592142Y-78684380D02*
X58258809Y-78208190D01*
X58020714Y-78684380D02*
X58020714Y-77684380D01*
X58401666Y-77684380D01*
X58496904Y-77732000D01*
X58544523Y-77779619D01*
X58592142Y-77874857D01*
X58592142Y-78017714D01*
X58544523Y-78112952D01*
X58496904Y-78160571D01*
X58401666Y-78208190D01*
X58020714Y-78208190D01*
X58973095Y-77779619D02*
X59020714Y-77732000D01*
X59115952Y-77684380D01*
X59354047Y-77684380D01*
X59449285Y-77732000D01*
X59496904Y-77779619D01*
X59544523Y-77874857D01*
X59544523Y-77970095D01*
X59496904Y-78112952D01*
X58925476Y-78684380D01*
X59544523Y-78684380D01*
X60163571Y-77684380D02*
X60258809Y-77684380D01*
X60354047Y-77732000D01*
X60401666Y-77779619D01*
X60449285Y-77874857D01*
X60496904Y-78065333D01*
X60496904Y-78303428D01*
X60449285Y-78493904D01*
X60401666Y-78589142D01*
X60354047Y-78636761D01*
X60258809Y-78684380D01*
X60163571Y-78684380D01*
X60068333Y-78636761D01*
X60020714Y-78589142D01*
X59973095Y-78493904D01*
X59925476Y-78303428D01*
X59925476Y-78065333D01*
X59973095Y-77874857D01*
X60020714Y-77779619D01*
X60068333Y-77732000D01*
X60163571Y-77684380D01*
X40505142Y-97480380D02*
X40171809Y-97004190D01*
X39933714Y-97480380D02*
X39933714Y-96480380D01*
X40314666Y-96480380D01*
X40409904Y-96528000D01*
X40457523Y-96575619D01*
X40505142Y-96670857D01*
X40505142Y-96813714D01*
X40457523Y-96908952D01*
X40409904Y-96956571D01*
X40314666Y-97004190D01*
X39933714Y-97004190D01*
X40886095Y-96575619D02*
X40933714Y-96528000D01*
X41028952Y-96480380D01*
X41267047Y-96480380D01*
X41362285Y-96528000D01*
X41409904Y-96575619D01*
X41457523Y-96670857D01*
X41457523Y-96766095D01*
X41409904Y-96908952D01*
X40838476Y-97480380D01*
X41457523Y-97480380D01*
X42409904Y-97480380D02*
X41838476Y-97480380D01*
X42124190Y-97480380D02*
X42124190Y-96480380D01*
X42028952Y-96623238D01*
X41933714Y-96718476D01*
X41838476Y-96766095D01*
X66492380Y-123578857D02*
X66016190Y-123912190D01*
X66492380Y-124150285D02*
X65492380Y-124150285D01*
X65492380Y-123769333D01*
X65540000Y-123674095D01*
X65587619Y-123626476D01*
X65682857Y-123578857D01*
X65825714Y-123578857D01*
X65920952Y-123626476D01*
X65968571Y-123674095D01*
X66016190Y-123769333D01*
X66016190Y-124150285D01*
X65492380Y-123245523D02*
X65492380Y-122626476D01*
X65873333Y-122959809D01*
X65873333Y-122816952D01*
X65920952Y-122721714D01*
X65968571Y-122674095D01*
X66063809Y-122626476D01*
X66301904Y-122626476D01*
X66397142Y-122674095D01*
X66444761Y-122721714D01*
X66492380Y-122816952D01*
X66492380Y-123102666D01*
X66444761Y-123197904D01*
X66397142Y-123245523D01*
X65492380Y-122007428D02*
X65492380Y-121912190D01*
X65540000Y-121816952D01*
X65587619Y-121769333D01*
X65682857Y-121721714D01*
X65873333Y-121674095D01*
X66111428Y-121674095D01*
X66301904Y-121721714D01*
X66397142Y-121769333D01*
X66444761Y-121816952D01*
X66492380Y-121912190D01*
X66492380Y-122007428D01*
X66444761Y-122102666D01*
X66397142Y-122150285D01*
X66301904Y-122197904D01*
X66111428Y-122245523D01*
X65873333Y-122245523D01*
X65682857Y-122197904D01*
X65587619Y-122150285D01*
X65540000Y-122102666D01*
X65492380Y-122007428D01*
X70048380Y-123578857D02*
X69572190Y-123912190D01*
X70048380Y-124150285D02*
X69048380Y-124150285D01*
X69048380Y-123769333D01*
X69096000Y-123674095D01*
X69143619Y-123626476D01*
X69238857Y-123578857D01*
X69381714Y-123578857D01*
X69476952Y-123626476D01*
X69524571Y-123674095D01*
X69572190Y-123769333D01*
X69572190Y-124150285D01*
X69381714Y-122721714D02*
X70048380Y-122721714D01*
X69000761Y-122959809D02*
X69715047Y-123197904D01*
X69715047Y-122578857D01*
X70048380Y-121674095D02*
X70048380Y-122245523D01*
X70048380Y-121959809D02*
X69048380Y-121959809D01*
X69191238Y-122055047D01*
X69286476Y-122150285D01*
X69334095Y-122245523D01*
X79954380Y-123705857D02*
X79478190Y-124039190D01*
X79954380Y-124277285D02*
X78954380Y-124277285D01*
X78954380Y-123896333D01*
X79002000Y-123801095D01*
X79049619Y-123753476D01*
X79144857Y-123705857D01*
X79287714Y-123705857D01*
X79382952Y-123753476D01*
X79430571Y-123801095D01*
X79478190Y-123896333D01*
X79478190Y-124277285D01*
X79287714Y-122848714D02*
X79954380Y-122848714D01*
X78906761Y-123086809D02*
X79621047Y-123324904D01*
X79621047Y-122705857D01*
X79049619Y-122372523D02*
X79002000Y-122324904D01*
X78954380Y-122229666D01*
X78954380Y-121991571D01*
X79002000Y-121896333D01*
X79049619Y-121848714D01*
X79144857Y-121801095D01*
X79240095Y-121801095D01*
X79382952Y-121848714D01*
X79954380Y-122420142D01*
X79954380Y-121801095D01*
X80208380Y-48775857D02*
X79732190Y-49109190D01*
X80208380Y-49347285D02*
X79208380Y-49347285D01*
X79208380Y-48966333D01*
X79256000Y-48871095D01*
X79303619Y-48823476D01*
X79398857Y-48775857D01*
X79541714Y-48775857D01*
X79636952Y-48823476D01*
X79684571Y-48871095D01*
X79732190Y-48966333D01*
X79732190Y-49347285D01*
X79541714Y-47918714D02*
X80208380Y-47918714D01*
X79160761Y-48156809D02*
X79875047Y-48394904D01*
X79875047Y-47775857D01*
X79541714Y-46966333D02*
X80208380Y-46966333D01*
X79160761Y-47204428D02*
X79875047Y-47442523D01*
X79875047Y-46823476D01*
X74112380Y-48902857D02*
X73636190Y-49236190D01*
X74112380Y-49474285D02*
X73112380Y-49474285D01*
X73112380Y-49093333D01*
X73160000Y-48998095D01*
X73207619Y-48950476D01*
X73302857Y-48902857D01*
X73445714Y-48902857D01*
X73540952Y-48950476D01*
X73588571Y-48998095D01*
X73636190Y-49093333D01*
X73636190Y-49474285D01*
X73445714Y-48045714D02*
X74112380Y-48045714D01*
X73064761Y-48283809D02*
X73779047Y-48521904D01*
X73779047Y-47902857D01*
X73112380Y-47617142D02*
X73112380Y-46998095D01*
X73493333Y-47331428D01*
X73493333Y-47188571D01*
X73540952Y-47093333D01*
X73588571Y-47045714D01*
X73683809Y-46998095D01*
X73921904Y-46998095D01*
X74017142Y-47045714D01*
X74064761Y-47093333D01*
X74112380Y-47188571D01*
X74112380Y-47474285D01*
X74064761Y-47569523D01*
X74017142Y-47617142D01*
X67762380Y-48902857D02*
X67286190Y-49236190D01*
X67762380Y-49474285D02*
X66762380Y-49474285D01*
X66762380Y-49093333D01*
X66810000Y-48998095D01*
X66857619Y-48950476D01*
X66952857Y-48902857D01*
X67095714Y-48902857D01*
X67190952Y-48950476D01*
X67238571Y-48998095D01*
X67286190Y-49093333D01*
X67286190Y-49474285D01*
X66762380Y-48569523D02*
X66762380Y-47950476D01*
X67143333Y-48283809D01*
X67143333Y-48140952D01*
X67190952Y-48045714D01*
X67238571Y-47998095D01*
X67333809Y-47950476D01*
X67571904Y-47950476D01*
X67667142Y-47998095D01*
X67714761Y-48045714D01*
X67762380Y-48140952D01*
X67762380Y-48426666D01*
X67714761Y-48521904D01*
X67667142Y-48569523D01*
X67762380Y-46998095D02*
X67762380Y-47569523D01*
X67762380Y-47283809D02*
X66762380Y-47283809D01*
X66905238Y-47379047D01*
X67000476Y-47474285D01*
X67048095Y-47569523D01*
X65222380Y-48902857D02*
X64746190Y-49236190D01*
X65222380Y-49474285D02*
X64222380Y-49474285D01*
X64222380Y-49093333D01*
X64270000Y-48998095D01*
X64317619Y-48950476D01*
X64412857Y-48902857D01*
X64555714Y-48902857D01*
X64650952Y-48950476D01*
X64698571Y-48998095D01*
X64746190Y-49093333D01*
X64746190Y-49474285D01*
X64222380Y-48569523D02*
X64222380Y-47950476D01*
X64603333Y-48283809D01*
X64603333Y-48140952D01*
X64650952Y-48045714D01*
X64698571Y-47998095D01*
X64793809Y-47950476D01*
X65031904Y-47950476D01*
X65127142Y-47998095D01*
X65174761Y-48045714D01*
X65222380Y-48140952D01*
X65222380Y-48426666D01*
X65174761Y-48521904D01*
X65127142Y-48569523D01*
X64317619Y-47569523D02*
X64270000Y-47521904D01*
X64222380Y-47426666D01*
X64222380Y-47188571D01*
X64270000Y-47093333D01*
X64317619Y-47045714D01*
X64412857Y-46998095D01*
X64508095Y-46998095D01*
X64650952Y-47045714D01*
X65222380Y-47617142D01*
X65222380Y-46998095D01*
X82494380Y-123578857D02*
X82018190Y-123912190D01*
X82494380Y-124150285D02*
X81494380Y-124150285D01*
X81494380Y-123769333D01*
X81542000Y-123674095D01*
X81589619Y-123626476D01*
X81684857Y-123578857D01*
X81827714Y-123578857D01*
X81922952Y-123626476D01*
X81970571Y-123674095D01*
X82018190Y-123769333D01*
X82018190Y-124150285D01*
X81494380Y-123245523D02*
X81494380Y-122626476D01*
X81875333Y-122959809D01*
X81875333Y-122816952D01*
X81922952Y-122721714D01*
X81970571Y-122674095D01*
X82065809Y-122626476D01*
X82303904Y-122626476D01*
X82399142Y-122674095D01*
X82446761Y-122721714D01*
X82494380Y-122816952D01*
X82494380Y-123102666D01*
X82446761Y-123197904D01*
X82399142Y-123245523D01*
X81494380Y-122293142D02*
X81494380Y-121674095D01*
X81875333Y-122007428D01*
X81875333Y-121864571D01*
X81922952Y-121769333D01*
X81970571Y-121721714D01*
X82065809Y-121674095D01*
X82303904Y-121674095D01*
X82399142Y-121721714D01*
X82446761Y-121769333D01*
X82494380Y-121864571D01*
X82494380Y-122150285D01*
X82446761Y-122245523D01*
X82399142Y-122293142D01*
X92400380Y-123705857D02*
X91924190Y-124039190D01*
X92400380Y-124277285D02*
X91400380Y-124277285D01*
X91400380Y-123896333D01*
X91448000Y-123801095D01*
X91495619Y-123753476D01*
X91590857Y-123705857D01*
X91733714Y-123705857D01*
X91828952Y-123753476D01*
X91876571Y-123801095D01*
X91924190Y-123896333D01*
X91924190Y-124277285D01*
X91400380Y-123372523D02*
X91400380Y-122753476D01*
X91781333Y-123086809D01*
X91781333Y-122943952D01*
X91828952Y-122848714D01*
X91876571Y-122801095D01*
X91971809Y-122753476D01*
X92209904Y-122753476D01*
X92305142Y-122801095D01*
X92352761Y-122848714D01*
X92400380Y-122943952D01*
X92400380Y-123229666D01*
X92352761Y-123324904D01*
X92305142Y-123372523D01*
X91733714Y-121896333D02*
X92400380Y-121896333D01*
X91352761Y-122134428D02*
X92067047Y-122372523D01*
X92067047Y-121753476D01*
X96083380Y-123578857D02*
X95607190Y-123912190D01*
X96083380Y-124150285D02*
X95083380Y-124150285D01*
X95083380Y-123769333D01*
X95131000Y-123674095D01*
X95178619Y-123626476D01*
X95273857Y-123578857D01*
X95416714Y-123578857D01*
X95511952Y-123626476D01*
X95559571Y-123674095D01*
X95607190Y-123769333D01*
X95607190Y-124150285D01*
X95416714Y-122721714D02*
X96083380Y-122721714D01*
X95035761Y-122959809D02*
X95750047Y-123197904D01*
X95750047Y-122578857D01*
X95083380Y-121769333D02*
X95083380Y-121959809D01*
X95131000Y-122055047D01*
X95178619Y-122102666D01*
X95321476Y-122197904D01*
X95511952Y-122245523D01*
X95892904Y-122245523D01*
X95988142Y-122197904D01*
X96035761Y-122150285D01*
X96083380Y-122055047D01*
X96083380Y-121864571D01*
X96035761Y-121769333D01*
X95988142Y-121721714D01*
X95892904Y-121674095D01*
X95654809Y-121674095D01*
X95559571Y-121721714D01*
X95511952Y-121769333D01*
X95464333Y-121864571D01*
X95464333Y-122055047D01*
X95511952Y-122150285D01*
X95559571Y-122197904D01*
X95654809Y-122245523D01*
X105862380Y-123578857D02*
X105386190Y-123912190D01*
X105862380Y-124150285D02*
X104862380Y-124150285D01*
X104862380Y-123769333D01*
X104910000Y-123674095D01*
X104957619Y-123626476D01*
X105052857Y-123578857D01*
X105195714Y-123578857D01*
X105290952Y-123626476D01*
X105338571Y-123674095D01*
X105386190Y-123769333D01*
X105386190Y-124150285D01*
X105195714Y-122721714D02*
X105862380Y-122721714D01*
X104814761Y-122959809D02*
X105529047Y-123197904D01*
X105529047Y-122578857D01*
X104862380Y-121721714D02*
X104862380Y-122197904D01*
X105338571Y-122245523D01*
X105290952Y-122197904D01*
X105243333Y-122102666D01*
X105243333Y-121864571D01*
X105290952Y-121769333D01*
X105338571Y-121721714D01*
X105433809Y-121674095D01*
X105671904Y-121674095D01*
X105767142Y-121721714D01*
X105814761Y-121769333D01*
X105862380Y-121864571D01*
X105862380Y-122102666D01*
X105814761Y-122197904D01*
X105767142Y-122245523D01*
X105100380Y-48902857D02*
X104624190Y-49236190D01*
X105100380Y-49474285D02*
X104100380Y-49474285D01*
X104100380Y-49093333D01*
X104148000Y-48998095D01*
X104195619Y-48950476D01*
X104290857Y-48902857D01*
X104433714Y-48902857D01*
X104528952Y-48950476D01*
X104576571Y-48998095D01*
X104624190Y-49093333D01*
X104624190Y-49474285D01*
X104433714Y-48045714D02*
X105100380Y-48045714D01*
X104052761Y-48283809D02*
X104767047Y-48521904D01*
X104767047Y-47902857D01*
X104100380Y-47617142D02*
X104100380Y-46950476D01*
X105100380Y-47379047D01*
X102560380Y-48902857D02*
X102084190Y-49236190D01*
X102560380Y-49474285D02*
X101560380Y-49474285D01*
X101560380Y-49093333D01*
X101608000Y-48998095D01*
X101655619Y-48950476D01*
X101750857Y-48902857D01*
X101893714Y-48902857D01*
X101988952Y-48950476D01*
X102036571Y-48998095D01*
X102084190Y-49093333D01*
X102084190Y-49474285D01*
X101893714Y-48045714D02*
X102560380Y-48045714D01*
X101512761Y-48283809D02*
X102227047Y-48521904D01*
X102227047Y-47902857D01*
X101988952Y-47379047D02*
X101941333Y-47474285D01*
X101893714Y-47521904D01*
X101798476Y-47569523D01*
X101750857Y-47569523D01*
X101655619Y-47521904D01*
X101608000Y-47474285D01*
X101560380Y-47379047D01*
X101560380Y-47188571D01*
X101608000Y-47093333D01*
X101655619Y-47045714D01*
X101750857Y-46998095D01*
X101798476Y-46998095D01*
X101893714Y-47045714D01*
X101941333Y-47093333D01*
X101988952Y-47188571D01*
X101988952Y-47379047D01*
X102036571Y-47474285D01*
X102084190Y-47521904D01*
X102179428Y-47569523D01*
X102369904Y-47569523D01*
X102465142Y-47521904D01*
X102512761Y-47474285D01*
X102560380Y-47379047D01*
X102560380Y-47188571D01*
X102512761Y-47093333D01*
X102465142Y-47045714D01*
X102369904Y-46998095D01*
X102179428Y-46998095D01*
X102084190Y-47045714D01*
X102036571Y-47093333D01*
X101988952Y-47188571D01*
X92654380Y-48902857D02*
X92178190Y-49236190D01*
X92654380Y-49474285D02*
X91654380Y-49474285D01*
X91654380Y-49093333D01*
X91702000Y-48998095D01*
X91749619Y-48950476D01*
X91844857Y-48902857D01*
X91987714Y-48902857D01*
X92082952Y-48950476D01*
X92130571Y-48998095D01*
X92178190Y-49093333D01*
X92178190Y-49474285D01*
X91654380Y-48569523D02*
X91654380Y-47950476D01*
X92035333Y-48283809D01*
X92035333Y-48140952D01*
X92082952Y-48045714D01*
X92130571Y-47998095D01*
X92225809Y-47950476D01*
X92463904Y-47950476D01*
X92559142Y-47998095D01*
X92606761Y-48045714D01*
X92654380Y-48140952D01*
X92654380Y-48426666D01*
X92606761Y-48521904D01*
X92559142Y-48569523D01*
X91654380Y-47045714D02*
X91654380Y-47521904D01*
X92130571Y-47569523D01*
X92082952Y-47521904D01*
X92035333Y-47426666D01*
X92035333Y-47188571D01*
X92082952Y-47093333D01*
X92130571Y-47045714D01*
X92225809Y-46998095D01*
X92463904Y-46998095D01*
X92559142Y-47045714D01*
X92606761Y-47093333D01*
X92654380Y-47188571D01*
X92654380Y-47426666D01*
X92606761Y-47521904D01*
X92559142Y-47569523D01*
X90114380Y-48902857D02*
X89638190Y-49236190D01*
X90114380Y-49474285D02*
X89114380Y-49474285D01*
X89114380Y-49093333D01*
X89162000Y-48998095D01*
X89209619Y-48950476D01*
X89304857Y-48902857D01*
X89447714Y-48902857D01*
X89542952Y-48950476D01*
X89590571Y-48998095D01*
X89638190Y-49093333D01*
X89638190Y-49474285D01*
X89114380Y-48569523D02*
X89114380Y-47950476D01*
X89495333Y-48283809D01*
X89495333Y-48140952D01*
X89542952Y-48045714D01*
X89590571Y-47998095D01*
X89685809Y-47950476D01*
X89923904Y-47950476D01*
X90019142Y-47998095D01*
X90066761Y-48045714D01*
X90114380Y-48140952D01*
X90114380Y-48426666D01*
X90066761Y-48521904D01*
X90019142Y-48569523D01*
X89114380Y-47093333D02*
X89114380Y-47283809D01*
X89162000Y-47379047D01*
X89209619Y-47426666D01*
X89352476Y-47521904D01*
X89542952Y-47569523D01*
X89923904Y-47569523D01*
X90019142Y-47521904D01*
X90066761Y-47474285D01*
X90114380Y-47379047D01*
X90114380Y-47188571D01*
X90066761Y-47093333D01*
X90019142Y-47045714D01*
X89923904Y-46998095D01*
X89685809Y-46998095D01*
X89590571Y-47045714D01*
X89542952Y-47093333D01*
X89495333Y-47188571D01*
X89495333Y-47379047D01*
X89542952Y-47474285D01*
X89590571Y-47521904D01*
X89685809Y-47569523D01*
X33940761Y-132603619D02*
X33845523Y-132556000D01*
X33750285Y-132460761D01*
X33607428Y-132317904D01*
X33512190Y-132270285D01*
X33416952Y-132270285D01*
X33464571Y-132508380D02*
X33369333Y-132460761D01*
X33274095Y-132365523D01*
X33226476Y-132175047D01*
X33226476Y-131841714D01*
X33274095Y-131651238D01*
X33369333Y-131556000D01*
X33464571Y-131508380D01*
X33655047Y-131508380D01*
X33750285Y-131556000D01*
X33845523Y-131651238D01*
X33893142Y-131841714D01*
X33893142Y-132175047D01*
X33845523Y-132365523D01*
X33750285Y-132460761D01*
X33655047Y-132508380D01*
X33464571Y-132508380D01*
X34226476Y-131508380D02*
X34845523Y-131508380D01*
X34512190Y-131889333D01*
X34655047Y-131889333D01*
X34750285Y-131936952D01*
X34797904Y-131984571D01*
X34845523Y-132079809D01*
X34845523Y-132317904D01*
X34797904Y-132413142D01*
X34750285Y-132460761D01*
X34655047Y-132508380D01*
X34369333Y-132508380D01*
X34274095Y-132460761D01*
X34226476Y-132413142D01*
M02*
