M48
; DRILL file {KiCad (5.1.6)-1} date 12/09/20 17:52:06
; FORMAT={-:-/ absolute / inch / decimal}
; #@! TF.CreationDate,2020-12-09T17:52:06+01:00
; #@! TF.GenerationSoftware,Kicad,Pcbnew,(5.1.6)-1
; #@! TF.FileFunction,Plated,1,2,PTH
FMAT,2
INCH
T1C0.0394
%
G90
G05
T1
X1.4721Y-2.8818
X1.7721Y-2.8818
X2.1Y-4.69
X2.1Y-4.99
X3.75Y-1.65
X3.75Y-1.75
X3.75Y-1.85
X2.2Y-4.69
X2.2Y-4.99
X2.04Y-1.65
X2.04Y-1.75
X2.04Y-1.85
X2.77Y-1.65
X2.77Y-1.75
X2.77Y-1.85
X4.12Y-1.75
X4.12Y-2.05
X1.47Y-3.92
X1.77Y-3.92
X3.01Y-3.76
X3.31Y-3.76
X2.6Y-4.69
X2.6Y-4.99
X3.32Y-3.5
X3.62Y-3.5
X3.23Y-4.69
X3.23Y-4.99
X3.76Y-4.69
X3.76Y-4.99
X4.86Y-1.63
X4.86Y-1.73
X4.86Y-1.83
X4.86Y-1.93
X4.86Y-2.03
X4.86Y-2.13
X4.86Y-2.23
X4.86Y-2.33
X4.86Y-2.43
X4.86Y-2.53
X4.86Y-2.63
X4.86Y-2.73
X4.86Y-2.83
X4.86Y-2.93
X4.86Y-3.03
X4.86Y-3.13
X4.86Y-3.23
X4.86Y-3.33
X4.86Y-3.43
X4.86Y-3.53
X4.86Y-3.63
X4.86Y-3.73
X4.86Y-3.83
X4.86Y-3.93
X4.86Y-4.03
X4.86Y-4.13
X3.74Y-2.24
X3.74Y-2.34
X3.74Y-2.44
X3.74Y-2.54
X3.74Y-2.64
X3.74Y-2.74
X3.74Y-2.84
X3.74Y-2.94
X3.84Y-2.24
X3.84Y-2.34
X3.84Y-2.44
X3.84Y-2.54
X3.84Y-2.64
X3.84Y-2.74
X3.84Y-2.84
X3.84Y-2.94
X1.49Y-4.89
X1.49Y-4.99
X1.49Y-5.09
X1.89Y-2.7818
X1.89Y-2.8818
X1.89Y-2.9818
X1.89Y-3.0818
X1.89Y-3.1818
X1.89Y-3.2818
X1.89Y-3.3818
X1.89Y-3.4818
X1.99Y-2.7818
X1.99Y-2.8818
X1.99Y-2.9818
X1.99Y-3.0818
X1.99Y-3.1818
X1.99Y-3.2818
X1.99Y-3.3818
X1.99Y-3.4818
X3.02Y-1.65
X3.02Y-1.75
X3.02Y-1.85
X4.15Y-4.69
X4.15Y-4.99
X3.94Y-3.7
X4.24Y-3.7
X2.81Y-3.56
X2.81Y-3.66
X2.81Y-3.76
X2.81Y-3.86
X2.81Y-3.96
X2.81Y-4.06
X2.81Y-4.16
X2.81Y-4.26
X2.91Y-3.56
X2.91Y-3.66
X2.91Y-3.76
X2.91Y-3.86
X2.91Y-3.96
X2.91Y-4.06
X2.91Y-4.16
X2.91Y-4.26
X2.39Y-3.66
X2.69Y-3.66
X1.47Y-3.82
X1.77Y-3.82
X3.08Y-2.75
X3.38Y-2.75
X2.65Y-1.75
X2.65Y-2.05
X2.1821Y-2.9818
X2.4821Y-2.9818
X1.98Y-4.89
X1.98Y-4.99
X1.98Y-5.09
X3.5Y-4.89
X3.5Y-4.99
X3.5Y-5.09
X2.82Y-2.5519
X2.82Y-2.6519
X2.82Y-2.7519
X2.82Y-2.8519
X2.82Y-2.9519
X2.82Y-3.0519
X2.82Y-3.1519
X2.82Y-3.2519
X2.92Y-2.5519
X2.92Y-2.6519
X2.92Y-2.7519
X2.92Y-2.8519
X2.92Y-2.9519
X2.92Y-3.0519
X2.92Y-3.1519
X2.92Y-3.2519
X1.22Y-4.69
X1.22Y-4.99
X1.79Y-1.65
X1.79Y-1.75
X1.79Y-1.85
X4.02Y-1.75
X4.02Y-2.05
X1.34Y-4.89
X1.34Y-4.99
X1.34Y-5.09
X2.09Y-3.92
X2.39Y-3.92
X3.73Y-3.4019
X3.73Y-3.5019
X3.73Y-3.6019
X3.73Y-3.7019
X3.73Y-3.8019
X3.73Y-3.9019
X3.73Y-4.0019
X3.73Y-4.1019
X3.83Y-3.4019
X3.83Y-3.5019
X3.83Y-3.6019
X3.83Y-3.7019
X3.83Y-3.8019
X3.83Y-3.9019
X3.83Y-4.0019
X3.83Y-4.1019
X2.4Y-2.75
X2.7Y-2.75
X2.55Y-1.75
X2.55Y-2.05
X3.13Y-4.69
X3.13Y-4.99
X3.62Y-4.69
X3.62Y-4.99
X3.88Y-4.89
X3.88Y-4.99
X3.88Y-5.09
X2.86Y-4.89
X2.86Y-4.99
X2.86Y-5.09
X3.9Y-1.65
X3.9Y-1.75
X3.9Y-1.85
X3.35Y-4.89
X3.35Y-4.99
X3.35Y-5.09
X4.24Y-1.65
X4.24Y-1.75
X4.24Y-1.85
X3.53Y-1.75
X3.53Y-2.05
X3.94Y-3.61
X4.24Y-3.61
X0.88Y-2.2676
X0.88Y-2.3676
X0.88Y-2.4676
X0.88Y-2.5676
X0.88Y-2.6676
X0.88Y-2.7676
X0.88Y-2.8676
X0.88Y-2.9676
X0.88Y-3.0676
X0.88Y-3.1676
X0.88Y-3.2676
X0.88Y-3.3676
X0.88Y-3.4676
X0.88Y-3.5676
X0.88Y-3.6676
X0.88Y-3.7676
X0.88Y-3.8676
X0.88Y-3.9676
X0.88Y-4.0676
X0.88Y-4.1676
X0.88Y-4.2676
X0.88Y-4.3676
X0.88Y-4.4676
X0.88Y-4.5676
X0.98Y-2.2676
X0.98Y-2.3676
X0.98Y-2.4676
X0.98Y-2.5676
X0.98Y-2.6676
X0.98Y-2.7676
X0.98Y-2.8676
X0.98Y-2.9676
X0.98Y-3.0676
X0.98Y-3.1676
X0.98Y-3.2676
X0.98Y-3.3676
X0.98Y-3.4676
X0.98Y-3.5676
X0.98Y-3.6676
X0.98Y-3.7676
X0.98Y-3.8676
X0.98Y-3.9676
X0.98Y-4.0676
X0.98Y-4.1676
X0.98Y-4.2676
X0.98Y-4.3676
X0.98Y-4.4676
X0.98Y-4.5676
X2.39Y-3.76
X2.69Y-3.76
X2.9Y-1.75
X2.9Y-2.05
X4.03Y-2.54
X4.33Y-2.54
X2.47Y-4.89
X2.47Y-4.99
X2.47Y-5.09
X3.01Y-4.89
X3.01Y-4.99
X3.01Y-5.09
X1.13Y-2.17
X1.13Y-2.27
X1.13Y-2.37
X1.13Y-2.47
X1.13Y-2.57
X1.13Y-2.67
X1.13Y-2.77
X1.13Y-2.87
X1.13Y-2.97
X1.13Y-3.07
X1.13Y-3.17
X1.13Y-3.27
X1.13Y-3.37
X1.13Y-3.47
X1.13Y-3.57
X1.13Y-3.67
X1.13Y-3.77
X1.13Y-3.87
X1.13Y-3.97
X1.13Y-4.07
X1.13Y-4.17
X1.13Y-4.27
X1.13Y-4.37
X1.13Y-4.47
X1.13Y-4.57
X1.23Y-2.17
X1.23Y-2.27
X1.23Y-2.37
X1.23Y-2.47
X1.23Y-2.57
X1.23Y-2.67
X1.23Y-2.77
X1.23Y-2.87
X1.23Y-2.97
X1.23Y-3.07
X1.23Y-3.17
X1.23Y-3.27
X1.23Y-3.37
X1.23Y-3.47
X1.23Y-3.57
X1.23Y-3.67
X1.23Y-3.77
X1.23Y-3.87
X1.23Y-3.97
X1.23Y-4.07
X1.23Y-4.17
X1.23Y-4.27
X1.23Y-4.37
X1.23Y-4.47
X1.23Y-4.57
X1.61Y-4.69
X1.61Y-4.99
X1.5494Y-1.6504
X1.5494Y-1.7504
X1.5494Y-1.8504
X3.32Y-3.6
X3.62Y-3.6
X2.31Y-1.75
X2.31Y-2.05
X3.14Y-1.75
X3.14Y-2.05
X2.1821Y-3.0818
X2.4821Y-3.0818
X2.32Y-4.89
X2.32Y-4.99
X2.32Y-5.09
X3.26Y-1.65
X3.26Y-1.75
X3.26Y-1.85
X1.67Y-1.75
X1.67Y-2.05
X1.89Y-3.72
X1.89Y-3.82
X1.89Y-3.92
X1.89Y-4.02
X1.89Y-4.12
X1.89Y-4.22
X1.89Y-4.32
X1.89Y-4.42
X1.99Y-3.72
X1.99Y-3.82
X1.99Y-3.92
X1.99Y-4.02
X1.99Y-4.12
X1.99Y-4.22
X1.99Y-4.32
X1.99Y-4.42
X1.83Y-4.89
X1.83Y-4.99
X1.83Y-5.09
X2.19Y-1.65
X2.19Y-1.75
X2.19Y-1.85
X2.09Y-4.02
X2.39Y-4.02
X1.92Y-1.75
X1.92Y-2.05
X3.01Y-3.86
X3.31Y-3.86
X4.03Y-2.44
X4.33Y-2.44
X1.4721Y-2.98
X1.7721Y-2.98
X1.71Y-4.69
X1.71Y-4.99
X3.41Y-1.65
X3.41Y-1.75
X3.41Y-1.85
X1.43Y-1.75
X1.43Y-2.05
X4.03Y-4.89
X4.03Y-4.99
X4.03Y-5.09
X2.43Y-1.65
X2.43Y-1.75
X2.43Y-1.85
X3.63Y-1.75
X3.63Y-2.05
X2.4Y-2.65
X2.7Y-2.65
X3.08Y-2.85
X3.38Y-2.85
X3.3255Y-2.44
X3.6255Y-2.44
X3.3255Y-2.34
X3.6255Y-2.34
X2.74Y-4.69
X2.74Y-4.99
T0
M30
