%TF.GenerationSoftware,KiCad,Pcbnew,(5.1.6)-1*%
%TF.CreationDate,2020-12-09T17:23:27+01:00*%
%TF.ProjectId,ESP8266 w altanie,45535038-3236-4362-9077-20616c74616e,3*%
%TF.SameCoordinates,Original*%
%TF.FileFunction,Copper,L1,Top*%
%TF.FilePolarity,Positive*%
%FSLAX46Y46*%
G04 Gerber Fmt 4.6, Leading zero omitted, Abs format (unit mm)*
G04 Created by KiCad (PCBNEW (5.1.6)-1) date 2020-12-09 17:23:27*
%MOMM*%
%LPD*%
G01*
G04 APERTURE LIST*
%TA.AperFunction,ComponentPad*%
%ADD10O,2.500000X1.500000*%
%TD*%
%TA.AperFunction,ComponentPad*%
%ADD11R,2.500000X1.500000*%
%TD*%
%TA.AperFunction,ComponentPad*%
%ADD12R,2.000000X2.000000*%
%TD*%
%TA.AperFunction,ComponentPad*%
%ADD13C,2.000000*%
%TD*%
%TA.AperFunction,Conductor*%
%ADD14C,0.250000*%
%TD*%
G04 APERTURE END LIST*
D10*
%TO.P,U3,16*%
%TO.N,N/C*%
X36544000Y-45182000D03*
%TO.P,U3,15*%
X36544000Y-47182000D03*
%TO.P,U3,14*%
X36544000Y-49182000D03*
%TO.P,U3,13*%
X36544000Y-51182000D03*
%TO.P,U3,12*%
X36544000Y-53182000D03*
%TO.P,U3,11*%
X36544000Y-55182000D03*
%TO.P,U3,10*%
%TO.N,GND*%
X36544000Y-57182000D03*
%TO.P,U3,9*%
X36544000Y-59182000D03*
%TO.P,U3,8*%
%TO.N,N/C*%
X21144000Y-59182000D03*
%TO.P,U3,7*%
X21144000Y-57182000D03*
%TO.P,U3,6*%
X21144000Y-55182000D03*
%TO.P,U3,5*%
X21144000Y-53182000D03*
%TO.P,U3,4*%
X21144000Y-51182000D03*
%TO.P,U3,3*%
X21144000Y-49182000D03*
%TO.P,U3,2*%
X21144000Y-47182000D03*
D11*
%TO.P,U3,1*%
X21144000Y-45182000D03*
%TD*%
D12*
%TO.P,U2,1*%
%TO.N,GND*%
X24130000Y-64262000D03*
D13*
%TO.P,U2,3*%
%TO.N,N/C*%
X24130000Y-66802000D03*
%TO.P,U2,2*%
X46990000Y-66802000D03*
D12*
%TO.P,U2,1*%
%TO.N,GND*%
X46990000Y-64262000D03*
%TD*%
D13*
%TO.P,REF\u002A\u002A,14*%
%TO.N,N/C*%
X74930000Y-26162000D03*
%TO.P,REF\u002A\u002A,13*%
X74930000Y-28702000D03*
%TO.P,REF\u002A\u002A,12*%
X74930000Y-31242000D03*
%TO.P,REF\u002A\u002A,11*%
X74930000Y-33782000D03*
%TO.P,REF\u002A\u002A,10*%
X74930000Y-36322000D03*
%TO.P,REF\u002A\u002A,9*%
X74930000Y-38862000D03*
%TO.P,REF\u002A\u002A,8*%
X74930000Y-41402000D03*
%TO.P,REF\u002A\u002A,7*%
X74930000Y-43942000D03*
%TO.P,REF\u002A\u002A,6*%
X74930000Y-46482000D03*
%TO.P,REF\u002A\u002A,5*%
X74930000Y-49022000D03*
%TO.P,REF\u002A\u002A,4*%
X74930000Y-51562000D03*
%TO.P,REF\u002A\u002A,3*%
X74930000Y-54102000D03*
%TO.P,REF\u002A\u002A,2*%
%TO.N,GND*%
X74930000Y-56642000D03*
D12*
%TO.P,REF\u002A\u002A,1*%
%TO.N,N/C*%
X74930000Y-59182000D03*
%TD*%
D13*
%TO.P,R1,2*%
%TO.N,N/C*%
X29464000Y-27432000D03*
%TO.P,R1,1*%
X37084000Y-27432000D03*
%TD*%
%TO.P,IC1,1*%
%TO.N,N/C*%
X42005000Y-26162000D03*
%TO.P,IC1,2*%
X42005000Y-28702000D03*
%TO.P,IC1,3*%
X42005000Y-31242000D03*
%TO.P,IC1,4*%
X42005000Y-33782000D03*
%TO.P,IC1,5*%
X42005000Y-36322000D03*
%TO.P,IC1,6*%
X42005000Y-38862000D03*
%TO.P,IC1,7*%
X42005000Y-41402000D03*
%TO.P,IC1,8*%
X42005000Y-43942000D03*
%TO.P,IC1,9*%
X42005000Y-46482000D03*
%TO.P,IC1,10*%
%TO.N,GND*%
X42005000Y-49022000D03*
%TO.P,IC1,11*%
%TO.N,N/C*%
X42005000Y-51562000D03*
%TO.P,IC1,12*%
X42005000Y-54102000D03*
%TO.P,IC1,13*%
X42005000Y-56642000D03*
%TO.P,IC1,14*%
X42005000Y-59182000D03*
%TO.P,IC1,15*%
%TO.N,GND*%
X49943000Y-59182000D03*
%TO.P,IC1,16*%
X49943000Y-56642000D03*
%TO.P,IC1,17*%
X49943000Y-54102000D03*
%TO.P,IC1,18*%
%TO.N,N/C*%
X49943000Y-51562000D03*
%TO.P,IC1,19*%
X49943000Y-49022000D03*
%TO.P,IC1,20*%
X49943000Y-46482000D03*
%TO.P,IC1,21*%
X49943000Y-43942000D03*
%TO.P,IC1,22*%
X49943000Y-41402000D03*
%TO.P,IC1,23*%
X49943000Y-38862000D03*
%TO.P,IC1,24*%
X49943000Y-36322000D03*
%TO.P,IC1,25*%
X49943000Y-33782000D03*
%TO.P,IC1,26*%
X49943000Y-31242000D03*
%TO.P,IC1,27*%
X49943000Y-28702000D03*
%TO.P,IC1,28*%
X49943000Y-26162000D03*
%TD*%
%TO.P,R4,2*%
%TO.N,N/C*%
X29464000Y-35052000D03*
%TO.P,R4,1*%
X37084000Y-35052000D03*
%TD*%
%TO.P,R3,2*%
%TO.N,N/C*%
X29464000Y-32512000D03*
%TO.P,R3,1*%
X37084000Y-32512000D03*
%TD*%
%TO.P,R2,2*%
%TO.N,N/C*%
X29464000Y-29972000D03*
%TO.P,R2,1*%
X37084000Y-29972000D03*
%TD*%
%TO.P,Q1,3*%
%TO.N,N/C*%
X69342000Y-43180000D03*
%TO.P,Q1,2*%
X69342000Y-40640000D03*
D12*
%TO.P,Q1,1*%
%TO.N,GND*%
X69342000Y-38100000D03*
%TD*%
D13*
%TO.P,Q3,3*%
%TO.N,N/C*%
X69342000Y-28702000D03*
%TO.P,Q3,2*%
X69342000Y-31242000D03*
D12*
%TO.P,Q3,1*%
%TO.N,GND*%
X69342000Y-33782000D03*
%TD*%
D13*
%TO.P,Q4,3*%
%TO.N,N/C*%
X65278000Y-28702000D03*
%TO.P,Q4,2*%
X65278000Y-31242000D03*
D12*
%TO.P,Q4,1*%
%TO.N,GND*%
X65278000Y-33782000D03*
%TD*%
D13*
%TO.P,Q2,3*%
%TO.N,N/C*%
X65278000Y-43180000D03*
%TO.P,Q2,2*%
X65278000Y-40640000D03*
D12*
%TO.P,Q2,1*%
%TO.N,GND*%
X65278000Y-38100000D03*
%TD*%
D13*
%TO.P,Q5,3*%
%TO.N,N/C*%
X59690000Y-58990000D03*
%TO.P,Q5,2*%
X57150000Y-58990000D03*
D12*
%TO.P,Q5,1*%
%TO.N,GND*%
X54610000Y-58990000D03*
%TD*%
D13*
%TO.P,Q6,3*%
%TO.N,N/C*%
X59690000Y-54990000D03*
%TO.P,Q6,2*%
X57150000Y-54990000D03*
D12*
%TO.P,Q6,1*%
%TO.N,GND*%
X54610000Y-54990000D03*
%TD*%
D13*
%TO.P,Q7,3*%
%TO.N,N/C*%
X59690000Y-50990000D03*
%TO.P,Q7,2*%
X57150000Y-50990000D03*
D12*
%TO.P,Q7,1*%
%TO.N,GND*%
X54610000Y-50990000D03*
%TD*%
D13*
%TO.P,R12,2*%
%TO.N,N/C*%
X60706000Y-43942000D03*
%TO.P,R12,1*%
X53086000Y-43942000D03*
%TD*%
%TO.P,R11,2*%
%TO.N,N/C*%
X60706000Y-41402000D03*
%TO.P,R11,1*%
X53086000Y-41402000D03*
%TD*%
%TO.P,R10,2*%
%TO.N,N/C*%
X60706000Y-38862000D03*
%TO.P,R10,1*%
X53086000Y-38862000D03*
%TD*%
%TO.P,R9,2*%
%TO.N,N/C*%
X60706000Y-36322000D03*
%TO.P,R9,1*%
X53086000Y-36322000D03*
%TD*%
%TO.P,R8,2*%
%TO.N,N/C*%
X60706000Y-33782000D03*
%TO.P,R8,1*%
X53086000Y-33782000D03*
%TD*%
%TO.P,R7,2*%
%TO.N,N/C*%
X60706000Y-31242000D03*
%TO.P,R7,1*%
X53086000Y-31242000D03*
%TD*%
%TO.P,R6,2*%
%TO.N,N/C*%
X60706000Y-28702000D03*
%TO.P,R6,1*%
X53086000Y-28702000D03*
%TD*%
%TO.P,Q8,3*%
%TO.N,N/C*%
X59690000Y-46990000D03*
%TO.P,Q8,2*%
X57150000Y-46990000D03*
D12*
%TO.P,Q8,1*%
%TO.N,GND*%
X54610000Y-46990000D03*
%TD*%
D13*
%TO.P,R5,2*%
%TO.N,N/C*%
X60706000Y-26162000D03*
%TO.P,R5,1*%
X53086000Y-26162000D03*
%TD*%
D14*
%TO.N,*%
X22860000Y-66802000D02*
X24130000Y-66802000D01*
X39116000Y-53753000D02*
X42005000Y-56642000D01*
X42005000Y-46482000D02*
X38703000Y-43180000D01*
X38703000Y-43180000D02*
X19558000Y-43180000D01*
X18034000Y-44704000D02*
X18034000Y-51054000D01*
X19558000Y-43180000D02*
X18034000Y-44704000D01*
X44863000Y-46482000D02*
X49943000Y-51562000D01*
X42005000Y-46482000D02*
X44863000Y-46482000D01*
X49943000Y-43942000D02*
X53086000Y-43942000D01*
X49943000Y-41402000D02*
X53086000Y-41402000D01*
X49943000Y-38862000D02*
X53086000Y-38862000D01*
X53086000Y-36322000D02*
X49943000Y-36322000D01*
X53086000Y-33782000D02*
X49943000Y-33782000D01*
X53086000Y-31242000D02*
X49943000Y-31242000D01*
X53086000Y-28702000D02*
X49943000Y-28702000D01*
X53086000Y-26162000D02*
X49943000Y-26162000D01*
X57150000Y-46482000D02*
X57150000Y-46990000D01*
X60198000Y-43942000D02*
X60706000Y-43942000D01*
X64516000Y-31242000D02*
X65278000Y-31242000D01*
X74930000Y-59182000D02*
X67310000Y-66802000D01*
X48260000Y-66802000D02*
X67310000Y-66802000D01*
X65278000Y-43180000D02*
X67310000Y-45212000D01*
X67310000Y-45212000D02*
X71120000Y-45212000D01*
X35844000Y-51182000D02*
X37720000Y-51182000D01*
X37720000Y-51182000D02*
X39116000Y-52578000D01*
X39116000Y-52578000D02*
X39116000Y-53753000D01*
X21844000Y-65786000D02*
X22098000Y-66040000D01*
X21844000Y-59182000D02*
X21844000Y-65786000D01*
X22098000Y-66040000D02*
X22860000Y-66802000D01*
X21844000Y-59182000D02*
X19558000Y-59182000D01*
X19558000Y-59182000D02*
X18034000Y-57658000D01*
X18034000Y-57658000D02*
X18034000Y-51054000D01*
X19906000Y-49182000D02*
X18034000Y-51054000D01*
X21844000Y-49182000D02*
X19906000Y-49182000D01*
X39878000Y-51975000D02*
X42005000Y-54102000D01*
X38006000Y-49182000D02*
X39878000Y-51054000D01*
X35844000Y-49182000D02*
X38006000Y-49182000D01*
X39878000Y-51054000D02*
X39878000Y-51975000D01*
X18034000Y-44704000D02*
X18034000Y-39370000D01*
X22352000Y-35052000D02*
X29464000Y-35052000D01*
X18034000Y-39370000D02*
X22352000Y-35052000D01*
X24892000Y-32512000D02*
X22352000Y-35052000D01*
X29464000Y-32512000D02*
X24892000Y-32512000D01*
X27432000Y-29972000D02*
X24892000Y-32512000D01*
X29464000Y-29972000D02*
X27432000Y-29972000D01*
X27432000Y-29464000D02*
X27432000Y-29972000D01*
X29464000Y-27432000D02*
X27432000Y-29464000D01*
X63500000Y-38862000D02*
X65278000Y-40640000D01*
X70042000Y-58990000D02*
X74930000Y-54102000D01*
X66994000Y-58990000D02*
X70042000Y-58990000D01*
X66994000Y-58990000D02*
X67502000Y-58990000D01*
X60960000Y-58990000D02*
X66994000Y-58990000D01*
X73660000Y-45212000D02*
X74930000Y-43942000D01*
X71120000Y-45212000D02*
X73660000Y-45212000D01*
X73152000Y-43180000D02*
X74930000Y-41402000D01*
X69342000Y-43180000D02*
X73152000Y-43180000D01*
X71374000Y-35306000D02*
X71374000Y-30734000D01*
X71374000Y-30734000D02*
X69342000Y-28702000D01*
X74930000Y-38862000D02*
X71374000Y-35306000D01*
X67818000Y-26162000D02*
X65278000Y-28702000D01*
X70358000Y-26162000D02*
X67818000Y-26162000D01*
X71882000Y-27686000D02*
X70358000Y-26162000D01*
X71882000Y-33274000D02*
X71882000Y-27686000D01*
X74930000Y-36322000D02*
X71882000Y-33274000D01*
X42005000Y-33782000D02*
X38608000Y-30385000D01*
X38608000Y-30385000D02*
X38608000Y-23368000D01*
X74930000Y-24638000D02*
X74930000Y-26162000D01*
X38608000Y-23368000D02*
X39878000Y-22098000D01*
X72390000Y-22098000D02*
X74930000Y-24638000D01*
X63500000Y-36576000D02*
X60706000Y-33782000D01*
X63500000Y-38862000D02*
X63500000Y-36576000D01*
X63246000Y-31242000D02*
X60706000Y-28702000D01*
X65278000Y-31242000D02*
X63246000Y-31242000D01*
X74930000Y-46482000D02*
X74422000Y-46990000D01*
X60960000Y-46990000D02*
X59690000Y-46990000D01*
X74422000Y-46990000D02*
X60960000Y-46990000D01*
X60960000Y-50990000D02*
X59690000Y-50990000D01*
X74930000Y-49022000D02*
X72962000Y-50990000D01*
X72962000Y-50990000D02*
X60960000Y-50990000D01*
X60960000Y-54990000D02*
X59690000Y-54990000D01*
X74930000Y-51562000D02*
X71502000Y-54990000D01*
X71502000Y-54990000D02*
X60960000Y-54990000D01*
X60960000Y-58990000D02*
X59690000Y-58990000D01*
X72390000Y-31242000D02*
X74930000Y-33782000D01*
X42005000Y-26162000D02*
X42005000Y-24035000D01*
X42005000Y-24035000D02*
X42164000Y-23876000D01*
X42164000Y-23876000D02*
X70866000Y-23876000D01*
X70866000Y-23876000D02*
X72390000Y-25400000D01*
X72390000Y-25400000D02*
X72390000Y-31242000D01*
X72898000Y-29210000D02*
X74930000Y-31242000D01*
X72898000Y-24892000D02*
X72898000Y-29210000D01*
X39624000Y-26321000D02*
X39624000Y-23876000D01*
X42005000Y-28702000D02*
X39624000Y-26321000D01*
X71120000Y-23114000D02*
X72898000Y-24892000D01*
X39624000Y-23876000D02*
X40386000Y-23114000D01*
X40386000Y-23114000D02*
X71120000Y-23114000D01*
X73406000Y-27178000D02*
X74930000Y-28702000D01*
X39116000Y-28353000D02*
X39116000Y-23622000D01*
X42005000Y-31242000D02*
X39116000Y-28353000D01*
X39116000Y-23622000D02*
X40132000Y-22606000D01*
X40132000Y-22606000D02*
X71374000Y-22606000D01*
X73406000Y-24638000D02*
X73406000Y-27178000D01*
X71374000Y-22606000D02*
X73406000Y-24638000D01*
X39878000Y-22098000D02*
X41402000Y-22098000D01*
X41148000Y-22098000D02*
X41402000Y-22098000D01*
X41402000Y-22098000D02*
X72390000Y-22098000D01*
%TO.N,GND*%
X49943000Y-59182000D02*
X49943000Y-56642000D01*
X49943000Y-56642000D02*
X49943000Y-54102000D01*
X44863000Y-49022000D02*
X49943000Y-54102000D01*
X42005000Y-49022000D02*
X44863000Y-49022000D01*
X54610000Y-58990000D02*
X54610000Y-54990000D01*
X54610000Y-54990000D02*
X54610000Y-50990000D01*
X54610000Y-50990000D02*
X54610000Y-46990000D01*
X49943000Y-59182000D02*
X49943000Y-61309000D01*
X69342000Y-38100000D02*
X69342000Y-33782000D01*
X50038000Y-61214000D02*
X49530000Y-61722000D01*
X54610000Y-61214000D02*
X50038000Y-61214000D01*
X54610000Y-58990000D02*
X54610000Y-61214000D01*
X49943000Y-61309000D02*
X49530000Y-61722000D01*
X49530000Y-61722000D02*
X46990000Y-64262000D01*
X35844000Y-59182000D02*
X35814000Y-59182000D01*
X24130000Y-64262000D02*
X30734000Y-64262000D01*
X35814000Y-59182000D02*
X30734000Y-64262000D01*
X35844000Y-59182000D02*
X35844000Y-57182000D01*
X65024000Y-38100000D02*
X64516000Y-38100000D01*
X65278000Y-38100000D02*
X65278000Y-33782000D01*
%TD*%
M02*
