%TF.GenerationSoftware,KiCad,Pcbnew,(5.1.6)-1*%
%TF.CreationDate,2020-12-09T18:00:23+01:00*%
%TF.ProjectId,W__cznik _wiat_a,57420563-7a6e-4696-9b20-5b7769617442,1*%
%TF.SameCoordinates,Original*%
%TF.FileFunction,Legend,Top*%
%TF.FilePolarity,Positive*%
%FSLAX46Y46*%
G04 Gerber Fmt 4.6, Leading zero omitted, Abs format (unit mm)*
G04 Created by KiCad (PCBNEW (5.1.6)-1) date 2020-12-09 18:00:23*
%MOMM*%
%LPD*%
G01*
G04 APERTURE LIST*
%ADD10C,0.120000*%
%ADD11C,0.152400*%
%ADD12C,0.100000*%
%ADD13C,0.150000*%
G04 APERTURE END LIST*
D10*
%TO.C,REF\u002A\u002A*%
X66802000Y-36128000D02*
X65472000Y-36128000D01*
X65472000Y-36128000D02*
X65472000Y-34798000D01*
X65472000Y-33528000D02*
X65472000Y-30928000D01*
X68132000Y-30928000D02*
X65472000Y-30928000D01*
X68132000Y-33528000D02*
X68132000Y-30928000D01*
X68132000Y-33528000D02*
X65472000Y-33528000D01*
%TO.C,Q1*%
X66978000Y-28082000D02*
X66978000Y-24232000D01*
X66968122Y-24193389D02*
G75*
G03*
X66978000Y-28082000I-1690122J-1948611D01*
G01*
%TO.C,R1*%
X63500000Y-36652000D02*
X63500000Y-35702000D01*
X63500000Y-30912000D02*
X63500000Y-31862000D01*
X64420000Y-35702000D02*
X64420000Y-31862000D01*
X62580000Y-35702000D02*
X64420000Y-35702000D01*
X62580000Y-31862000D02*
X62580000Y-35702000D01*
X64420000Y-31862000D02*
X62580000Y-31862000D01*
%TO.C,SW1*%
X70758000Y-43386000D02*
X70758000Y-41886000D01*
X69508000Y-39386000D02*
X65008000Y-39386000D01*
X63758000Y-41886000D02*
X63758000Y-43386000D01*
X65008000Y-45886000D02*
X69508000Y-45886000D01*
%TO.C,U1*%
X36563001Y-23609001D02*
X37893001Y-23609001D01*
X39163001Y-26209001D02*
X39163001Y-23609001D01*
X36563001Y-24939001D02*
X36563001Y-23609001D01*
X39163001Y-23609001D02*
X41763001Y-23609001D01*
X36563001Y-26209001D02*
X36563001Y-49129001D01*
X36563001Y-26209001D02*
X39163001Y-26209001D01*
X41763001Y-23609001D02*
X41763001Y-49129001D01*
X36563001Y-49129001D02*
X41763001Y-49129001D01*
D11*
%TO.C,U2*%
X44527001Y-46748001D02*
X44527001Y-47510001D01*
X44527001Y-47510001D02*
X60529001Y-47510001D01*
X60529001Y-47510001D02*
X60529001Y-46748001D01*
%TD*%
D12*
%TO.C,U2*%
X43643001Y-31389001D02*
X43643001Y-32389001D01*
X46043001Y-32389001D01*
X46043001Y-31389001D01*
X43643001Y-31389001D01*
X44143001Y-34389001D02*
X45543001Y-34389001D01*
X44143001Y-33389001D02*
X45543001Y-33389001D01*
X45543001Y-34389001D02*
G75*
G03*
X45543001Y-33389001I0J500000D01*
G01*
X44143001Y-33389001D02*
G75*
G03*
X44143001Y-34389001I0J-500000D01*
G01*
X44143001Y-36389001D02*
X45543001Y-36389001D01*
X44143001Y-35389001D02*
X45543001Y-35389001D01*
X45543001Y-36389001D02*
G75*
G03*
X45543001Y-35389001I0J500000D01*
G01*
X44143001Y-35389001D02*
G75*
G03*
X44143001Y-36389001I0J-500000D01*
G01*
X44143001Y-38389001D02*
X45543001Y-38389001D01*
X44143001Y-37389001D02*
X45543001Y-37389001D01*
X45543001Y-38389001D02*
G75*
G03*
X45543001Y-37389001I0J500000D01*
G01*
X44143001Y-37389001D02*
G75*
G03*
X44143001Y-38389001I0J-500000D01*
G01*
X44143001Y-40389001D02*
X45543001Y-40389001D01*
X44143001Y-39389001D02*
X45543001Y-39389001D01*
X45543001Y-40389001D02*
G75*
G03*
X45543001Y-39389001I0J500000D01*
G01*
X44143001Y-39389001D02*
G75*
G03*
X44143001Y-40389001I0J-500000D01*
G01*
X44143001Y-42389001D02*
X45543001Y-42389001D01*
X44143001Y-41389001D02*
X45543001Y-41389001D01*
X45543001Y-42389001D02*
G75*
G03*
X45543001Y-41389001I0J500000D01*
G01*
X44143001Y-41389001D02*
G75*
G03*
X44143001Y-42389001I0J-500000D01*
G01*
X44143001Y-44389001D02*
X45543001Y-44389001D01*
X44143001Y-43389001D02*
X45543001Y-43389001D01*
X45543001Y-44389001D02*
G75*
G03*
X45543001Y-43389001I0J500000D01*
G01*
X44143001Y-43389001D02*
G75*
G03*
X44143001Y-44389001I0J-500000D01*
G01*
X44143001Y-46389001D02*
X45543001Y-46389001D01*
X44143001Y-45389001D02*
X45543001Y-45389001D01*
X45543001Y-46389001D02*
G75*
G03*
X45543001Y-45389001I0J500000D01*
G01*
X44143001Y-45389001D02*
G75*
G03*
X44143001Y-46389001I0J-500000D01*
G01*
X59543001Y-46389001D02*
X60943001Y-46389001D01*
X59543001Y-45389001D02*
X60943001Y-45389001D01*
X60943001Y-46389001D02*
G75*
G03*
X60943001Y-45389001I0J500000D01*
G01*
X59543001Y-45389001D02*
G75*
G03*
X59543001Y-46389001I0J-500000D01*
G01*
X59443001Y-44389001D02*
X60843001Y-44389001D01*
X59443001Y-43389001D02*
X60843001Y-43389001D01*
X60843001Y-44389001D02*
G75*
G03*
X60843001Y-43389001I0J500000D01*
G01*
X59443001Y-43389001D02*
G75*
G03*
X59443001Y-44389001I0J-500000D01*
G01*
X59543001Y-42389001D02*
X60943001Y-42389001D01*
X59543001Y-41389001D02*
X60943001Y-41389001D01*
X60943001Y-42389001D02*
G75*
G03*
X60943001Y-41389001I0J500000D01*
G01*
X59543001Y-41389001D02*
G75*
G03*
X59543001Y-42389001I0J-500000D01*
G01*
X59543001Y-40389001D02*
X60943001Y-40389001D01*
X59543001Y-39389001D02*
X60943001Y-39389001D01*
X60943001Y-40389001D02*
G75*
G03*
X60943001Y-39389001I0J500000D01*
G01*
X59543001Y-39389001D02*
G75*
G03*
X59543001Y-40389001I0J-500000D01*
G01*
X59543001Y-38389001D02*
X60943001Y-38389001D01*
X59543001Y-37389001D02*
X60943001Y-37389001D01*
X60943001Y-38389001D02*
G75*
G03*
X60943001Y-37389001I0J500000D01*
G01*
X59543001Y-37389001D02*
G75*
G03*
X59543001Y-38389001I0J-500000D01*
G01*
X59543001Y-36389001D02*
X60943001Y-36389001D01*
X59543001Y-35389001D02*
X60943001Y-35389001D01*
X60943001Y-36389001D02*
G75*
G03*
X60943001Y-35389001I0J500000D01*
G01*
X59543001Y-35389001D02*
G75*
G03*
X59543001Y-36389001I0J-500000D01*
G01*
X59543001Y-34389001D02*
X60943001Y-34389001D01*
X59543001Y-33389001D02*
X60943001Y-33389001D01*
X60943001Y-34389001D02*
G75*
G03*
X60943001Y-33389001I0J500000D01*
G01*
X59543001Y-33389001D02*
G75*
G03*
X59543001Y-34389001I0J-500000D01*
G01*
X59543001Y-32389001D02*
X60943001Y-32389001D01*
X59543001Y-31389001D02*
X60943001Y-31389001D01*
X60943001Y-32389001D02*
G75*
G03*
X60943001Y-31389001I0J500000D01*
G01*
X59543001Y-31389001D02*
G75*
G03*
X59543001Y-32389001I0J-500000D01*
G01*
X48033001Y-48289001D02*
X48033001Y-46889001D01*
X47033001Y-48289001D02*
X47033001Y-46889001D01*
X48033001Y-46889001D02*
G75*
G03*
X47033001Y-46889001I-500000J0D01*
G01*
X47033001Y-48289001D02*
G75*
G03*
X48033001Y-48289001I500000J0D01*
G01*
X50033001Y-48289001D02*
X50033001Y-46889001D01*
X49033001Y-48289001D02*
X49033001Y-46889001D01*
X50033001Y-46889001D02*
G75*
G03*
X49033001Y-46889001I-500000J0D01*
G01*
X49033001Y-48289001D02*
G75*
G03*
X50033001Y-48289001I500000J0D01*
G01*
X52033001Y-48289001D02*
X52033001Y-46889001D01*
X51033001Y-48289001D02*
X51033001Y-46889001D01*
X52033001Y-46889001D02*
G75*
G03*
X51033001Y-46889001I-500000J0D01*
G01*
X51033001Y-48289001D02*
G75*
G03*
X52033001Y-48289001I500000J0D01*
G01*
X54033001Y-48289001D02*
X54033001Y-46889001D01*
X53033001Y-48289001D02*
X53033001Y-46889001D01*
X54033001Y-46889001D02*
G75*
G03*
X53033001Y-46889001I-500000J0D01*
G01*
X53033001Y-48289001D02*
G75*
G03*
X54033001Y-48289001I500000J0D01*
G01*
X56033001Y-48289001D02*
X56033001Y-46889001D01*
X55033001Y-48289001D02*
X55033001Y-46889001D01*
X56033001Y-46889001D02*
G75*
G03*
X55033001Y-46889001I-500000J0D01*
G01*
X55033001Y-48289001D02*
G75*
G03*
X56033001Y-48289001I500000J0D01*
G01*
X58033001Y-48289001D02*
X58033001Y-46889001D01*
X57033001Y-48289001D02*
X57033001Y-46889001D01*
X58033001Y-46889001D02*
G75*
G03*
X57033001Y-46889001I-500000J0D01*
G01*
X57033001Y-48289001D02*
G75*
G03*
X58033001Y-48289001I500000J0D01*
G01*
%TD*%
%TO.C,REF\u002A\u002A*%
D13*
X65468666Y-38020380D02*
X65135333Y-37544190D01*
X64897238Y-38020380D02*
X64897238Y-37020380D01*
X65278190Y-37020380D01*
X65373428Y-37068000D01*
X65421047Y-37115619D01*
X65468666Y-37210857D01*
X65468666Y-37353714D01*
X65421047Y-37448952D01*
X65373428Y-37496571D01*
X65278190Y-37544190D01*
X64897238Y-37544190D01*
X65897238Y-37496571D02*
X66230571Y-37496571D01*
X66373428Y-38020380D02*
X65897238Y-38020380D01*
X65897238Y-37020380D01*
X66373428Y-37020380D01*
X67135333Y-37496571D02*
X66802000Y-37496571D01*
X66802000Y-38020380D02*
X66802000Y-37020380D01*
X67278190Y-37020380D01*
X67802000Y-37020380D02*
X67802000Y-37258476D01*
X67563904Y-37163238D02*
X67802000Y-37258476D01*
X68040095Y-37163238D01*
X67659142Y-37448952D02*
X67802000Y-37258476D01*
X67944857Y-37448952D01*
X68563904Y-37020380D02*
X68563904Y-37258476D01*
X68325809Y-37163238D02*
X68563904Y-37258476D01*
X68802000Y-37163238D01*
X68421047Y-37448952D02*
X68563904Y-37258476D01*
X68706761Y-37448952D01*
%TO.C,Q1*%
X62265619Y-26237238D02*
X62218000Y-26332476D01*
X62122761Y-26427714D01*
X61979904Y-26570571D01*
X61932285Y-26665809D01*
X61932285Y-26761047D01*
X62170380Y-26713428D02*
X62122761Y-26808666D01*
X62027523Y-26903904D01*
X61837047Y-26951523D01*
X61503714Y-26951523D01*
X61313238Y-26903904D01*
X61218000Y-26808666D01*
X61170380Y-26713428D01*
X61170380Y-26522952D01*
X61218000Y-26427714D01*
X61313238Y-26332476D01*
X61503714Y-26284857D01*
X61837047Y-26284857D01*
X62027523Y-26332476D01*
X62122761Y-26427714D01*
X62170380Y-26522952D01*
X62170380Y-26713428D01*
X62170380Y-25332476D02*
X62170380Y-25903904D01*
X62170380Y-25618190D02*
X61170380Y-25618190D01*
X61313238Y-25713428D01*
X61408476Y-25808666D01*
X61456095Y-25903904D01*
%TO.C,R1*%
X65872380Y-33948666D02*
X65396190Y-34282000D01*
X65872380Y-34520095D02*
X64872380Y-34520095D01*
X64872380Y-34139142D01*
X64920000Y-34043904D01*
X64967619Y-33996285D01*
X65062857Y-33948666D01*
X65205714Y-33948666D01*
X65300952Y-33996285D01*
X65348571Y-34043904D01*
X65396190Y-34139142D01*
X65396190Y-34520095D01*
X65872380Y-32996285D02*
X65872380Y-33567714D01*
X65872380Y-33282000D02*
X64872380Y-33282000D01*
X65015238Y-33377238D01*
X65110476Y-33472476D01*
X65158095Y-33567714D01*
%TO.C,SW1*%
X65924666Y-38790761D02*
X66067523Y-38838380D01*
X66305619Y-38838380D01*
X66400857Y-38790761D01*
X66448476Y-38743142D01*
X66496095Y-38647904D01*
X66496095Y-38552666D01*
X66448476Y-38457428D01*
X66400857Y-38409809D01*
X66305619Y-38362190D01*
X66115142Y-38314571D01*
X66019904Y-38266952D01*
X65972285Y-38219333D01*
X65924666Y-38124095D01*
X65924666Y-38028857D01*
X65972285Y-37933619D01*
X66019904Y-37886000D01*
X66115142Y-37838380D01*
X66353238Y-37838380D01*
X66496095Y-37886000D01*
X66829428Y-37838380D02*
X67067523Y-38838380D01*
X67258000Y-38124095D01*
X67448476Y-38838380D01*
X67686571Y-37838380D01*
X68591333Y-38838380D02*
X68019904Y-38838380D01*
X68305619Y-38838380D02*
X68305619Y-37838380D01*
X68210380Y-37981238D01*
X68115142Y-38076476D01*
X68019904Y-38124095D01*
%TO.C,U1*%
X38401096Y-21851381D02*
X38401096Y-22660905D01*
X38448715Y-22756143D01*
X38496334Y-22803762D01*
X38591572Y-22851381D01*
X38782048Y-22851381D01*
X38877286Y-22803762D01*
X38924905Y-22756143D01*
X38972524Y-22660905D01*
X38972524Y-21851381D01*
X39972524Y-22851381D02*
X39401096Y-22851381D01*
X39686810Y-22851381D02*
X39686810Y-21851381D01*
X39591572Y-21994239D01*
X39496334Y-22089477D01*
X39401096Y-22137096D01*
%TO.C,U2*%
X51131096Y-33881381D02*
X51131096Y-34690905D01*
X51178715Y-34786143D01*
X51226334Y-34833762D01*
X51321572Y-34881381D01*
X51512048Y-34881381D01*
X51607286Y-34833762D01*
X51654905Y-34786143D01*
X51702524Y-34690905D01*
X51702524Y-33881381D01*
X52131096Y-33976620D02*
X52178715Y-33929001D01*
X52273953Y-33881381D01*
X52512048Y-33881381D01*
X52607286Y-33929001D01*
X52654905Y-33976620D01*
X52702524Y-34071858D01*
X52702524Y-34167096D01*
X52654905Y-34309953D01*
X52083477Y-34881381D01*
X52702524Y-34881381D01*
%TD*%
M02*
