%TF.GenerationSoftware,KiCad,Pcbnew,(5.1.6)-1*%
%TF.CreationDate,2020-12-09T18:00:23+01:00*%
%TF.ProjectId,W__cznik _wiat_a,57420563-7a6e-4696-9b20-5b7769617442,1*%
%TF.SameCoordinates,Original*%
%TF.FileFunction,Copper,L1,Top*%
%TF.FilePolarity,Positive*%
%FSLAX46Y46*%
G04 Gerber Fmt 4.6, Leading zero omitted, Abs format (unit mm)*
G04 Created by KiCad (PCBNEW (5.1.6)-1) date 2020-12-09 18:00:23*
%MOMM*%
%LPD*%
G01*
G04 APERTURE LIST*
%TA.AperFunction,ComponentPad*%
%ADD10O,1.700000X1.700000*%
%TD*%
%TA.AperFunction,ComponentPad*%
%ADD11R,1.700000X1.700000*%
%TD*%
%TA.AperFunction,ComponentPad*%
%ADD12C,1.300000*%
%TD*%
%TA.AperFunction,ComponentPad*%
%ADD13R,1.300000X1.300000*%
%TD*%
%TA.AperFunction,ComponentPad*%
%ADD14C,1.400000*%
%TD*%
%TA.AperFunction,ComponentPad*%
%ADD15O,1.400000X1.400000*%
%TD*%
%TA.AperFunction,ComponentPad*%
%ADD16C,2.000000*%
%TD*%
%TA.AperFunction,ComponentPad*%
%ADD17R,2.500000X1.100000*%
%TD*%
%TA.AperFunction,ComponentPad*%
%ADD18O,2.500000X1.100000*%
%TD*%
%TA.AperFunction,ComponentPad*%
%ADD19O,1.100000X2.500000*%
%TD*%
%TA.AperFunction,Conductor*%
%ADD20C,0.250000*%
%TD*%
G04 APERTURE END LIST*
D10*
%TO.P,REF\u002A\u002A,2*%
%TO.N,Net-(SW2-Pad1)*%
X66802000Y-32258000D03*
D11*
%TO.P,REF\u002A\u002A,1*%
%TO.N,Net-(Q1-Pad1)*%
X66802000Y-34798000D03*
%TD*%
D12*
%TO.P,Q1,2*%
%TO.N,Net-(Q1-Pad2)*%
X64008000Y-26152000D03*
%TO.P,Q1,3*%
%TO.N,Net-(Q1-Pad3)*%
X65278000Y-24892000D03*
D13*
%TO.P,Q1,1*%
%TO.N,Net-(Q1-Pad1)*%
X65278000Y-27432000D03*
%TD*%
D14*
%TO.P,R1,1*%
%TO.N,Net-(Q1-Pad2)*%
X63500000Y-29972000D03*
D15*
%TO.P,R1,2*%
%TO.N,Net-(R1-Pad2)*%
X63500000Y-37592000D03*
%TD*%
D16*
%TO.P,SW1,2*%
%TO.N,Net-(Q1-Pad1)*%
X64008000Y-44886000D03*
%TO.P,SW1,1*%
%TO.N,Net-(SW1-Pad1)*%
X64008000Y-40386000D03*
%TO.P,SW1,2*%
%TO.N,N/C*%
X70508000Y-44886000D03*
%TO.P,SW1,1*%
X70508000Y-40386000D03*
%TD*%
D11*
%TO.P,U1,1*%
%TO.N,N/C*%
X37893001Y-24939001D03*
D10*
%TO.P,U1,2*%
%TO.N,+5V*%
X40433001Y-24939001D03*
%TO.P,U1,3*%
%TO.N,Net-(U1-Pad3)*%
X40433001Y-47799001D03*
D11*
%TO.P,U1,1*%
%TO.N,Net-(Q1-Pad1)*%
X37893001Y-47799001D03*
%TD*%
D17*
%TO.P,U2,1*%
%TO.N,Net-(U2-Pad1)*%
X44843001Y-31889001D03*
D18*
%TO.P,U2,2*%
%TO.N,Net-(U2-Pad2)*%
X44843001Y-33889001D03*
%TO.P,U2,3*%
%TO.N,Net-(U1-Pad3)*%
X44843001Y-35889001D03*
%TO.P,U2,4*%
%TO.N,Net-(U2-Pad4)*%
X44843001Y-37889001D03*
%TO.P,U2,5*%
%TO.N,Net-(SW2-Pad1)*%
X44843001Y-39889001D03*
%TO.P,U2,6*%
%TO.N,Net-(U2-Pad6)*%
X44843001Y-41889001D03*
%TO.P,U2,7*%
%TO.N,Net-(U2-Pad7)*%
X44843001Y-43889001D03*
%TO.P,U2,8*%
%TO.N,Net-(U1-Pad3)*%
X44843001Y-45889001D03*
%TO.P,U2,15*%
%TO.N,Net-(Q1-Pad1)*%
X60243001Y-45889001D03*
%TO.P,U2,16*%
X60143001Y-43889001D03*
%TO.P,U2,17*%
%TO.N,Net-(U2-Pad17)*%
X60243001Y-41889001D03*
%TO.P,U2,18*%
%TO.N,Net-(U2-Pad18)*%
X60243001Y-39889001D03*
%TO.P,U2,19*%
%TO.N,Net-(SW1-Pad1)*%
X60243001Y-37889001D03*
%TO.P,U2,20*%
%TO.N,Net-(R1-Pad2)*%
X60243001Y-35889001D03*
%TO.P,U2,21*%
%TO.N,Net-(U2-Pad21)*%
X60243001Y-33889001D03*
%TO.P,U2,22*%
%TO.N,Net-(U2-Pad22)*%
X60243001Y-31889001D03*
D19*
%TO.P,U2,9*%
%TO.N,Net-(U2-Pad9)*%
X47533001Y-47589001D03*
%TO.P,U2,10*%
%TO.N,Net-(U2-Pad10)*%
X49533001Y-47589001D03*
%TO.P,U2,11*%
%TO.N,Net-(U2-Pad11)*%
X51533001Y-47589001D03*
%TO.P,U2,12*%
%TO.N,Net-(U2-Pad12)*%
X53533001Y-47589001D03*
%TO.P,U2,13*%
%TO.N,Net-(U2-Pad13)*%
X55533001Y-47589001D03*
%TO.P,U2,14*%
%TO.N,Net-(U2-Pad14)*%
X57533001Y-47589001D03*
%TD*%
D20*
%TO.N,Net-(Q1-Pad1)*%
X64008000Y-44886000D02*
X63936000Y-44886000D01*
X62939001Y-43889001D02*
X59543001Y-43889001D01*
X63936000Y-44886000D02*
X62939001Y-43889001D01*
X59543001Y-43889001D02*
X59543001Y-45889001D01*
X59543001Y-45889001D02*
X59543001Y-48406999D01*
X59543001Y-48406999D02*
X58166000Y-49784000D01*
X39878000Y-49784000D02*
X37893001Y-47799001D01*
X58166000Y-49784000D02*
X39878000Y-49784000D01*
X66802000Y-42092000D02*
X66512000Y-42382000D01*
X66802000Y-34798000D02*
X66802000Y-42092000D01*
X66512000Y-42382000D02*
X64008000Y-44886000D01*
X65278000Y-27432000D02*
X65786000Y-27432000D01*
X65786000Y-27432000D02*
X69088000Y-30734000D01*
X69088000Y-32512000D02*
X66802000Y-34798000D01*
X69088000Y-30734000D02*
X69088000Y-32512000D01*
%TO.N,Net-(Q1-Pad2)*%
X63500000Y-26660000D02*
X64008000Y-26152000D01*
X63500000Y-29972000D02*
X63500000Y-26660000D01*
%TO.N,Net-(R1-Pad2)*%
X61797001Y-35889001D02*
X59543001Y-35889001D01*
X63500000Y-37592000D02*
X61797001Y-35889001D01*
%TO.N,Net-(SW1-Pad1)*%
X61511001Y-37889001D02*
X59543001Y-37889001D01*
X64008000Y-40386000D02*
X61511001Y-37889001D01*
%TO.N,Net-(SW2-Pad1)*%
X54952002Y-30480000D02*
X45543001Y-39889001D01*
X61976000Y-30480000D02*
X54952002Y-30480000D01*
X66802000Y-32258000D02*
X63754000Y-32258000D01*
X62992000Y-31496000D02*
X62865000Y-31369000D01*
X63754000Y-32258000D02*
X62865000Y-31369000D01*
X62865000Y-31369000D02*
X61976000Y-30480000D01*
%TO.N,Net-(U1-Pad3)*%
X43633001Y-47799001D02*
X45543001Y-45889001D01*
X40433001Y-47799001D02*
X43633001Y-47799001D01*
X45543001Y-45889001D02*
X46058999Y-45889001D01*
X40433001Y-47799001D02*
X40433001Y-37290999D01*
X41834999Y-35889001D02*
X45543001Y-35889001D01*
X40433001Y-37290999D02*
X41834999Y-35889001D01*
%TD*%
M02*
