M48
; DRILL file {KiCad (5.1.6)-1} date 12/09/20 18:00:30
; FORMAT={-:-/ absolute / inch / decimal}
; #@! TF.CreationDate,2020-12-09T18:00:30+01:00
; #@! TF.GenerationSoftware,Kicad,Pcbnew,(5.1.6)-1
; #@! TF.FileFunction,Plated,1,2,PTH
FMAT,2
INCH
T1C0.0256
T2C0.0276
T3C0.0295
T4C0.0394
T5C0.0433
%
G90
G05
T1
X1.793Y-1.2555
X1.793Y-1.3342
X1.793Y-1.413
X1.793Y-1.4917
X1.793Y-1.5704
X1.793Y-1.6492
X1.793Y-1.7279
X1.793Y-1.8067
X1.8714Y-1.846
X1.9501Y-1.846
X2.0289Y-1.846
X2.1076Y-1.846
X2.1863Y-1.846
X2.2651Y-1.846
X2.3442Y-1.2555
X2.3442Y-1.3342
X2.3442Y-1.413
X2.3442Y-1.4917
X2.3442Y-1.5704
X2.3442Y-1.6492
X2.3442Y-1.7279
X2.3442Y-1.8067
T2
X2.5Y-1.18
X2.5Y-1.48
T3
X2.52Y-1.0296
X2.57Y-0.98
X2.57Y-1.08
T4
X1.4919Y-0.9819
X1.4919Y-1.8819
X1.5919Y-0.9819
X1.5919Y-1.8819
X2.63Y-1.27
X2.63Y-1.37
T5
X2.52Y-1.59
X2.52Y-1.7672
X2.7759Y-1.59
X2.7759Y-1.7672
T0
M30
